<svg width="1440" height="568" viewBox="0 0 1440 568" fill="none" xmlns="http://www.w3.org/2000/svg">
<rect width="1440" height="568" fill="#E5E5E5"/>
<g clip-path="url(#clip0_0_1)">
<rect width="1440" height="5564" transform="translate(0 -4996)" fill="white"/>
<rect x="-148" y="-1315" width="1931" height="2060" fill="#0071CC"/>
<path d="M103.5 119.654C31.5 166.154 -3 219.653 -29 326.153L-49 591.881L659 650.881C855.5 673.047 1281.4 712.681 1413 693.881C1544.6 675.081 1530.5 576.321 1557 510.654C1609.83 333.82 1740 87.3832 1532.5 24.654C1247.63 -61.4661 1079.5 102.154 999 147.154C918.5 192.155 788.5 216.154 680.5 191.654C572.5 167.154 495.199 138.827 396.5 102.654C301 67.6543 203.911 54.8049 103.5 119.654Z" fill="white"/>
</g>
<defs>
<clipPath id="clip0_0_1">
<rect width="1440" height="5564" fill="white" transform="translate(0 -4996)"/>
</clipPath>
</defs>
</svg>
