<svg width="68" height="68" viewBox="0 0 68 68" fill="white" xmlns="http://www.w3.org/2000/svg">
<rect width="68" height="68" fill="none"/>
<rect width="68" height="68" rx="20" fill="white"/>
<path fill-rule="evenodd" clip-rule="evenodd" d="M34.3371 25.5016C37.4709 25.5002 40.5347 26.4184 43.1412 28.1401C45.7476 29.8618 47.7798 32.3097 48.9805 35.1743C50.1812 38.0389 50.4967 41.1915 49.887 44.2335C49.2773 47.2755 47.7699 50.0703 45.5553 52.2646C43.3407 54.4588 40.5183 55.9538 37.4451 56.5607C34.372 57.1676 31.186 56.859 28.29 55.674C25.3941 54.489 22.9181 52.4808 21.1754 49.9034C19.4326 47.3259 18.5013 44.2949 18.4991 41.1936C18.4977 39.1341 18.9062 37.0944 19.7014 35.1911C20.4966 33.2877 21.6629 31.5581 23.1336 30.1009C24.6044 28.6438 26.3508 27.4876 28.2731 26.6984C30.1954 25.9093 32.256 25.5026 34.3371 25.5016ZM9 16.6379L34.3371 6L59.6779 16.6379L45.2257 22.6897V24.5256C48.8608 26.8474 51.6384 30.2717 53.143 34.286C54.6476 38.3003 54.7983 42.6888 53.5725 46.7949C52.3467 50.9011 49.8104 54.504 46.3429 57.0646C42.8755 59.6252 38.6635 61.0059 34.3371 61C15.3755 61 7.14857 37.257 21.8721 25.6576V22.0294L15.7458 19.4716C15.7458 18.7133 15.8961 17.6828 15.5075 17.6828C15.0492 17.6828 15.2692 20.4004 15.2692 20.7922V26.0204C17.6632 27.0291 15.0639 31.3503 14.602 32.417C14.151 31.3285 11.5737 27.0218 13.964 26.0204V18.7241L9 16.6379Z" fill="black" stroke="black"/>
<path fill-rule="evenodd" clip-rule="evenodd" d="M34.3371 25.5016C37.4709 25.5002 40.5347 26.4184 43.1412 28.1401C45.7476 29.8618 47.7798 32.3097 48.9805 35.1743C50.1812 38.0389 50.4967 41.1915 49.887 44.2335C49.2773 47.2755 47.7699 50.0703 45.5553 52.2646C43.3407 54.4588 40.5183 55.9538 37.4451 56.5607C34.372 57.1676 31.186 56.859 28.29 55.674C25.3941 54.489 22.9181 52.4808 21.1754 49.9034C19.4326 47.3259 18.5013 44.2949 18.4991 41.1936C18.4977 39.1341 18.9062 37.0944 19.7014 35.1911C20.4966 33.2877 21.6629 31.5581 23.1336 30.1009C24.6044 28.6438 26.3508 27.4876 28.2731 26.6984C30.1954 25.9093 32.256 25.5026 34.3371 25.5016ZM9 16.6379L34.3371 6L59.6779 16.6379L45.2257 22.6897V24.5256C48.8608 26.8474 51.6384 30.2717 53.143 34.286C54.6476 38.3003 54.7983 42.6888 53.5725 46.7949C52.3467 50.9011 49.8104 54.504 46.3429 57.0646C42.8755 59.6252 38.6635 61.0059 34.3371 61C15.3755 61 7.14857 37.257 21.8721 25.6576V22.0294L15.7458 19.4716C15.7458 18.7133 15.8961 17.6828 15.5075 17.6828C15.0492 17.6828 15.2692 20.4004 15.2692 20.7922V26.0204C17.6632 27.0291 15.0639 31.3503 14.602 32.417C14.151 31.3285 11.5737 27.0218 13.964 26.0204V18.7241L9 16.6379Z" fill="black" stroke="black"/>
<path d="M34.929 30.6052C34.8714 30.6806 34.7954 30.7387 34.7087 30.7734C34.6118 30.8099 34.5332 30.7969 34.4759 30.8697C34.4524 30.9058 34.4326 30.9444 34.4167 30.9848C34.379 31.058 34.3162 31.114 34.2407 31.1418C34.2127 31.1519 34.1787 31.1625 34.1708 31.1899C34.1689 31.2105 34.1711 31.2314 34.1773 31.2511C34.1913 31.3561 34.0562 31.3994 33.9668 31.4515C33.9168 31.4843 33.8738 31.5275 33.8403 31.5782C33.8069 31.6288 33.7839 31.686 33.7726 31.7462C33.7507 31.8667 33.7449 31.9897 33.7553 32.1118C33.5689 32.1429 33.3788 32.1429 33.1923 32.1118L33.1881 32.0438C33.1606 32.036 33.1312 32.0397 33.1064 32.0541C33.0815 32.0685 33.0632 32.0925 33.0554 32.1209C32.9249 32.0795 32.8183 31.9721 32.6827 31.9461C32.5142 31.9138 32.3497 32.0188 32.2236 32.1387C32.1925 32.1646 32.1676 32.1976 32.1509 32.235C32.1439 32.2579 32.1384 32.2813 32.1346 32.3049C32.1121 32.389 32.0586 32.4606 31.9856 32.5044C31.9127 32.5481 31.826 32.5605 31.7443 32.539C31.6674 32.5144 31.5781 32.4609 31.5161 32.5139C31.4728 32.551 31.4742 32.6203 31.4919 32.6757C31.5158 32.7282 31.5329 32.7838 31.5426 32.841C31.5473 32.9421 31.4705 33.024 31.409 33.103C31.3475 33.1819 31.2972 33.2956 31.3545 33.3789C31.3675 33.3977 31.3866 33.4155 31.3861 33.4391C31.3861 33.4873 31.314 33.4873 31.2729 33.5085C31.1845 33.5567 31.2534 33.7089 31.2031 33.7975C31.183 33.8336 31.1444 33.8562 31.1258 33.8938C31.1133 33.9251 31.1126 33.9602 31.1236 33.992C31.1345 34.024 31.1566 34.0505 31.1854 34.0667C31.2452 34.0962 31.3136 34.1012 31.3768 34.0807C31.4166 34.0668 31.4579 34.0579 31.4998 34.0542C31.5328 34.0555 31.5654 34.0617 31.5966 34.0725L31.7624 34.1206C31.8235 34.1385 31.8971 34.1727 31.8971 34.2382C31.8971 34.2964 31.8356 34.3345 31.7806 34.345C31.7257 34.3557 31.6642 34.3585 31.6218 34.3971C31.5794 34.4356 31.5687 34.517 31.5715 34.584C31.5778 34.6438 31.575 34.7042 31.5631 34.7631C31.5568 34.7925 31.5426 34.8195 31.5221 34.841C31.5017 34.8626 31.4759 34.8778 31.4476 34.885C31.419 34.8858 31.3906 34.8807 31.3639 34.8699C31.3373 34.8592 31.313 34.843 31.2925 34.8223C31.2515 34.7807 31.1992 34.7528 31.1426 34.7424C31.0853 34.739 31.0238 34.7978 31.0461 34.8522C30.9604 34.8108 30.8669 34.7704 30.7742 34.7901C30.6815 34.8099 30.6009 34.9158 30.6409 35.0044C30.5427 35.1378 30.572 35.3478 30.4393 35.4437C30.376 35.4894 30.294 35.4918 30.219 35.5125C30.144 35.5332 30.056 35.5761 29.9731 35.5607C29.9372 35.554 29.9037 35.5371 29.8683 35.5294C29.8507 35.5241 29.8322 35.5236 29.8144 35.5279C29.7966 35.5322 29.7802 35.5412 29.7667 35.554C29.7295 35.5978 29.7542 35.6715 29.7234 35.7201C29.6927 35.7687 29.6345 35.7683 29.594 35.802C29.5195 35.8612 29.5395 35.9787 29.5409 36.076C29.5422 36.0907 29.5395 36.1053 29.5329 36.1184C29.5162 36.1458 29.4775 36.1439 29.4482 36.155C29.3849 36.1796 29.3699 36.2658 29.3807 36.3347C29.3914 36.4035 29.4175 36.4738 29.3993 36.5408C29.3872 36.5851 29.3564 36.6227 29.3448 36.6675C29.3243 36.7469 29.3676 36.8269 29.4021 36.901C29.4365 36.9752 29.4612 37.0696 29.4118 37.1342C29.3625 37.1987 29.2516 37.1973 29.1972 37.2628C29.1589 37.3109 29.1557 37.3788 29.1143 37.4217C29.1319 37.5412 29.1338 37.6625 29.0737 37.768C29.0462 37.8088 29.015 37.8468 28.9806 37.8817C28.9172 37.9553 28.8679 38.07 28.9256 38.1485C28.9411 38.1676 28.9608 38.1826 28.9832 38.1922C29.0054 38.2017 29.0296 38.2055 29.0537 38.2033C29.102 38.1985 29.148 38.1802 29.1869 38.1504C29.2237 38.1244 29.2665 38.0907 29.3076 38.108C29.3411 38.1451 29.2787 38.2043 29.2945 38.2525C29.3103 38.3007 29.3876 38.2828 29.4393 38.3007C29.434 38.3206 29.4328 38.3415 29.436 38.362C29.4391 38.3824 29.4464 38.4019 29.4575 38.4192C29.4701 38.4384 29.4883 38.4577 29.4859 38.4808C29.4836 38.5039 29.4631 38.5183 29.4487 38.5352C29.4076 38.5833 29.4156 38.6585 29.4384 38.7187C29.4456 38.7337 29.4496 38.7502 29.45 38.7668C29.4472 38.8068 29.4034 38.8285 29.3634 38.8305C29.3249 38.8265 29.286 38.8294 29.2484 38.8391C29.2301 38.8492 29.2125 38.8606 29.1958 38.8733C29.1026 38.9311 28.9862 38.8858 28.8883 38.8401C28.8513 38.827 28.8188 38.8027 28.7952 38.7702C28.7898 38.762 28.7862 38.7527 28.7846 38.7429C28.7829 38.7331 28.7833 38.723 28.7858 38.7134C28.7882 38.7038 28.7926 38.6948 28.7986 38.6871C28.8047 38.6794 28.8122 38.6731 28.8209 38.6686C28.8309 38.6671 28.8406 38.664 28.8497 38.6595C28.8706 38.6445 28.8581 38.6113 28.8409 38.5911C28.8236 38.5709 28.8013 38.5497 28.8083 38.5246C28.8152 38.4996 28.8576 38.4923 28.8888 38.4923C28.9201 38.4923 28.961 38.4687 28.948 38.4393C28.9425 38.4301 28.9346 38.4226 28.9251 38.4177C28.8825 38.3893 28.8484 38.3491 28.8269 38.3016C28.8155 38.2699 28.8022 38.239 28.7868 38.2092C28.779 38.1942 28.7673 38.1818 28.7531 38.1733C28.7389 38.1648 28.7227 38.1605 28.7063 38.161C28.6494 38.1687 28.635 38.2448 28.6061 38.2958C28.5825 38.3304 28.5501 38.3577 28.5127 38.3746C28.4751 38.3916 28.4339 38.3977 28.3933 38.3922C28.3115 38.3806 28.2325 38.3533 28.1604 38.3117C28.0789 38.3551 28.0719 38.4475 28.0477 38.539C28.0143 38.6611 27.9361 38.7648 27.8298 38.828C27.7543 38.8728 27.6495 38.8907 27.5866 38.828C27.5694 38.8112 27.5568 38.7895 27.54 38.7736C27.5143 38.7555 27.4845 38.7441 27.4536 38.7405C27.4226 38.7369 27.3912 38.7412 27.3621 38.7529C27.3042 38.7771 27.2428 38.7914 27.1805 38.7953V38.8892C27.1153 38.8757 27.078 38.973 27.1018 39.0375C27.1255 39.1021 27.1805 39.1502 27.201 39.2157C27.242 39.3467 27.1116 39.4874 26.9783 39.4845C26.9127 39.4845 26.8387 39.4417 26.8363 39.3742C26.8181 39.3658 26.7985 39.3612 26.7786 39.3607C26.7587 39.3602 26.7389 39.3638 26.7203 39.3713C26.5713 39.4174 26.4371 39.5043 26.3319 39.6227C26.2977 39.6677 26.2581 39.708 26.2141 39.7427C26.1918 39.7597 26.1652 39.7699 26.1375 39.772C26.1098 39.7742 26.0821 39.7682 26.0576 39.7547C26.0278 39.7345 26.0054 39.6973 25.97 39.695C25.9346 39.6925 25.9034 39.7292 25.8671 39.7272C25.8205 39.7272 25.8005 39.667 25.7889 39.6208C25.7774 39.5578 25.7482 39.4997 25.705 39.4537C25.6829 39.4314 25.6539 39.4179 25.6231 39.4154C25.5923 39.413 25.5616 39.4217 25.5364 39.4402C25.501 39.472 25.4898 39.5288 25.446 39.55C25.4268 39.5579 25.4061 39.5611 25.3855 39.5592C25.2829 39.5565 25.1818 39.5324 25.0884 39.4884C25.06 39.4712 25.028 39.4615 24.9952 39.4604C24.9296 39.4652 24.8811 39.5442 24.8159 39.5355C24.7838 39.5312 24.7572 39.5057 24.7251 39.4994C24.6929 39.4932 24.6524 39.5298 24.6739 39.5553L24.4927 39.5072C24.4885 39.5702 24.4126 39.6035 24.353 39.5905C24.2953 39.5697 24.2423 39.5368 24.1974 39.4942C24.1748 39.4728 24.1479 39.4568 24.1187 39.4476C24.0895 39.4383 24.0586 39.436 24.0284 39.4407C23.985 39.4888 23.9971 39.5635 24.0237 39.6213C24.0564 39.6759 24.0794 39.736 24.0917 39.799C24.1103 39.9122 24.0404 39.9377 24.0591 40.0369C24.0777 40.1362 24.1489 40.138 24.182 40.2445C24.2081 40.3293 24.182 40.389 24.1699 40.4733C24.1578 40.5575 24.1699 40.5942 24.2356 40.9015C24.3376 41.3883 24.3264 41.4255 24.3911 41.5796C24.4424 41.7005 24.4615 41.7067 24.4815 41.7915C24.5132 41.9263 24.508 42.0958 24.5398 42.2143C24.5481 42.2483 24.5613 42.2807 24.5789 42.3107C24.5928 42.3323 24.611 42.3507 24.6255 42.3733C24.6437 42.4194 24.6552 42.4681 24.6594 42.5178C24.6747 42.5628 24.7055 42.6004 24.746 42.6233C24.8243 42.6777 24.8169 42.8207 24.7717 42.9065C24.7496 42.9397 24.7295 42.9742 24.7116 43.01C24.7013 43.0461 24.6993 43.0842 24.7061 43.1213C24.7128 43.1583 24.7279 43.1931 24.7502 43.2229C24.7698 43.2486 24.7873 43.276 24.8024 43.3048C24.8101 43.3196 24.8141 43.3361 24.8141 43.3529C24.8141 43.3697 24.8101 43.3863 24.8024 43.4011C24.7926 43.417 24.7768 43.43 24.7731 43.4492C24.7679 43.4757 24.7898 43.4974 24.7982 43.5239C24.8155 43.5759 24.7754 43.6275 24.7591 43.68C24.7381 43.7478 24.7591 43.8206 24.7675 43.8909C24.7778 43.9773 24.7813 44.0645 24.7777 44.1515C24.7806 44.3086 24.768 44.4656 24.74 44.6201C24.5972 44.685 24.4691 44.7802 24.3641 44.8994C24.3454 44.9219 24.3236 44.9415 24.2994 44.9577C24.2468 44.99 24.1811 44.9818 24.1196 44.9818C23.9798 44.9891 23.8428 45.026 23.7172 45.0902C23.6321 45.1254 23.552 45.1722 23.4788 45.2293C23.3661 45.3228 23.2901 45.4543 23.2138 45.5809C23.0697 45.8198 22.9169 46.0524 22.7555 46.2788C22.7787 46.3111 22.8356 46.3111 22.8486 46.3496C22.8617 46.3882 22.8263 46.4117 22.8244 46.4459C22.8225 46.4801 22.864 46.5148 22.9026 46.5196C22.9413 46.5244 22.9809 46.5143 23.0195 46.5196C23.0582 46.5249 23.0992 46.5562 23.0945 46.5962C23.1276 46.5882 23.1622 46.5899 23.1944 46.601C23.2267 46.6122 23.2553 46.6323 23.2771 46.6593C23.2995 46.6877 23.3162 46.7257 23.3497 46.7383C23.3833 46.7508 23.4215 46.732 23.4578 46.7262C23.4941 46.7205 23.5426 46.7431 23.5356 46.7802C23.5321 46.7912 23.5275 46.8017 23.5216 46.8115C23.4979 46.864 23.5435 46.9242 23.5943 46.9483C23.645 46.9724 23.7042 46.9781 23.7508 47.0104C23.8104 47.0518 23.8364 47.1274 23.8588 47.1977L23.9054 47.3422C23.9231 47.3981 23.9077 47.4385 23.9109 47.4973C23.9127 47.5107 23.9113 47.5242 23.9068 47.5368C23.8951 47.5628 23.8602 47.5695 23.8425 47.5898C23.8094 47.625 23.8258 47.6861 23.8034 47.7285C23.7945 47.7459 23.7797 47.7593 23.7708 47.7767C23.7405 47.8345 23.7848 47.9086 23.7647 47.9693C23.754 48.0025 23.726 48.029 23.7228 48.0657C23.7228 48.0907 23.7317 48.1186 23.7186 48.1398C23.713 48.149 23.7042 48.1552 23.6991 48.1643C23.6846 48.1894 23.7042 48.2202 23.721 48.2439C23.7336 48.2584 23.7428 48.2757 23.7478 48.2945C23.7528 48.3133 23.7535 48.333 23.7498 48.3522C23.7359 48.3941 23.6898 48.4124 23.6567 48.4379C23.5635 48.5054 23.5453 48.634 23.5328 48.7486C23.5278 48.775 23.5294 48.8024 23.5375 48.828C23.5487 48.855 23.5742 48.8854 23.557 48.9085C23.5398 48.9316 23.503 48.9263 23.5007 48.9518C23.5007 48.9624 23.5076 48.972 23.5123 48.9812C23.5417 49.038 23.476 49.105 23.4904 49.1676C23.4988 49.2037 23.5323 49.2297 23.5403 49.2639C23.542 49.286 23.542 49.3083 23.5403 49.3304C23.543 49.3535 23.5506 49.3757 23.5627 49.3954C23.5748 49.4151 23.591 49.4317 23.6101 49.444C23.6482 49.4693 23.6898 49.4885 23.7336 49.5009C23.7504 49.4432 23.7463 49.3812 23.7219 49.3265C23.6975 49.2725 23.6778 49.2165 23.6627 49.1589C23.658 49.1408 23.658 49.1217 23.6627 49.1035C23.6767 49.0631 23.7233 49.0482 23.7633 49.038L23.985 48.9836C24.0002 48.9792 24.0158 48.9768 24.0316 48.9768C24.0696 48.9858 24.1057 49.0022 24.1378 49.025C24.1997 49.047 24.2647 49.0583 24.3302 49.0587C24.3953 49.0669 24.4666 49.0944 24.4913 49.1551C24.4974 49.1798 24.5055 49.204 24.5155 49.2274C24.5425 49.2726 24.6044 49.2755 24.6552 49.2683C24.8057 49.2442 24.9142 49.0698 25.0148 48.9518C25.0329 48.9283 25.0535 48.907 25.0762 48.8882C25.0936 48.8763 25.1118 48.8658 25.1307 48.857C25.2042 48.8198 25.2748 48.7769 25.3417 48.7284C25.3572 48.7186 25.3706 48.7058 25.3813 48.6908C25.3924 48.6688 25.3989 48.6447 25.4004 48.62C25.4288 48.4274 25.5504 48.2612 25.671 48.1095C25.8812 48.0642 26.0959 48.0446 26.3105 48.0512C26.3555 48.049 26.4004 48.0553 26.4432 48.07C26.4724 48.0871 26.5037 48.0997 26.5363 48.1075C26.5895 48.1128 26.6361 48.069 26.6892 48.0632C26.7369 48.0662 26.784 48.0766 26.8288 48.094C26.8835 48.1019 26.9391 48.0983 26.9923 48.0835C27.2051 48.038 27.4129 47.9707 27.6127 47.8826C27.6322 47.8717 27.6544 47.8666 27.6765 47.8682C27.7017 47.8725 27.7231 47.8937 27.7468 47.8975C27.7681 47.8969 27.7895 47.8952 27.8106 47.8922C27.834 47.8955 27.8561 47.9049 27.8749 47.9197L28.0682 48.0463C28.3826 48.0016 28.6983 48.1908 28.995 48.0738C29.0324 48.0555 29.0716 48.0415 29.1119 48.0319C29.1823 48.0304 29.2519 48.047 29.3145 48.0801C29.4746 48.1408 29.645 48.1665 29.8152 48.1557C29.8431 48.1509 29.8718 48.154 29.8981 48.1648C29.9414 48.1885 29.9498 48.2477 29.9773 48.2896C30.0147 48.3365 30.0667 48.3685 30.1245 48.3802C30.2925 48.4299 30.4688 48.4425 30.6419 48.4172C30.6768 48.4119 30.7229 48.4124 30.735 48.4466C30.7373 48.4573 30.738 48.4684 30.7374 48.4794C30.7401 48.5502 30.8138 48.5978 30.8822 48.6032C30.9506 48.6007 31.0187 48.5921 31.0857 48.5776C31.3694 48.5482 31.6036 48.7967 31.8775 48.8849C31.9118 48.8977 31.9483 48.9028 31.9846 48.8998C32.0294 48.889 32.0726 48.8716 32.1127 48.8483C32.1886 48.8188 32.2703 48.809 32.3507 48.8199C32.4454 48.8242 32.5386 48.8466 32.6254 48.8858C32.6228 48.9826 32.6147 49.079 32.6012 49.1749C32.5964 49.1932 32.5982 49.2127 32.6064 49.2297C32.6178 49.2454 32.6343 49.2562 32.653 49.2601C32.6993 49.2731 32.7476 49.2773 32.7955 49.2726C32.8091 49.2688 32.8232 49.2679 32.8372 49.27C32.8511 49.2721 32.8645 49.277 32.8765 49.2847C32.911 49.3169 32.8811 49.3752 32.8495 49.4099C32.8178 49.4445 32.7819 49.4965 32.8095 49.5351C32.8434 49.5832 32.9133 49.5394 32.9701 49.5293C33.046 49.5158 33.1262 49.5731 33.1979 49.5447C33.2696 49.5163 33.3013 49.419 33.3753 49.4152C33.3927 49.4154 33.4101 49.4184 33.4266 49.4243L33.7665 49.5235C33.808 49.5308 33.846 49.5518 33.8751 49.5832C33.9156 49.6386 33.8909 49.7181 33.8602 49.7802C33.8294 49.8423 33.7931 49.9122 33.8164 49.9777C33.8393 50.0247 33.8769 50.0623 33.923 50.0846C33.9268 50.0887 33.9315 50.0919 33.9366 50.0938C33.9418 50.0957 33.9473 50.0963 33.9528 50.0957C33.9582 50.0949 33.9634 50.0929 33.968 50.0897C33.9725 50.0866 33.9763 50.0824 33.9789 50.0774C34.0493 49.9922 34.1224 49.8982 34.1293 49.7884C34.1331 49.7345 34.1205 49.681 34.1219 49.6271C34.1203 49.6001 34.1256 49.5731 34.1373 49.549C34.149 49.5248 34.1667 49.5042 34.1885 49.4893C34.2155 49.4793 34.2447 49.4775 34.2727 49.484C34.3007 49.4906 34.3262 49.5053 34.3464 49.5264C34.3902 49.5645 34.4233 49.615 34.4698 49.6497C34.5676 49.7229 34.7027 49.7123 34.821 49.695C34.8575 49.6927 34.8928 49.6812 34.9239 49.6613C34.951 49.6365 34.9723 49.6057 34.9863 49.5712C35.0352 49.4743 35.0931 49.3825 35.1591 49.2972C35.1699 49.2792 35.1864 49.2656 35.2057 49.2586C35.2546 49.2485 35.2811 49.3188 35.2732 49.3698C35.2653 49.4209 35.2462 49.4792 35.2769 49.5197C35.2942 49.5375 35.3148 49.5513 35.3375 49.5606C35.3848 49.5873 35.4241 49.6267 35.4514 49.6747C35.4786 49.7227 35.4927 49.7775 35.4921 49.8332L35.8097 49.6314C35.8358 49.615 35.868 49.6459 35.8931 49.6642C35.9625 49.7123 36.0585 49.668 36.1409 49.6858C36.1392 49.8303 36.169 49.9734 36.228 50.1044C36.237 50.128 36.251 50.1492 36.269 50.1665C36.2782 50.1749 36.2896 50.1804 36.3017 50.1823C36.3138 50.1842 36.3263 50.1824 36.3375 50.1771C36.3542 50.1675 36.3705 50.1467 36.3873 50.1554C36.3885 50.198 36.4023 50.2392 36.4268 50.2734C36.4324 50.2822 36.4403 50.2892 36.4497 50.2932C36.4776 50.3028 36.499 50.2667 36.5037 50.2368C36.5177 50.1506 36.493 50.0591 36.5195 49.9762C36.5345 49.9354 36.5571 49.8981 36.5862 49.8664C36.6598 49.7802 36.7518 49.7127 36.8549 49.6695C36.9012 49.6463 36.9532 49.6387 37.0039 49.6473C37.026 49.6563 37.0496 49.6609 37.0733 49.6608C37.0887 49.6567 37.1028 49.6483 37.1141 49.6368C37.1253 49.6252 37.1335 49.6107 37.1376 49.5948C37.1483 49.564 37.1515 49.5307 37.1641 49.4985C37.1772 49.469 37.1987 49.4443 37.2258 49.4278C37.2529 49.4114 37.2842 49.4039 37.3155 49.4065C37.3621 49.4109 37.4049 49.419 37.4492 49.4248C37.4717 49.4255 37.4935 49.4326 37.5123 49.4454C37.5312 49.4581 37.5462 49.476 37.5558 49.497C37.5597 49.5182 37.5621 49.5396 37.5633 49.5611C37.5749 49.6295 37.6429 49.6699 37.6825 49.7258C37.7061 49.76 37.7198 49.8004 37.7221 49.8424C37.7243 49.8844 37.7149 49.9261 37.6951 49.9628C37.6741 49.9998 37.6411 50.0413 37.6588 50.0803C37.6765 50.1193 37.7179 50.1207 37.7519 50.1395C37.7738 50.1562 37.7923 50.1772 37.8063 50.2013C37.8203 50.2255 37.8295 50.2523 37.8334 50.2802C37.841 50.336 37.8611 50.3893 37.8921 50.4357C37.9275 50.4781 38.0002 50.4935 38.0346 50.4502C38.0466 50.4293 38.057 50.4076 38.0658 50.3852C38.0789 50.3638 38.0991 50.348 38.1225 50.3407C38.1459 50.3335 38.1711 50.3352 38.1934 50.3457C38.2139 50.3562 38.2307 50.3741 38.2507 50.3852C38.2604 50.3916 38.2718 50.3947 38.2833 50.3939C38.2948 50.3931 38.3057 50.3885 38.3145 50.3808C38.3207 50.3723 38.325 50.3624 38.3271 50.3519L38.396 50.0914C38.4668 50.0812 38.5418 50.178 38.5958 50.1299C38.6326 50.0972 38.6098 50.0307 38.6359 49.9883C38.6529 49.9651 38.6768 49.9482 38.7038 49.9401C38.7658 49.9155 38.8436 49.8943 38.8902 49.9449C38.9137 49.9817 38.9259 50.0251 38.9251 50.0692C38.9307 50.1125 38.9493 50.1627 38.9908 50.1723C39.0322 50.1819 39.0713 50.1467 39.1128 50.1515C39.1543 50.1564 39.1976 50.2084 39.2395 50.1901C39.2532 50.1827 39.2645 50.1713 39.2721 50.1574C39.2982 50.1164 39.3163 50.0706 39.3257 50.0225C39.3504 50.0384 39.3718 50.0594 39.3885 50.0842C39.4877 50.0663 39.5525 49.9522 39.6521 49.9397C39.7057 49.9319 39.7597 49.9555 39.8137 49.9502C39.8678 49.9449 39.9069 49.9175 39.9535 49.9146C40.028 49.9103 40.0932 49.9657 40.1421 50.0239C40.191 50.0822 40.2353 50.1487 40.3042 50.1814C40.3629 50.2098 40.436 50.2108 40.4807 50.2595C40.5002 50.2822 40.5108 50.3115 40.5108 50.3418C40.5108 50.3722 40.5002 50.4014 40.4807 50.4242C40.4634 50.4383 40.4479 50.4545 40.4341 50.4723C40.4266 50.4893 40.4243 50.5083 40.4275 50.5268C40.4308 50.5452 40.4394 50.5622 40.4523 50.5754C40.479 50.6014 40.5107 50.6213 40.5454 50.6337C40.5785 50.6505 40.6136 50.6629 40.6498 50.6703C40.6715 50.6723 40.6926 50.6795 40.7113 50.6912C40.73 50.7028 40.7459 50.7187 40.7578 50.7377C40.7681 50.7598 40.7709 50.7859 40.7899 50.8022C40.7971 50.8069 40.805 50.8103 40.8132 50.8123L40.9935 50.8653C41.0003 50.8678 41.0076 50.8688 41.0149 50.8682C41.023 50.8658 41.0302 50.8608 41.0353 50.8538C41.0404 50.8469 41.0432 50.8384 41.0433 50.8297C41.0433 50.8123 41.04 50.795 41.0405 50.7777C41.0405 50.7218 41.0871 50.6813 41.1337 50.6491C41.1626 50.6293 41.1951 50.6067 41.2003 50.5715C41.1991 50.5406 41.1921 50.5102 41.1798 50.482C41.1728 50.4521 41.1863 50.4102 41.2161 50.4117C41.198 50.3952 41.1836 50.3749 41.1738 50.352C41.1639 50.3293 41.159 50.3046 41.1592 50.2797C41.1626 50.2591 41.1606 50.238 41.1537 50.2185C41.1299 50.1742 41.0466 50.1867 41.0373 50.1366C41.0363 50.1266 41.038 50.1165 41.0421 50.1074C41.0463 50.0983 41.0528 50.0906 41.061 50.0851C41.0772 50.0743 41.0942 50.0648 41.1118 50.0567C41.1161 50.0548 41.1201 50.052 41.1233 50.0485C41.1265 50.0449 41.129 50.0406 41.1304 50.036C41.1311 50.0296 41.1298 50.0232 41.1267 50.0177C41.1053 49.9748 41.0475 49.9527 41.0428 49.9045C41.0445 49.8846 41.0445 49.8647 41.0428 49.8448C41.034 49.8135 40.992 49.7918 41.0023 49.761C41.0061 49.7499 41.0158 49.7422 41.0191 49.7306C41.0247 49.7094 41.0019 49.6907 40.9804 49.6877C40.9591 49.6883 40.9378 49.687 40.9166 49.6839C40.9027 49.679 40.8911 49.6687 40.8842 49.6553C40.8773 49.6419 40.8755 49.6262 40.8793 49.6115C40.8831 49.5968 40.8921 49.5842 40.9045 49.576C40.917 49.5679 40.932 49.565 40.9464 49.5679C40.9454 49.5544 40.9408 49.5415 40.9329 49.5308C40.9251 49.52 40.9144 49.5118 40.9022 49.5072C40.864 49.4932 40.8859 49.4219 40.9022 49.3843C40.9297 49.328 40.9456 49.2663 40.9488 49.2032C40.9488 49.1589 40.9488 49.1069 40.9874 49.0818C41.0088 49.0684 41.0363 49.0698 41.0573 49.0558C41.0899 49.0342 41.0922 48.987 41.0908 48.947L41.0857 48.7789C41.0849 48.7737 41.0851 48.7682 41.0862 48.763C41.0874 48.7578 41.0896 48.7529 41.0927 48.7486C41.0999 48.7427 41.1086 48.7392 41.1178 48.7385C41.1438 48.7317 41.1666 48.7155 41.1818 48.6927C41.1971 48.67 41.2038 48.6422 41.2007 48.6147C41.1956 48.5771 41.1719 48.5395 41.1849 48.5044C41.1946 48.4779 41.2222 48.4639 41.2426 48.4447C41.3088 48.3835 41.3111 48.2617 41.3917 48.2227C41.4326 48.2029 41.489 48.2072 41.5128 48.1673C41.5417 48.1191 41.4918 48.0497 41.5198 48.0011C41.5345 47.9812 41.5549 47.9666 41.5779 47.9592C41.6417 47.9303 41.7112 47.8874 41.7233 47.8147C41.7275 47.7916 41.7261 47.7637 41.7443 47.7487C41.7581 47.7397 41.7746 47.7361 41.7908 47.7386H41.9394C41.9538 47.7087 41.9235 47.6765 41.8928 47.6611C41.8621 47.6457 41.8285 47.6288 41.8253 47.5956C41.822 47.5624 41.8504 47.5387 41.8551 47.5079C41.8597 47.4771 41.843 47.4492 41.8485 47.4203C41.8532 47.4048 41.8622 47.3912 41.8744 47.3812C41.8866 47.3712 41.9015 47.3651 41.917 47.3639C41.9482 47.3619 41.9796 47.3642 42.0102 47.3707C42.1035 47.3741 42.1969 47.3703 42.2896 47.3596C42.3828 47.3572 42.4862 47.3769 42.5481 47.4497C42.5649 47.4694 42.5821 47.4944 42.6073 47.4935C42.6197 47.4922 42.6314 47.487 42.6408 47.4785C42.6604 47.4628 42.6768 47.4432 42.6888 47.4207C42.7008 47.3983 42.7082 47.3735 42.7107 47.348C42.714 47.3218 42.724 47.297 42.7398 47.2762C42.7555 47.2553 42.7763 47.2393 42.8001 47.2295C42.8497 47.208 42.9028 47.1962 42.9565 47.1948C43.1914 47.1752 43.4275 47.1767 43.6622 47.1992C43.7239 47.2123 43.7881 47.2051 43.8457 47.1785C43.8638 47.1656 43.879 47.1488 43.8903 47.1293C43.9015 47.1098 43.9086 47.088 43.911 47.0654C43.9133 47.0428 43.9109 47.0199 43.9039 46.9983C43.8969 46.9768 43.8854 46.9571 43.8703 46.9405C43.8298 46.9006 43.7702 46.8866 43.7306 46.8442C43.6692 46.7792 43.6808 46.6718 43.7153 46.5885C43.7221 46.5763 43.7249 46.562 43.7232 46.548C43.72 46.5395 43.7144 46.5321 43.7071 46.5269C43.6998 46.5217 43.6911 46.519 43.6822 46.5192C43.6645 46.5197 43.647 46.5215 43.6296 46.5244C43.6068 46.5247 43.5843 46.5202 43.5633 46.5112C43.5423 46.5022 43.5234 46.4888 43.5075 46.4719C43.4761 46.438 43.4492 46.3998 43.4279 46.3583C43.4208 46.3477 43.4162 46.3354 43.4144 46.3227C43.4144 46.2971 43.4331 46.2745 43.4484 46.2557C43.4756 46.217 43.4883 46.1694 43.4842 46.1218C43.48 46.0742 43.4594 46.0297 43.426 45.9966C43.412 45.9858 43.3995 45.9732 43.3888 45.959C43.3745 45.9267 43.3732 45.8898 43.3851 45.8564L43.4148 45.7215C43.4185 45.7084 43.42 45.6947 43.419 45.6811C43.4107 45.6161 43.3082 45.6002 43.3017 45.5366C43.3031 45.5091 43.3116 45.4825 43.3263 45.4595C43.3335 45.448 43.337 45.4343 43.3363 45.4207C43.3357 45.4069 43.3309 45.3937 43.3227 45.383C43.3779 45.3557 43.4413 45.3513 43.4996 45.3709C43.4306 45.3228 43.3655 45.2691 43.3049 45.2101C43.2856 45.1937 43.2707 45.1722 43.2621 45.148C43.2592 45.1256 43.2578 45.103 43.2579 45.0805C43.2458 44.977 43.1037 44.9389 43.0767 44.8397L43.2821 44.7617C43.2976 44.7571 43.3119 44.749 43.324 44.7381C43.3382 44.72 43.3458 44.6973 43.3455 44.674C43.349 44.6195 43.3412 44.5649 43.3227 44.5138C43.3043 44.4626 43.2755 44.4161 43.2383 44.3773C43.2039 44.3417 43.1587 44.306 43.1578 44.255C43.1578 44.2126 43.1885 44.1741 43.1852 44.1322C43.1361 44.142 43.0853 44.1383 43.0379 44.1214C42.9906 44.1045 42.9484 44.075 42.9156 44.0358C42.843 43.9627 42.7656 43.8813 42.7526 43.7772C42.7522 43.7472 42.7472 43.7175 42.7377 43.6891C42.724 43.6651 42.705 43.6448 42.6823 43.6299L42.4792 43.4723C42.5101 43.4577 42.5365 43.4343 42.555 43.4048C42.5736 43.3753 42.5836 43.3409 42.584 43.3057C42.5818 43.2895 42.5832 43.2731 42.5882 43.2575C42.5961 43.2438 42.6078 43.2328 42.6217 43.2258L42.733 43.1545C42.7252 43.0435 42.7298 42.932 42.7465 42.8222C42.7493 42.7873 42.7616 42.7538 42.7819 42.7258C42.8285 42.6714 42.9137 42.6858 42.9808 42.7095C43.0479 42.7331 43.1256 42.7577 43.1848 42.7196C43.2258 42.6917 43.2495 42.6353 43.2979 42.6266C43.3464 42.618 43.3823 42.6575 43.426 42.6714C43.5034 42.697 43.6072 42.6507 43.6589 42.7162C43.7008 42.7702 43.665 42.8578 43.7013 42.9161C43.7525 42.9985 43.8843 42.9493 43.963 43.0033C43.991 43.0225 44.0096 43.0543 44.0403 43.0697C44.1135 43.1073 44.195 43.0317 44.277 43.0302C44.3301 43.0359 44.3817 43.0523 44.4288 43.0784C44.4786 43.0986 44.5419 43.1058 44.5797 43.0663C44.5922 43.0533 44.6007 43.036 44.6137 43.024C44.6444 42.9955 44.6914 43.0003 44.731 42.9883C44.7706 42.9763 44.8041 42.919 44.7706 42.892L44.9444 42.8693C44.9625 42.8689 44.98 42.8627 44.9947 42.8515C45.0096 42.8312 45.0178 42.8064 45.0179 42.7807C45.0272 42.7276 45.0563 42.6804 45.099 42.6493C45.1311 42.6262 45.1697 42.6132 45.2024 42.5905C45.2839 42.5351 45.3193 42.4325 45.35 42.3372C45.3626 42.309 45.3652 42.2771 45.3575 42.2471C45.3438 42.2236 45.3266 42.2026 45.3062 42.185C45.289 42.1643 45.2783 42.1305 45.2969 42.1113C45.3514 42.0858 45.4143 42.1036 45.4739 42.1113C45.5335 42.119 45.6057 42.1113 45.6337 42.0559C45.6404 42.0373 45.6479 42.0192 45.6564 42.0015C45.6835 41.9596 45.7426 41.962 45.7911 41.9663C45.8395 41.9707 45.9005 41.9663 45.9182 41.9182C45.9322 41.8806 45.9089 41.8406 45.8931 41.804C45.8749 41.7621 45.8656 41.7167 45.8656 41.6708C45.8656 41.625 45.8749 41.5795 45.8931 41.5377C45.9103 41.4987 45.9299 41.4413 45.8931 41.4221C45.8817 41.4179 45.8696 41.4167 45.8577 41.4187L45.7063 41.4303C45.7177 41.4025 45.7226 41.3722 45.7203 41.3422C45.7187 41.3272 45.7121 41.3132 45.7017 41.3028C45.6912 41.2923 45.6775 41.286 45.663 41.2848C45.6206 41.2848 45.5913 41.3474 45.5498 41.3369C45.5279 41.331 45.5158 41.3075 45.5033 41.2887C45.445 41.213 45.3333 41.2208 45.248 41.1813C45.1734 41.1422 45.1163 41.0749 45.0882 40.9934C45.0607 40.9127 45.0431 40.8287 45.0361 40.7435C45.0916 40.7243 45.148 40.7082 45.2051 40.6953C45.2611 40.6785 45.3169 40.6308 45.3118 40.571C45.3077 40.5502 45.2994 40.5306 45.2875 40.5134C45.2755 40.496 45.2601 40.4816 45.2424 40.4708C45.2073 40.4445 45.1693 40.4223 45.1293 40.4049C45.1173 40.3982 45.1036 40.3958 45.0901 40.3982C45.0757 40.4025 45.0664 40.416 45.0538 40.4247C45.0385 40.432 45.0215 40.4345 45.0049 40.4317C44.9882 40.4288 44.9728 40.4208 44.9606 40.4087C44.9341 40.3861 44.9141 40.3548 44.8917 40.3297C44.7921 40.2286 44.6156 40.2551 44.514 40.1559C44.4781 40.1212 44.4525 40.0711 44.4069 40.0533C44.3597 40.0415 44.31 40.048 44.2672 40.0716L43.8829 40.2378C43.8701 40.2443 43.8557 40.247 43.8415 40.2455C43.8302 40.2421 43.8197 40.2363 43.8107 40.2286C43.7307 40.1715 43.6321 40.1493 43.5364 40.167C43.5467 40.1038 43.5672 40.043 43.597 39.9869C43.651 39.8413 43.6865 39.6891 43.7027 39.5341C43.7187 39.4595 43.7197 39.3823 43.7055 39.3073C43.6859 39.2321 43.6351 39.1628 43.6393 39.0857L43.5462 39.1137C43.5297 39.064 43.5051 39.0175 43.4735 38.9764C43.4575 38.956 43.4367 38.9402 43.4132 38.9302C43.3897 38.9203 43.3642 38.9166 43.3389 38.9195C43.3203 38.926 43.3008 38.9291 43.2812 38.9287C43.2639 38.9244 43.2479 38.9158 43.2346 38.9037C43.1516 38.8398 43.0511 38.805 42.9477 38.804C42.808 38.7077 42.6641 38.6161 42.5262 38.5178C42.4863 38.4961 42.4525 38.464 42.4281 38.4248C42.4035 38.3856 42.3893 38.3405 42.3865 38.2939C42.3666 38.2092 42.3564 38.1224 42.3563 38.0353C42.3601 38.0019 42.3588 37.9681 42.3525 37.9351C42.3302 37.8537 42.2342 37.8137 42.2058 37.7343C42.1982 37.7033 42.1923 37.672 42.1881 37.6403C42.1657 37.544 42.0772 37.4819 41.9878 37.4477C41.9422 37.4352 41.8979 37.4181 41.8555 37.3967C41.8344 37.3857 41.8165 37.3691 41.8034 37.3486C41.7904 37.3282 41.7829 37.3045 41.7815 37.2801C41.7884 37.2359 41.8086 37.1951 41.8393 37.1635C41.901 37.0823 41.9534 36.9939 41.9953 36.9001C42.0176 36.8519 42.0321 36.7797 41.9883 36.7484C41.9718 36.7384 41.9529 36.7331 41.9338 36.733C41.8407 36.7257 41.7503 36.7407 41.6609 36.7219C41.6493 36.7207 41.6379 36.7172 41.6276 36.7115C41.6173 36.7058 41.6082 36.698 41.6008 36.6887C41.5915 36.6677 41.5878 36.6446 41.5901 36.6217C41.5881 36.5746 41.5734 36.529 41.5477 36.4901C41.5221 36.4511 41.4864 36.4203 41.4448 36.4011C41.367 36.3669 41.3111 36.2947 41.23 36.2697C41.1945 36.2613 41.16 36.2489 41.1272 36.2325C41.1009 36.216 41.0789 36.1931 41.0634 36.1657C41.0477 36.1383 41.039 36.1073 41.0377 36.0755C41.0371 36.0438 41.0429 36.0122 41.0547 35.9829C41.0665 35.9535 41.084 35.927 41.1062 35.905C41.1273 35.8873 41.1465 35.8673 41.1634 35.8454C41.1763 35.8204 41.1826 35.7924 41.1817 35.7642C41.1808 35.736 41.1728 35.7085 41.1584 35.6845C41.1392 35.6478 41.1118 35.6055 41.1313 35.5688C41.1392 35.5562 41.1501 35.5459 41.163 35.539C41.2083 35.5159 41.2549 35.4958 41.3027 35.4788C41.3269 35.4701 41.3491 35.4563 41.368 35.4383C41.3868 35.4203 41.4019 35.3986 41.4122 35.3743C41.4336 35.3088 41.3972 35.2395 41.3623 35.1817L41.5342 35.1764C41.5427 35.1768 41.5511 35.1751 41.5589 35.1715C41.5651 35.1668 41.5701 35.1607 41.5734 35.1535C41.5767 35.1464 41.5783 35.1385 41.5779 35.1306C41.5776 35.089 41.5679 35.0482 41.5496 35.0111C41.5313 34.9741 41.505 34.942 41.4727 34.9172C41.46 34.9084 41.4503 34.8958 41.4448 34.8811C41.4429 34.8692 41.444 34.8569 41.448 34.8455L41.4787 34.726C41.4946 34.6639 41.4406 34.6071 41.3959 34.5623C41.3475 34.5218 41.3052 34.4741 41.2706 34.4207C41.2431 34.3677 41.2366 34.3041 41.2021 34.256C41.1742 34.217 41.1313 34.1928 41.1015 34.1558C41.0756 34.1203 41.0597 34.078 41.0556 34.0337C41.0515 33.9894 41.0593 33.9448 41.0782 33.9048C41.1174 33.8253 41.1794 33.7602 41.2557 33.7185C41.2823 33.7062 41.3055 33.6869 41.3227 33.6626C41.3479 33.6173 41.3227 33.559 41.2883 33.5181C41.2538 33.4772 41.218 33.4483 41.2259 33.403C41.2324 33.3654 41.2696 33.3438 41.3009 33.323C41.3081 33.3192 41.3141 33.3131 41.3181 33.3057C41.3288 33.2807 41.2948 33.2628 41.2761 33.2431C41.2586 33.2183 41.2508 33.1875 41.2543 33.1569C41.2543 33.0776 41.2574 32.9983 41.2636 32.919C41.2676 32.8939 41.2676 32.8684 41.2636 32.8434C41.2575 32.8272 41.2484 32.8125 41.2367 32.8002C41.225 32.7879 41.211 32.7781 41.1955 32.7715C41.1801 32.7648 41.1635 32.7615 41.1468 32.7617C41.1301 32.7619 41.1136 32.7656 41.0983 32.7725C41.0517 32.7933 41.0168 32.8414 40.9669 32.8563C40.8915 32.879 40.8174 32.7923 40.8095 32.7118C40.8099 32.6905 40.8068 32.6691 40.8002 32.6488C40.7886 32.632 40.7724 32.6192 40.7538 32.6118C40.7352 32.6045 40.7149 32.6029 40.6954 32.6073C40.6564 32.617 40.6157 32.6153 40.5775 32.6025C40.531 32.577 40.5165 32.512 40.5152 32.4557C40.5137 32.3993 40.5152 32.3367 40.4798 32.2943C40.4211 32.2254 40.2884 32.2418 40.259 32.1551C40.2497 32.1277 40.2553 32.0968 40.2446 32.0698C40.2231 32.015 40.1514 32.0063 40.0965 31.9986C39.9832 31.9831 39.8758 31.9378 39.7844 31.8671C39.7378 31.8315 39.6866 31.7872 39.6311 31.8025C39.5664 31.8203 39.5413 31.91 39.4775 31.9302C39.4331 31.9369 39.3878 31.9274 39.3494 31.9032C39.2595 31.8598 39.1596 31.8431 39.0611 31.855C39.012 31.8613 38.9651 31.88 38.9245 31.9093C38.8839 31.9385 38.8509 31.9777 38.8283 32.0232C38.8101 32.0641 38.8026 32.1093 38.7817 32.1488C38.7728 32.1695 38.7581 32.1867 38.7394 32.1983C38.7207 32.2098 38.699 32.2151 38.6773 32.2134C38.6578 32.207 38.6392 32.1981 38.6219 32.1869C38.5413 32.146 38.4445 32.1782 38.3671 32.225C38.2238 32.312 38.1121 32.4453 38.049 32.6045C37.9475 32.5563 37.9452 32.3983 37.8586 32.3242C37.8227 32.2933 37.7757 32.2798 37.7398 32.2495C37.7111 32.2243 37.6913 32.19 37.6835 32.1519C37.6757 32.1139 37.6802 32.0742 37.6965 32.039C37.7226 31.986 37.7757 31.9427 37.7784 31.8854C37.7784 31.8372 37.7463 31.7862 37.7659 31.7409C37.7817 31.7033 37.826 31.6927 37.859 31.6706C37.8921 31.6484 37.9196 31.5964 37.8879 31.5713C37.8562 31.4837 37.7635 31.437 37.675 31.4177C37.5866 31.3985 37.492 31.3946 37.4138 31.3479C37.3579 31.3147 37.3146 31.2622 37.2596 31.2275C37.1353 31.1485 36.9708 31.1721 36.8404 31.2424C36.799 31.265 36.7599 31.2906 36.717 31.3108C36.6675 31.3253 36.6204 31.3476 36.5773 31.3768C36.5386 31.411 36.5214 31.4798 36.5601 31.5145C36.4868 31.5155 36.414 31.5031 36.3449 31.478C36.3105 31.4651 36.2792 31.4446 36.2533 31.4178C36.2274 31.3912 36.2075 31.3589 36.1949 31.3233C36.1753 31.2564 36.1903 31.1788 36.16 31.1182C36.1409 31.0787 36.1055 31.0493 36.0883 31.0093C36.0789 30.9881 36.0799 30.9848 36.0743 30.9732C36.0435 30.9077 35.9537 30.887 35.9052 30.8769C35.8456 30.8644 35.8321 30.8716 35.644 30.8769C35.5182 30.8807 35.493 30.8768 35.4716 30.9024C35.4292 30.9505 35.4656 31.0305 35.4195 31.0738C35.4035 31.0853 35.3853 31.093 35.3661 31.0964C35.347 31.0997 35.3273 31.0986 35.3086 31.0931C35.2398 30.957 35.1531 30.8314 35.0511 30.7198C35.0123 30.6795 34.9716 30.6412 34.929 30.6052Z" fill="black" stroke="black"/>
<path d="M34.929 30.6052C34.8714 30.6806 34.7954 30.7387 34.7087 30.7734C34.6118 30.8099 34.5332 30.7969 34.4759 30.8697C34.4524 30.9058 34.4326 30.9444 34.4167 30.9848C34.379 31.058 34.3162 31.114 34.2407 31.1418C34.2127 31.1519 34.1787 31.1625 34.1708 31.1899C34.1689 31.2105 34.1711 31.2314 34.1773 31.2511C34.1913 31.3561 34.0562 31.3994 33.9668 31.4515C33.9168 31.4843 33.8738 31.5275 33.8403 31.5782C33.8069 31.6288 33.7839 31.686 33.7726 31.7462C33.7507 31.8667 33.7449 31.9897 33.7553 32.1118C33.5689 32.1429 33.3788 32.1429 33.1923 32.1118L33.1881 32.0438C33.1606 32.036 33.1312 32.0397 33.1064 32.0541C33.0815 32.0685 33.0632 32.0925 33.0554 32.1209C32.9249 32.0795 32.8183 31.9721 32.6827 31.9461C32.5142 31.9138 32.3497 32.0188 32.2236 32.1387C32.1925 32.1646 32.1676 32.1976 32.1509 32.235C32.1439 32.2579 32.1384 32.2813 32.1346 32.3049C32.1121 32.389 32.0586 32.4606 31.9856 32.5044C31.9127 32.5481 31.826 32.5605 31.7443 32.539C31.6674 32.5144 31.5781 32.4609 31.5161 32.5139C31.4728 32.551 31.4742 32.6203 31.4919 32.6757C31.5158 32.7282 31.5329 32.7838 31.5426 32.841C31.5473 32.9421 31.4705 33.024 31.409 33.103C31.3475 33.1819 31.2972 33.2956 31.3545 33.3789C31.3675 33.3977 31.3866 33.4155 31.3861 33.4391C31.3861 33.4873 31.314 33.4873 31.2729 33.5085C31.1845 33.5567 31.2534 33.7089 31.2031 33.7975C31.183 33.8336 31.1444 33.8562 31.1258 33.8938C31.1133 33.9251 31.1126 33.9602 31.1236 33.992C31.1345 34.024 31.1566 34.0505 31.1854 34.0667C31.2452 34.0962 31.3136 34.1012 31.3768 34.0807C31.4166 34.0668 31.4579 34.0579 31.4998 34.0542C31.5328 34.0555 31.5654 34.0617 31.5966 34.0725L31.7624 34.1206C31.8235 34.1385 31.8971 34.1727 31.8971 34.2382C31.8971 34.2964 31.8356 34.3345 31.7806 34.345C31.7257 34.3557 31.6642 34.3585 31.6218 34.3971C31.5794 34.4356 31.5687 34.517 31.5715 34.584C31.5778 34.6438 31.575 34.7042 31.5631 34.7631C31.5568 34.7925 31.5426 34.8195 31.5221 34.841C31.5017 34.8626 31.4759 34.8778 31.4476 34.885C31.419 34.8858 31.3906 34.8807 31.3639 34.8699C31.3373 34.8592 31.313 34.843 31.2925 34.8223C31.2515 34.7807 31.1992 34.7528 31.1426 34.7424C31.0853 34.739 31.0238 34.7978 31.0461 34.8522C30.9604 34.8108 30.8669 34.7704 30.7742 34.7901C30.6815 34.8099 30.6009 34.9158 30.6409 35.0044C30.5427 35.1378 30.572 35.3478 30.4393 35.4437C30.376 35.4894 30.294 35.4918 30.219 35.5125C30.144 35.5332 30.056 35.5761 29.9731 35.5607C29.9372 35.554 29.9037 35.5371 29.8683 35.5294C29.8507 35.5241 29.8322 35.5236 29.8144 35.5279C29.7966 35.5322 29.7802 35.5412 29.7667 35.554C29.7295 35.5978 29.7542 35.6715 29.7234 35.7201C29.6927 35.7687 29.6345 35.7683 29.594 35.802C29.5195 35.8612 29.5395 35.9787 29.5409 36.076C29.5422 36.0907 29.5395 36.1053 29.5329 36.1184C29.5162 36.1458 29.4775 36.1439 29.4482 36.155C29.3849 36.1796 29.3699 36.2658 29.3807 36.3347C29.3914 36.4035 29.4175 36.4738 29.3993 36.5408C29.3872 36.5851 29.3564 36.6227 29.3448 36.6675C29.3243 36.7469 29.3676 36.8269 29.4021 36.901C29.4365 36.9752 29.4612 37.0696 29.4118 37.1342C29.3625 37.1987 29.2516 37.1973 29.1972 37.2628C29.1589 37.3109 29.1557 37.3788 29.1143 37.4217C29.1319 37.5412 29.1338 37.6625 29.0737 37.768C29.0462 37.8088 29.015 37.8468 28.9806 37.8817C28.9172 37.9553 28.8679 38.07 28.9256 38.1485C28.9411 38.1676 28.9608 38.1826 28.9832 38.1922C29.0054 38.2017 29.0296 38.2055 29.0537 38.2033C29.102 38.1985 29.148 38.1802 29.1869 38.1504C29.2237 38.1244 29.2665 38.0907 29.3076 38.108C29.3411 38.1451 29.2787 38.2043 29.2945 38.2525C29.3103 38.3007 29.3876 38.2828 29.4393 38.3007C29.434 38.3206 29.4328 38.3415 29.436 38.362C29.4391 38.3824 29.4464 38.4019 29.4575 38.4192C29.4701 38.4384 29.4883 38.4577 29.4859 38.4808C29.4836 38.5039 29.4631 38.5183 29.4487 38.5352C29.4076 38.5833 29.4156 38.6585 29.4384 38.7187C29.4456 38.7337 29.4496 38.7502 29.45 38.7668C29.4472 38.8068 29.4034 38.8285 29.3634 38.8305C29.3249 38.8265 29.286 38.8294 29.2484 38.8391C29.2301 38.8492 29.2125 38.8606 29.1958 38.8733C29.1026 38.9311 28.9862 38.8858 28.8883 38.8401C28.8513 38.827 28.8188 38.8027 28.7952 38.7702C28.7898 38.762 28.7862 38.7527 28.7846 38.7429C28.7829 38.7331 28.7833 38.723 28.7858 38.7134C28.7882 38.7038 28.7926 38.6948 28.7986 38.6871C28.8047 38.6794 28.8122 38.6731 28.8209 38.6686C28.8309 38.6671 28.8406 38.664 28.8497 38.6595C28.8706 38.6445 28.8581 38.6113 28.8409 38.5911C28.8236 38.5709 28.8013 38.5497 28.8083 38.5246C28.8152 38.4996 28.8576 38.4923 28.8888 38.4923C28.9201 38.4923 28.961 38.4687 28.948 38.4393C28.9425 38.4301 28.9346 38.4226 28.9251 38.4177C28.8825 38.3893 28.8484 38.3491 28.8269 38.3016C28.8155 38.2699 28.8022 38.239 28.7868 38.2092C28.779 38.1942 28.7673 38.1818 28.7531 38.1733C28.7389 38.1648 28.7227 38.1605 28.7063 38.161C28.6494 38.1687 28.635 38.2448 28.6061 38.2958C28.5825 38.3304 28.5501 38.3577 28.5127 38.3746C28.4751 38.3916 28.4339 38.3977 28.3933 38.3922C28.3115 38.3806 28.2325 38.3533 28.1604 38.3117C28.0789 38.3551 28.0719 38.4475 28.0477 38.539C28.0143 38.6611 27.9361 38.7648 27.8298 38.828C27.7543 38.8728 27.6495 38.8907 27.5866 38.828C27.5694 38.8112 27.5568 38.7895 27.54 38.7736C27.5143 38.7555 27.4845 38.7441 27.4536 38.7405C27.4226 38.7369 27.3912 38.7412 27.3621 38.7529C27.3042 38.7771 27.2428 38.7914 27.1805 38.7953V38.8892C27.1153 38.8757 27.078 38.973 27.1018 39.0375C27.1255 39.1021 27.1805 39.1502 27.201 39.2157C27.242 39.3467 27.1116 39.4874 26.9783 39.4845C26.9127 39.4845 26.8387 39.4417 26.8363 39.3742C26.8181 39.3658 26.7985 39.3612 26.7786 39.3607C26.7587 39.3602 26.7389 39.3638 26.7203 39.3713C26.5713 39.4174 26.4371 39.5043 26.3319 39.6227C26.2977 39.6677 26.2581 39.708 26.2141 39.7427C26.1918 39.7597 26.1652 39.7699 26.1375 39.772C26.1098 39.7742 26.0821 39.7682 26.0576 39.7547C26.0278 39.7345 26.0054 39.6973 25.97 39.695C25.9346 39.6925 25.9034 39.7292 25.8671 39.7272C25.8205 39.7272 25.8005 39.667 25.7889 39.6208C25.7774 39.5578 25.7482 39.4997 25.705 39.4537C25.6829 39.4314 25.6539 39.4179 25.6231 39.4154C25.5923 39.413 25.5616 39.4217 25.5364 39.4402C25.501 39.472 25.4898 39.5288 25.446 39.55C25.4268 39.5579 25.4061 39.5611 25.3855 39.5592C25.2829 39.5565 25.1818 39.5324 25.0884 39.4884C25.06 39.4712 25.028 39.4615 24.9952 39.4604C24.9296 39.4652 24.8811 39.5442 24.8159 39.5355C24.7838 39.5312 24.7572 39.5057 24.7251 39.4994C24.6929 39.4932 24.6524 39.5298 24.6739 39.5553L24.4927 39.5072C24.4885 39.5702 24.4126 39.6035 24.353 39.5905C24.2953 39.5697 24.2423 39.5368 24.1974 39.4942C24.1748 39.4728 24.1479 39.4568 24.1187 39.4476C24.0895 39.4383 24.0586 39.436 24.0284 39.4407C23.985 39.4888 23.9971 39.5635 24.0237 39.6213C24.0564 39.6759 24.0794 39.736 24.0917 39.799C24.1103 39.9122 24.0404 39.9377 24.0591 40.0369C24.0777 40.1362 24.1489 40.138 24.182 40.2445C24.2081 40.3293 24.182 40.389 24.1699 40.4733C24.1578 40.5575 24.1699 40.5942 24.2356 40.9015C24.3376 41.3883 24.3264 41.4255 24.3911 41.5796C24.4424 41.7005 24.4615 41.7067 24.4815 41.7915C24.5132 41.9263 24.508 42.0958 24.5398 42.2143C24.5481 42.2483 24.5613 42.2807 24.5789 42.3107C24.5928 42.3323 24.611 42.3507 24.6255 42.3733C24.6437 42.4194 24.6552 42.4681 24.6594 42.5178C24.6747 42.5628 24.7055 42.6004 24.746 42.6233C24.8243 42.6777 24.8169 42.8207 24.7717 42.9065C24.7496 42.9397 24.7295 42.9742 24.7116 43.01C24.7013 43.0461 24.6993 43.0842 24.7061 43.1213C24.7128 43.1583 24.7279 43.1931 24.7502 43.2229C24.7698 43.2486 24.7873 43.276 24.8024 43.3048C24.8101 43.3196 24.8141 43.3361 24.8141 43.3529C24.8141 43.3697 24.8101 43.3863 24.8024 43.4011C24.7926 43.417 24.7768 43.43 24.7731 43.4492C24.7679 43.4757 24.7898 43.4974 24.7982 43.5239C24.8155 43.5759 24.7754 43.6275 24.7591 43.68C24.7381 43.7478 24.7591 43.8206 24.7675 43.8909C24.7778 43.9773 24.7813 44.0645 24.7777 44.1515C24.7806 44.3086 24.768 44.4656 24.74 44.6201C24.5972 44.685 24.4691 44.7802 24.3641 44.8994C24.3454 44.9219 24.3236 44.9415 24.2994 44.9577C24.2468 44.99 24.1811 44.9818 24.1196 44.9818C23.9798 44.9891 23.8428 45.026 23.7172 45.0902C23.6321 45.1254 23.552 45.1722 23.4788 45.2293C23.3661 45.3228 23.2901 45.4543 23.2138 45.5809C23.0697 45.8198 22.9169 46.0524 22.7555 46.2788C22.7787 46.3111 22.8356 46.3111 22.8486 46.3496C22.8617 46.3882 22.8263 46.4117 22.8244 46.4459C22.8225 46.4801 22.864 46.5148 22.9026 46.5196C22.9413 46.5244 22.9809 46.5143 23.0195 46.5196C23.0582 46.5249 23.0992 46.5562 23.0945 46.5962C23.1276 46.5882 23.1622 46.5899 23.1944 46.601C23.2267 46.6122 23.2553 46.6323 23.2771 46.6593C23.2995 46.6877 23.3162 46.7257 23.3497 46.7383C23.3833 46.7508 23.4215 46.732 23.4578 46.7262C23.4941 46.7205 23.5426 46.7431 23.5356 46.7802C23.5321 46.7912 23.5275 46.8017 23.5216 46.8115C23.4979 46.864 23.5435 46.9242 23.5943 46.9483C23.645 46.9724 23.7042 46.9781 23.7508 47.0104C23.8104 47.0518 23.8364 47.1274 23.8588 47.1977L23.9054 47.3422C23.9231 47.3981 23.9077 47.4385 23.9109 47.4973C23.9127 47.5107 23.9113 47.5242 23.9068 47.5368C23.8951 47.5628 23.8602 47.5695 23.8425 47.5898C23.8094 47.625 23.8258 47.6861 23.8034 47.7285C23.7945 47.7459 23.7797 47.7593 23.7708 47.7767C23.7405 47.8345 23.7848 47.9086 23.7647 47.9693C23.754 48.0025 23.726 48.029 23.7228 48.0657C23.7228 48.0907 23.7317 48.1186 23.7186 48.1398C23.713 48.149 23.7042 48.1552 23.6991 48.1643C23.6846 48.1894 23.7042 48.2202 23.721 48.2439C23.7336 48.2584 23.7428 48.2757 23.7478 48.2945C23.7528 48.3133 23.7535 48.333 23.7498 48.3522C23.7359 48.3941 23.6898 48.4124 23.6567 48.4379C23.5635 48.5054 23.5453 48.634 23.5328 48.7486C23.5278 48.775 23.5294 48.8024 23.5375 48.828C23.5487 48.855 23.5742 48.8854 23.557 48.9085C23.5398 48.9316 23.503 48.9263 23.5007 48.9518C23.5007 48.9624 23.5076 48.972 23.5123 48.9812C23.5417 49.038 23.476 49.105 23.4904 49.1676C23.4988 49.2037 23.5323 49.2297 23.5403 49.2639C23.542 49.286 23.542 49.3083 23.5403 49.3304C23.543 49.3535 23.5506 49.3757 23.5627 49.3954C23.5748 49.4151 23.591 49.4317 23.6101 49.444C23.6482 49.4693 23.6898 49.4885 23.7336 49.5009C23.7504 49.4432 23.7463 49.3812 23.7219 49.3265C23.6975 49.2725 23.6778 49.2165 23.6627 49.1589C23.658 49.1408 23.658 49.1217 23.6627 49.1035C23.6767 49.0631 23.7233 49.0482 23.7633 49.038L23.985 48.9836C24.0002 48.9792 24.0158 48.9768 24.0316 48.9768C24.0696 48.9858 24.1057 49.0022 24.1378 49.025C24.1997 49.047 24.2647 49.0583 24.3302 49.0587C24.3953 49.0669 24.4666 49.0944 24.4913 49.1551C24.4974 49.1798 24.5055 49.204 24.5155 49.2274C24.5425 49.2726 24.6044 49.2755 24.6552 49.2683C24.8057 49.2442 24.9142 49.0698 25.0148 48.9518C25.0329 48.9283 25.0535 48.907 25.0762 48.8882C25.0936 48.8763 25.1118 48.8658 25.1307 48.857C25.2042 48.8198 25.2748 48.7769 25.3417 48.7284C25.3572 48.7186 25.3706 48.7058 25.3813 48.6908C25.3924 48.6688 25.3989 48.6447 25.4004 48.62C25.4288 48.4274 25.5504 48.2612 25.671 48.1095C25.8812 48.0642 26.0959 48.0446 26.3105 48.0512C26.3555 48.049 26.4004 48.0553 26.4432 48.07C26.4724 48.0871 26.5037 48.0997 26.5363 48.1075C26.5895 48.1128 26.6361 48.069 26.6892 48.0632C26.7369 48.0662 26.784 48.0766 26.8288 48.094C26.8835 48.1019 26.9391 48.0983 26.9923 48.0835C27.2051 48.038 27.4129 47.9707 27.6127 47.8826C27.6322 47.8717 27.6544 47.8666 27.6765 47.8682C27.7017 47.8725 27.7231 47.8937 27.7468 47.8975C27.7681 47.8969 27.7895 47.8952 27.8106 47.8922C27.834 47.8955 27.8561 47.9049 27.8749 47.9197L28.0682 48.0463C28.3826 48.0016 28.6983 48.1908 28.995 48.0738C29.0324 48.0555 29.0716 48.0415 29.1119 48.0319C29.1823 48.0304 29.2519 48.047 29.3145 48.0801C29.4746 48.1408 29.645 48.1665 29.8152 48.1557C29.8431 48.1509 29.8718 48.154 29.8981 48.1648C29.9414 48.1885 29.9498 48.2477 29.9773 48.2896C30.0147 48.3365 30.0667 48.3685 30.1245 48.3802C30.2925 48.4299 30.4688 48.4425 30.6419 48.4172C30.6768 48.4119 30.7229 48.4124 30.735 48.4466C30.7373 48.4573 30.738 48.4684 30.7374 48.4794C30.7401 48.5502 30.8138 48.5978 30.8822 48.6032C30.9506 48.6007 31.0187 48.5921 31.0857 48.5776C31.3694 48.5482 31.6036 48.7967 31.8775 48.8849C31.9118 48.8977 31.9483 48.9028 31.9846 48.8998C32.0294 48.889 32.0726 48.8716 32.1127 48.8483C32.1886 48.8188 32.2703 48.809 32.3507 48.8199C32.4454 48.8242 32.5386 48.8466 32.6254 48.8858C32.6228 48.9826 32.6147 49.079 32.6012 49.1749C32.5964 49.1932 32.5982 49.2127 32.6064 49.2297C32.6178 49.2454 32.6343 49.2562 32.653 49.2601C32.6993 49.2731 32.7476 49.2773 32.7955 49.2726C32.8091 49.2688 32.8232 49.2679 32.8372 49.27C32.8511 49.2721 32.8645 49.277 32.8765 49.2847C32.911 49.3169 32.8811 49.3752 32.8495 49.4099C32.8178 49.4445 32.7819 49.4965 32.8095 49.5351C32.8434 49.5832 32.9133 49.5394 32.9701 49.5293C33.046 49.5158 33.1262 49.5731 33.1979 49.5447C33.2696 49.5163 33.3013 49.419 33.3753 49.4152C33.3927 49.4154 33.4101 49.4184 33.4266 49.4243L33.7665 49.5235C33.808 49.5308 33.846 49.5518 33.8751 49.5832C33.9156 49.6386 33.8909 49.7181 33.8602 49.7802C33.8294 49.8423 33.7931 49.9122 33.8164 49.9777C33.8393 50.0247 33.8769 50.0623 33.923 50.0846C33.9268 50.0887 33.9315 50.0919 33.9366 50.0938C33.9418 50.0957 33.9473 50.0963 33.9528 50.0957C33.9582 50.0949 33.9634 50.0929 33.968 50.0897C33.9725 50.0866 33.9763 50.0824 33.9789 50.0774C34.0493 49.9922 34.1224 49.8982 34.1293 49.7884C34.1331 49.7345 34.1205 49.681 34.1219 49.6271C34.1203 49.6001 34.1256 49.5731 34.1373 49.549C34.149 49.5248 34.1667 49.5042 34.1885 49.4893C34.2155 49.4793 34.2447 49.4775 34.2727 49.484C34.3007 49.4906 34.3262 49.5053 34.3464 49.5264C34.3902 49.5645 34.4233 49.615 34.4698 49.6497C34.5676 49.7229 34.7027 49.7123 34.821 49.695C34.8575 49.6927 34.8928 49.6812 34.9239 49.6613C34.951 49.6365 34.9723 49.6057 34.9863 49.5712C35.0352 49.4743 35.0931 49.3825 35.1591 49.2972C35.1699 49.2792 35.1864 49.2656 35.2057 49.2586C35.2546 49.2485 35.2811 49.3188 35.2732 49.3698C35.2653 49.4209 35.2462 49.4792 35.2769 49.5197C35.2942 49.5375 35.3148 49.5513 35.3375 49.5606C35.3848 49.5873 35.4241 49.6267 35.4514 49.6747C35.4786 49.7227 35.4927 49.7775 35.4921 49.8332L35.8097 49.6314C35.8358 49.615 35.868 49.6459 35.8931 49.6642C35.9625 49.7123 36.0585 49.668 36.1409 49.6858C36.1392 49.8303 36.169 49.9734 36.228 50.1044C36.237 50.128 36.251 50.1492 36.269 50.1665C36.2782 50.1749 36.2896 50.1804 36.3017 50.1823C36.3138 50.1842 36.3263 50.1824 36.3375 50.1771C36.3542 50.1675 36.3705 50.1467 36.3873 50.1554C36.3885 50.198 36.4023 50.2392 36.4268 50.2734C36.4324 50.2822 36.4403 50.2892 36.4497 50.2932C36.4776 50.3028 36.499 50.2667 36.5037 50.2368C36.5177 50.1506 36.493 50.0591 36.5195 49.9762C36.5345 49.9354 36.5571 49.8981 36.5862 49.8664C36.6598 49.7802 36.7518 49.7127 36.8549 49.6695C36.9012 49.6463 36.9532 49.6387 37.0039 49.6473C37.026 49.6563 37.0496 49.6609 37.0733 49.6608C37.0887 49.6567 37.1028 49.6483 37.1141 49.6368C37.1253 49.6252 37.1335 49.6107 37.1376 49.5948C37.1483 49.564 37.1515 49.5307 37.1641 49.4985C37.1772 49.469 37.1987 49.4443 37.2258 49.4278C37.2529 49.4114 37.2842 49.4039 37.3155 49.4065C37.3621 49.4109 37.4049 49.419 37.4492 49.4248C37.4717 49.4255 37.4935 49.4326 37.5123 49.4454C37.5312 49.4581 37.5462 49.476 37.5558 49.497C37.5597 49.5182 37.5621 49.5396 37.5633 49.5611C37.5749 49.6295 37.6429 49.6699 37.6825 49.7258C37.7061 49.76 37.7198 49.8004 37.7221 49.8424C37.7243 49.8844 37.7149 49.9261 37.6951 49.9628C37.6741 49.9998 37.6411 50.0413 37.6588 50.0803C37.6765 50.1193 37.7179 50.1207 37.7519 50.1395C37.7738 50.1562 37.7923 50.1772 37.8063 50.2013C37.8203 50.2255 37.8295 50.2523 37.8334 50.2802C37.841 50.336 37.8611 50.3893 37.8921 50.4357C37.9275 50.4781 38.0002 50.4935 38.0346 50.4502C38.0466 50.4293 38.057 50.4076 38.0658 50.3852C38.0789 50.3638 38.0991 50.348 38.1225 50.3407C38.1459 50.3335 38.1711 50.3352 38.1934 50.3457C38.2139 50.3562 38.2307 50.3741 38.2507 50.3852C38.2604 50.3916 38.2718 50.3947 38.2833 50.3939C38.2948 50.3931 38.3057 50.3885 38.3145 50.3808C38.3207 50.3723 38.325 50.3624 38.3271 50.3519L38.396 50.0914C38.4668 50.0812 38.5418 50.178 38.5958 50.1299C38.6326 50.0972 38.6098 50.0307 38.6359 49.9883C38.6529 49.9651 38.6768 49.9482 38.7038 49.9401C38.7658 49.9155 38.8436 49.8943 38.8902 49.9449C38.9137 49.9817 38.9259 50.0251 38.9251 50.0692C38.9307 50.1125 38.9493 50.1627 38.9908 50.1723C39.0322 50.1819 39.0713 50.1467 39.1128 50.1515C39.1543 50.1564 39.1976 50.2084 39.2395 50.1901C39.2532 50.1827 39.2645 50.1713 39.2721 50.1574C39.2982 50.1164 39.3163 50.0706 39.3257 50.0225C39.3504 50.0384 39.3718 50.0594 39.3885 50.0842C39.4877 50.0663 39.5525 49.9522 39.6521 49.9397C39.7057 49.9319 39.7597 49.9555 39.8137 49.9502C39.8678 49.9449 39.9069 49.9175 39.9535 49.9146C40.028 49.9103 40.0932 49.9657 40.1421 50.0239C40.191 50.0822 40.2353 50.1487 40.3042 50.1814C40.3629 50.2098 40.436 50.2108 40.4807 50.2595C40.5002 50.2822 40.5108 50.3115 40.5108 50.3418C40.5108 50.3722 40.5002 50.4014 40.4807 50.4242C40.4634 50.4383 40.4479 50.4545 40.4341 50.4723C40.4266 50.4893 40.4243 50.5083 40.4275 50.5268C40.4308 50.5452 40.4394 50.5622 40.4523 50.5754C40.479 50.6014 40.5107 50.6213 40.5454 50.6337C40.5785 50.6505 40.6136 50.6629 40.6498 50.6703C40.6715 50.6723 40.6926 50.6795 40.7113 50.6912C40.73 50.7028 40.7459 50.7187 40.7578 50.7377C40.7681 50.7598 40.7709 50.7859 40.7899 50.8022C40.7971 50.8069 40.805 50.8103 40.8132 50.8123L40.9935 50.8653C41.0003 50.8678 41.0076 50.8688 41.0149 50.8682C41.023 50.8658 41.0302 50.8608 41.0353 50.8538C41.0404 50.8469 41.0432 50.8384 41.0433 50.8297C41.0433 50.8123 41.04 50.795 41.0405 50.7777C41.0405 50.7218 41.0871 50.6813 41.1337 50.6491C41.1626 50.6293 41.1951 50.6067 41.2003 50.5715C41.1991 50.5406 41.1921 50.5102 41.1798 50.482C41.1728 50.4521 41.1863 50.4102 41.2161 50.4117C41.198 50.3952 41.1836 50.3749 41.1738 50.352C41.1639 50.3293 41.159 50.3046 41.1592 50.2797C41.1626 50.2591 41.1606 50.238 41.1537 50.2185C41.1299 50.1742 41.0466 50.1867 41.0373 50.1366C41.0363 50.1266 41.038 50.1165 41.0421 50.1074C41.0463 50.0983 41.0528 50.0906 41.061 50.0851C41.0772 50.0743 41.0942 50.0648 41.1118 50.0567C41.1161 50.0548 41.1201 50.052 41.1233 50.0485C41.1265 50.0449 41.129 50.0406 41.1304 50.036C41.1311 50.0296 41.1298 50.0232 41.1267 50.0177C41.1053 49.9748 41.0475 49.9527 41.0428 49.9045C41.0445 49.8846 41.0445 49.8647 41.0428 49.8448C41.034 49.8135 40.992 49.7918 41.0023 49.761C41.0061 49.7499 41.0158 49.7422 41.0191 49.7306C41.0247 49.7094 41.0019 49.6907 40.9804 49.6877C40.9591 49.6883 40.9378 49.687 40.9166 49.6839C40.9027 49.679 40.8911 49.6687 40.8842 49.6553C40.8773 49.6419 40.8755 49.6262 40.8793 49.6115C40.8831 49.5968 40.8921 49.5842 40.9045 49.576C40.917 49.5679 40.932 49.565 40.9464 49.5679C40.9454 49.5544 40.9408 49.5415 40.9329 49.5308C40.9251 49.52 40.9144 49.5118 40.9022 49.5072C40.864 49.4932 40.8859 49.4219 40.9022 49.3843C40.9297 49.328 40.9456 49.2663 40.9488 49.2032C40.9488 49.1589 40.9488 49.1069 40.9874 49.0818C41.0088 49.0684 41.0363 49.0698 41.0573 49.0558C41.0899 49.0342 41.0922 48.987 41.0908 48.947L41.0857 48.7789C41.0849 48.7737 41.0851 48.7682 41.0862 48.763C41.0874 48.7578 41.0896 48.7529 41.0927 48.7486C41.0999 48.7427 41.1086 48.7392 41.1178 48.7385C41.1438 48.7317 41.1666 48.7155 41.1818 48.6927C41.1971 48.67 41.2038 48.6422 41.2007 48.6147C41.1956 48.5771 41.1719 48.5395 41.1849 48.5044C41.1946 48.4779 41.2222 48.4639 41.2426 48.4447C41.3088 48.3835 41.3111 48.2617 41.3917 48.2227C41.4326 48.2029 41.489 48.2072 41.5128 48.1673C41.5417 48.1191 41.4918 48.0497 41.5198 48.0011C41.5345 47.9812 41.5549 47.9666 41.5779 47.9592C41.6417 47.9303 41.7112 47.8874 41.7233 47.8147C41.7275 47.7916 41.7261 47.7637 41.7443 47.7487C41.7581 47.7397 41.7746 47.7361 41.7908 47.7386H41.9394C41.9538 47.7087 41.9235 47.6765 41.8928 47.6611C41.8621 47.6457 41.8285 47.6288 41.8253 47.5956C41.822 47.5624 41.8504 47.5387 41.8551 47.5079C41.8597 47.4771 41.843 47.4492 41.8485 47.4203C41.8532 47.4048 41.8622 47.3912 41.8744 47.3812C41.8866 47.3712 41.9015 47.3651 41.917 47.3639C41.9482 47.3619 41.9796 47.3642 42.0102 47.3707C42.1035 47.3741 42.1969 47.3703 42.2896 47.3596C42.3828 47.3572 42.4862 47.3769 42.5481 47.4497C42.5649 47.4694 42.5821 47.4944 42.6073 47.4935C42.6197 47.4922 42.6314 47.487 42.6408 47.4785C42.6604 47.4628 42.6768 47.4432 42.6888 47.4207C42.7008 47.3983 42.7082 47.3735 42.7107 47.348C42.714 47.3218 42.724 47.297 42.7398 47.2762C42.7555 47.2553 42.7763 47.2393 42.8001 47.2295C42.8497 47.208 42.9028 47.1962 42.9565 47.1948C43.1914 47.1752 43.4275 47.1767 43.6622 47.1992C43.7239 47.2123 43.7881 47.2051 43.8457 47.1785C43.8638 47.1656 43.879 47.1488 43.8903 47.1293C43.9015 47.1098 43.9086 47.088 43.911 47.0654C43.9133 47.0428 43.9109 47.0199 43.9039 46.9983C43.8969 46.9768 43.8854 46.9571 43.8703 46.9405C43.8298 46.9006 43.7702 46.8866 43.7306 46.8442C43.6692 46.7792 43.6808 46.6718 43.7153 46.5885C43.7221 46.5763 43.7249 46.562 43.7232 46.548C43.72 46.5395 43.7144 46.5321 43.7071 46.5269C43.6998 46.5217 43.6911 46.519 43.6822 46.5192C43.6645 46.5197 43.647 46.5215 43.6296 46.5244C43.6068 46.5247 43.5843 46.5202 43.5633 46.5112C43.5423 46.5022 43.5234 46.4888 43.5075 46.4719C43.4761 46.438 43.4492 46.3998 43.4279 46.3583C43.4208 46.3477 43.4162 46.3354 43.4144 46.3227C43.4144 46.2971 43.4331 46.2745 43.4484 46.2557C43.4756 46.217 43.4883 46.1694 43.4842 46.1218C43.48 46.0742 43.4594 46.0297 43.426 45.9966C43.412 45.9858 43.3995 45.9732 43.3888 45.959C43.3745 45.9267 43.3732 45.8898 43.3851 45.8564L43.4148 45.7215C43.4185 45.7084 43.42 45.6947 43.419 45.6811C43.4107 45.6161 43.3082 45.6002 43.3017 45.5366C43.3031 45.5091 43.3116 45.4825 43.3263 45.4595C43.3335 45.448 43.337 45.4343 43.3363 45.4207C43.3357 45.4069 43.3309 45.3937 43.3227 45.383C43.3779 45.3557 43.4413 45.3513 43.4996 45.3709C43.4306 45.3228 43.3655 45.2691 43.3049 45.2101C43.2856 45.1937 43.2707 45.1722 43.2621 45.148C43.2592 45.1256 43.2578 45.103 43.2579 45.0805C43.2458 44.977 43.1037 44.9389 43.0767 44.8397L43.2821 44.7617C43.2976 44.7571 43.3119 44.749 43.324 44.7381C43.3382 44.72 43.3458 44.6973 43.3455 44.674C43.349 44.6195 43.3412 44.5649 43.3227 44.5138C43.3043 44.4626 43.2755 44.4161 43.2383 44.3773C43.2039 44.3417 43.1587 44.306 43.1578 44.255C43.1578 44.2126 43.1885 44.1741 43.1852 44.1322C43.1361 44.142 43.0853 44.1383 43.0379 44.1214C42.9906 44.1045 42.9484 44.075 42.9156 44.0358C42.843 43.9627 42.7656 43.8813 42.7526 43.7772C42.7522 43.7472 42.7472 43.7175 42.7377 43.6891C42.724 43.6651 42.705 43.6448 42.6823 43.6299L42.4792 43.4723C42.5101 43.4577 42.5365 43.4343 42.555 43.4048C42.5736 43.3753 42.5836 43.3409 42.584 43.3057C42.5818 43.2895 42.5832 43.2731 42.5882 43.2575C42.5961 43.2438 42.6078 43.2328 42.6217 43.2258L42.733 43.1545C42.7252 43.0435 42.7298 42.932 42.7465 42.8222C42.7493 42.7873 42.7616 42.7538 42.7819 42.7258C42.8285 42.6714 42.9137 42.6858 42.9808 42.7095C43.0479 42.7331 43.1256 42.7577 43.1848 42.7196C43.2258 42.6917 43.2495 42.6353 43.2979 42.6266C43.3464 42.618 43.3823 42.6575 43.426 42.6714C43.5034 42.697 43.6072 42.6507 43.6589 42.7162C43.7008 42.7702 43.665 42.8578 43.7013 42.9161C43.7525 42.9985 43.8843 42.9493 43.963 43.0033C43.991 43.0225 44.0096 43.0543 44.0403 43.0697C44.1135 43.1073 44.195 43.0317 44.277 43.0302C44.3301 43.0359 44.3817 43.0523 44.4288 43.0784C44.4786 43.0986 44.5419 43.1058 44.5797 43.0663C44.5922 43.0533 44.6007 43.036 44.6137 43.024C44.6444 42.9955 44.6914 43.0003 44.731 42.9883C44.7706 42.9763 44.8041 42.919 44.7706 42.892L44.9444 42.8693C44.9625 42.8689 44.98 42.8627 44.9947 42.8515C45.0096 42.8312 45.0178 42.8064 45.0179 42.7807C45.0272 42.7276 45.0563 42.6804 45.099 42.6493C45.1311 42.6262 45.1697 42.6132 45.2024 42.5905C45.2839 42.5351 45.3193 42.4325 45.35 42.3372C45.3626 42.309 45.3652 42.2771 45.3575 42.2471C45.3438 42.2236 45.3266 42.2026 45.3062 42.185C45.289 42.1643 45.2783 42.1305 45.2969 42.1113C45.3514 42.0858 45.4143 42.1036 45.4739 42.1113C45.5335 42.119 45.6057 42.1113 45.6337 42.0559C45.6404 42.0373 45.6479 42.0192 45.6564 42.0015C45.6835 41.9596 45.7426 41.962 45.7911 41.9663C45.8395 41.9707 45.9005 41.9663 45.9182 41.9182C45.9322 41.8806 45.9089 41.8406 45.8931 41.804C45.8749 41.7621 45.8656 41.7167 45.8656 41.6708C45.8656 41.625 45.8749 41.5795 45.8931 41.5377C45.9103 41.4987 45.9299 41.4413 45.8931 41.4221C45.8817 41.4179 45.8696 41.4167 45.8577 41.4187L45.7063 41.4303C45.7177 41.4025 45.7226 41.3722 45.7203 41.3422C45.7187 41.3272 45.7121 41.3132 45.7017 41.3028C45.6912 41.2923 45.6775 41.286 45.663 41.2848C45.6206 41.2848 45.5913 41.3474 45.5498 41.3369C45.5279 41.331 45.5158 41.3075 45.5033 41.2887C45.445 41.213 45.3333 41.2208 45.248 41.1813C45.1734 41.1422 45.1163 41.0749 45.0882 40.9934C45.0607 40.9127 45.0431 40.8287 45.0361 40.7435C45.0916 40.7243 45.148 40.7082 45.2051 40.6953C45.2611 40.6785 45.3169 40.6308 45.3118 40.571C45.3077 40.5502 45.2994 40.5306 45.2875 40.5134C45.2755 40.496 45.2601 40.4816 45.2424 40.4708C45.2073 40.4445 45.1693 40.4223 45.1293 40.4049C45.1173 40.3982 45.1036 40.3958 45.0901 40.3982C45.0757 40.4025 45.0664 40.416 45.0538 40.4247C45.0385 40.432 45.0215 40.4345 45.0049 40.4317C44.9882 40.4288 44.9728 40.4208 44.9606 40.4087C44.9341 40.3861 44.9141 40.3548 44.8917 40.3297C44.7921 40.2286 44.6156 40.2551 44.514 40.1559C44.4781 40.1212 44.4525 40.0711 44.4069 40.0533C44.3597 40.0415 44.31 40.048 44.2672 40.0716L43.8829 40.2378C43.8701 40.2443 43.8557 40.247 43.8415 40.2455C43.8302 40.2421 43.8197 40.2363 43.8107 40.2286C43.7307 40.1715 43.6321 40.1493 43.5364 40.167C43.5467 40.1038 43.5672 40.043 43.597 39.9869C43.651 39.8413 43.6865 39.6891 43.7027 39.5341C43.7187 39.4595 43.7197 39.3823 43.7055 39.3073C43.6859 39.2321 43.6351 39.1628 43.6393 39.0857L43.5462 39.1137C43.5297 39.064 43.5051 39.0175 43.4735 38.9764C43.4575 38.956 43.4367 38.9402 43.4132 38.9302C43.3897 38.9203 43.3642 38.9166 43.3389 38.9195C43.3203 38.926 43.3008 38.9291 43.2812 38.9287C43.2639 38.9244 43.2479 38.9158 43.2346 38.9037C43.1516 38.8398 43.0511 38.805 42.9477 38.804C42.808 38.7077 42.6641 38.6161 42.5262 38.5178C42.4863 38.4961 42.4525 38.464 42.4281 38.4248C42.4035 38.3856 42.3893 38.3405 42.3865 38.2939C42.3666 38.2092 42.3564 38.1224 42.3563 38.0353C42.3601 38.0019 42.3588 37.9681 42.3525 37.9351C42.3302 37.8537 42.2342 37.8137 42.2058 37.7343C42.1982 37.7033 42.1923 37.672 42.1881 37.6403C42.1657 37.544 42.0772 37.4819 41.9878 37.4477C41.9422 37.4352 41.8979 37.4181 41.8555 37.3967C41.8344 37.3857 41.8165 37.3691 41.8034 37.3486C41.7904 37.3282 41.7829 37.3045 41.7815 37.2801C41.7884 37.2359 41.8086 37.1951 41.8393 37.1635C41.901 37.0823 41.9534 36.9939 41.9953 36.9001C42.0176 36.8519 42.0321 36.7797 41.9883 36.7484C41.9718 36.7384 41.9529 36.7331 41.9338 36.733C41.8407 36.7257 41.7503 36.7407 41.6609 36.7219C41.6493 36.7207 41.6379 36.7172 41.6276 36.7115C41.6173 36.7058 41.6082 36.698 41.6008 36.6887C41.5915 36.6677 41.5878 36.6446 41.5901 36.6217C41.5881 36.5746 41.5734 36.529 41.5477 36.4901C41.5221 36.4511 41.4864 36.4203 41.4448 36.4011C41.367 36.3669 41.3111 36.2947 41.23 36.2697C41.1945 36.2613 41.16 36.2489 41.1272 36.2325C41.1009 36.216 41.0789 36.1931 41.0634 36.1657C41.0477 36.1383 41.039 36.1073 41.0377 36.0755C41.0371 36.0438 41.0429 36.0122 41.0547 35.9829C41.0665 35.9535 41.084 35.927 41.1062 35.905C41.1273 35.8873 41.1465 35.8673 41.1634 35.8454C41.1763 35.8204 41.1826 35.7924 41.1817 35.7642C41.1808 35.736 41.1728 35.7085 41.1584 35.6845C41.1392 35.6478 41.1118 35.6055 41.1313 35.5688C41.1392 35.5562 41.1501 35.5459 41.163 35.539C41.2083 35.5159 41.2549 35.4958 41.3027 35.4788C41.3269 35.4701 41.3491 35.4563 41.368 35.4383C41.3868 35.4203 41.4019 35.3986 41.4122 35.3743C41.4336 35.3088 41.3972 35.2395 41.3623 35.1817L41.5342 35.1764C41.5427 35.1768 41.5511 35.1751 41.5589 35.1715C41.5651 35.1668 41.5701 35.1607 41.5734 35.1535C41.5767 35.1464 41.5783 35.1385 41.5779 35.1306C41.5776 35.089 41.5679 35.0482 41.5496 35.0111C41.5313 34.9741 41.505 34.942 41.4727 34.9172C41.46 34.9084 41.4503 34.8958 41.4448 34.8811C41.4429 34.8692 41.444 34.8569 41.448 34.8455L41.4787 34.726C41.4946 34.6639 41.4406 34.6071 41.3959 34.5623C41.3475 34.5218 41.3052 34.4741 41.2706 34.4207C41.2431 34.3677 41.2366 34.3041 41.2021 34.256C41.1742 34.217 41.1313 34.1928 41.1015 34.1558C41.0756 34.1203 41.0597 34.078 41.0556 34.0337C41.0515 33.9894 41.0593 33.9448 41.0782 33.9048C41.1174 33.8253 41.1794 33.7602 41.2557 33.7185C41.2823 33.7062 41.3055 33.6869 41.3227 33.6626C41.3479 33.6173 41.3227 33.559 41.2883 33.5181C41.2538 33.4772 41.218 33.4483 41.2259 33.403C41.2324 33.3654 41.2696 33.3438 41.3009 33.323C41.3081 33.3192 41.3141 33.3131 41.3181 33.3057C41.3288 33.2807 41.2948 33.2628 41.2761 33.2431C41.2586 33.2183 41.2508 33.1875 41.2543 33.1569C41.2543 33.0776 41.2574 32.9983 41.2636 32.919C41.2676 32.8939 41.2676 32.8684 41.2636 32.8434C41.2575 32.8272 41.2484 32.8125 41.2367 32.8002C41.225 32.7879 41.211 32.7781 41.1955 32.7715C41.1801 32.7648 41.1635 32.7615 41.1468 32.7617C41.1301 32.7619 41.1136 32.7656 41.0983 32.7725C41.0517 32.7933 41.0168 32.8414 40.9669 32.8563C40.8915 32.879 40.8174 32.7923 40.8095 32.7118C40.8099 32.6905 40.8068 32.6691 40.8002 32.6488C40.7886 32.632 40.7724 32.6192 40.7538 32.6118C40.7352 32.6045 40.7149 32.6029 40.6954 32.6073C40.6564 32.617 40.6157 32.6153 40.5775 32.6025C40.531 32.577 40.5165 32.512 40.5152 32.4557C40.5137 32.3993 40.5152 32.3367 40.4798 32.2943C40.4211 32.2254 40.2884 32.2418 40.259 32.1551C40.2497 32.1277 40.2553 32.0968 40.2446 32.0698C40.2231 32.015 40.1514 32.0063 40.0965 31.9986C39.9832 31.9831 39.8758 31.9378 39.7844 31.8671C39.7378 31.8315 39.6866 31.7872 39.6311 31.8025C39.5664 31.8203 39.5413 31.91 39.4775 31.9302C39.4331 31.9369 39.3878 31.9274 39.3494 31.9032C39.2595 31.8598 39.1596 31.8431 39.0611 31.855C39.012 31.8613 38.9651 31.88 38.9245 31.9093C38.8839 31.9385 38.8509 31.9777 38.8283 32.0232C38.8101 32.0641 38.8026 32.1093 38.7817 32.1488C38.7728 32.1695 38.7581 32.1867 38.7394 32.1983C38.7207 32.2098 38.699 32.2151 38.6773 32.2134C38.6578 32.207 38.6392 32.1981 38.6219 32.1869C38.5413 32.146 38.4445 32.1782 38.3671 32.225C38.2238 32.312 38.1121 32.4453 38.049 32.6045C37.9475 32.5563 37.9452 32.3983 37.8586 32.3242C37.8227 32.2933 37.7757 32.2798 37.7398 32.2495C37.7111 32.2243 37.6913 32.19 37.6835 32.1519C37.6757 32.1139 37.6802 32.0742 37.6965 32.039C37.7226 31.986 37.7757 31.9427 37.7784 31.8854C37.7784 31.8372 37.7463 31.7862 37.7659 31.7409C37.7817 31.7033 37.826 31.6927 37.859 31.6706C37.8921 31.6484 37.9196 31.5964 37.8879 31.5713C37.8562 31.4837 37.7635 31.437 37.675 31.4177C37.5866 31.3985 37.492 31.3946 37.4138 31.3479C37.3579 31.3147 37.3146 31.2622 37.2596 31.2275C37.1353 31.1485 36.9708 31.1721 36.8404 31.2424C36.799 31.265 36.7599 31.2906 36.717 31.3108C36.6675 31.3253 36.6204 31.3476 36.5773 31.3768C36.5386 31.411 36.5214 31.4798 36.5601 31.5145C36.4868 31.5155 36.414 31.5031 36.3449 31.478C36.3105 31.4651 36.2792 31.4446 36.2533 31.4178C36.2274 31.3912 36.2075 31.3589 36.1949 31.3233C36.1753 31.2564 36.1903 31.1788 36.16 31.1182C36.1409 31.0787 36.1055 31.0493 36.0883 31.0093C36.0789 30.9881 36.0799 30.9848 36.0743 30.9732C36.0435 30.9077 35.9537 30.887 35.9052 30.8769C35.8456 30.8644 35.8321 30.8716 35.644 30.8769C35.5182 30.8807 35.493 30.8768 35.4716 30.9024C35.4292 30.9505 35.4656 31.0305 35.4195 31.0738C35.4035 31.0853 35.3853 31.093 35.3661 31.0964C35.347 31.0997 35.3273 31.0986 35.3086 31.0931C35.2398 30.957 35.1531 30.8314 35.0511 30.7198C35.0123 30.6795 34.9716 30.6412 34.929 30.6052Z" fill="black" stroke="black"/>
</svg>
