<svg width="1440" height="2198" viewBox="0 0 1440 2198" fill="none" xmlns="http://www.w3.org/2000/svg">
<path d="M246.5 30C152.775 -22.0695 -65.5 -24.5 -80 175L-125 910.958L436.141 994H1377.7L1508 812.409C1496.35 704.022 1558.26 328.09 1531.5 348.5C1498.05 374.013 1432.22 283.753 1320 329.5C1176.5 388 1213.36 548.899 969.5 498C809 464.5 859.664 346.526 727.5 307C620.5 275 606.5 396 466 329.5C332.597 266.359 404 117.5 246.5 30Z" fill="#0071CC"/>
<path d="M1513 1658C1570.2 1585.6 1536.83 1484.5 1513 1443C961.833 1595.33 -619 1112.5 -74 1985C-16.8248 2076.53 101.5 2197.5 346 2197.5C590.5 2197.5 731.5 2053.5 747.5 1931C763.5 1808.5 799.315 1746.01 894 1684.5C996.668 1617.8 1135.5 1658 1207.5 1684.5C1279.5 1711 1441.5 1748.5 1513 1658Z" fill="#0071CC"/>
<rect y="791" width="1440" height="822" fill="#0071CC"/>
</svg>
