<svg width="1440" height="2198" viewBox="0 0 1440 2198" fill="none" xmlns="http://www.w3.org/2000/svg">
<path d="M246.5 30C152.775 -22.0695 -65.5 -24.5 -80 175L-125 910.958L436.141 994H1377.7L1508 812.409C1496.35 704.022 1558.26 328.09 1531.5 348.5C1498.05 374.013 1432.22 283.753 1320 329.5C1176.5 388 1213.36 548.899 969.5 498C809 464.5 859.664 346.526 727.5 307C620.5 275 606.5 396 466 329.5C332.597 266.359 404 117.5 246.5 30Z" fill="#0071CC"/>
<path d="M1513 1658C1570.2 1585.6 1536.83 1484.5 1513 1443C961.833 1595.33 -619 1112.5 -74 1985C-16.8248 2076.53 101.5 2197.5 346 2197.5C590.5 2197.5 731.5 2053.5 747.5 1931C763.5 1808.5 799.315 1746.01 894 1684.5C996.668 1617.8 1135.5 1658 1207.5 1684.5C1279.5 1711 1441.5 1748.5 1513 1658Z" fill="#0071CC"/>
<rect y="791" width="1440" height="822" fill="#0071CC"/>
<path d="M151.296 1776V1712.64H193.92V1724.35H164.256V1737.22H186.048V1748.26H164.256V1764.29H195.072V1776H151.296ZM206.327 1776V1712.64H227.063C237.175 1712.51 245.495 1715.42 252.023 1721.38C258.551 1727.26 261.751 1734.85 261.623 1744.13C261.751 1753.34 258.519 1760.99 251.927 1767.07C245.335 1773.15 237.047 1776.13 227.063 1776H206.327ZM219.287 1764.29H226.967C233.367 1764.29 238.519 1762.46 242.423 1758.82C246.327 1755.1 248.279 1750.21 248.279 1744.13C248.279 1737.98 246.359 1733.15 242.519 1729.63C238.679 1726.11 233.495 1724.35 226.967 1724.35H219.287V1764.29ZM272.033 1749.79V1712.64H284.993V1750.75C284.993 1755.3 286.273 1758.85 288.833 1761.41C291.393 1763.9 294.753 1765.15 298.913 1765.15C303.137 1765.15 306.497 1763.9 308.993 1761.41C311.553 1758.85 312.833 1755.3 312.833 1750.75V1712.64H325.793V1749.79C325.793 1758.05 323.265 1764.67 318.208 1769.66C313.153 1774.66 306.721 1777.15 298.913 1777.15C291.041 1777.15 284.577 1774.66 279.521 1769.66C274.529 1764.67 272.033 1758.05 272.033 1749.79ZM336.179 1744.32C336.051 1735.23 339.347 1727.46 346.067 1720.99C352.787 1714.46 360.755 1711.3 369.971 1711.49C375.987 1711.49 381.427 1712.9 386.291 1715.71C391.219 1718.46 395.091 1722.3 397.907 1727.23L388.115 1734.14C383.571 1727.04 377.523 1723.49 369.971 1723.49C364.083 1723.49 359.187 1725.47 355.283 1729.44C351.443 1733.41 349.523 1738.4 349.523 1744.42C349.523 1750.43 351.443 1755.39 355.283 1759.3C359.187 1763.2 364.083 1765.15 369.971 1765.15C377.523 1765.15 383.571 1761.6 388.115 1754.5L397.907 1761.41C395.155 1766.34 391.315 1770.21 386.387 1773.02C381.459 1775.78 375.955 1777.15 369.875 1777.15C360.595 1777.34 352.595 1774.21 345.875 1767.74C339.219 1761.22 335.987 1753.41 336.179 1744.32ZM448.88 1776L445.328 1767.74H419.408L415.856 1776H401.936L430.256 1711.49H434.576L462.8 1776H448.88ZM440.816 1757.09L432.368 1735.68L423.92 1757.09H440.816ZM478.538 1776V1724.35H458.282V1712.64H511.85V1724.35H491.498V1776H478.538ZM520.39 1776V1712.64H533.35V1776H520.39ZM544.211 1744.32C544.083 1735.3 547.347 1727.52 554.003 1720.99C560.723 1714.46 568.659 1711.3 577.811 1711.49C586.963 1711.3 594.899 1714.46 601.619 1720.99C608.403 1727.52 611.731 1735.3 611.603 1744.32C611.731 1753.34 608.403 1761.12 601.619 1767.65C594.899 1774.18 586.963 1777.34 577.811 1777.15C568.659 1777.34 560.723 1774.18 554.003 1767.65C547.347 1761.12 544.083 1753.34 544.211 1744.32ZM598.259 1744.32C598.259 1738.3 596.307 1733.34 592.403 1729.44C588.563 1725.47 583.731 1723.49 577.907 1723.49C572.019 1723.49 567.155 1725.44 563.315 1729.34C559.475 1733.25 557.555 1738.24 557.555 1744.32C557.555 1750.4 559.475 1755.39 563.315 1759.3C567.155 1763.2 572.019 1765.15 577.907 1765.15C583.731 1765.15 588.563 1763.2 592.403 1759.3C596.307 1755.39 598.259 1750.4 598.259 1744.32ZM663.569 1712.64H676.529V1777.15H672.209L635.537 1737.98V1776H622.577V1711.49H626.801L663.569 1750.46V1712.64ZM717.921 1776V1712.64H730.881V1776H717.921ZM786.382 1712.64H799.342V1777.15H795.022L758.35 1737.98V1776H745.39V1711.49H749.614L786.382 1750.46V1712.64ZM200.352 1878.38C200.352 1883.82 198.4 1888.3 194.496 1891.82C190.592 1895.27 185.6 1897 179.52 1897H151.296V1833.64H173.76C179.648 1833.64 184.448 1835.3 188.16 1838.63C191.936 1841.9 193.824 1846.12 193.824 1851.3C193.824 1855.98 192.256 1859.78 189.12 1862.73C196.608 1865.48 200.352 1870.7 200.352 1878.38ZM172.704 1844.78H163.776V1859.27H172.704C175.328 1859.27 177.344 1858.63 178.752 1857.35C180.224 1856.07 180.96 1854.28 180.96 1851.98C180.96 1849.74 180.224 1847.98 178.752 1846.7C177.344 1845.42 175.328 1844.78 172.704 1844.78ZM187.584 1877.9C187.584 1875.46 186.784 1873.54 185.184 1872.14C183.584 1870.66 181.376 1869.93 178.56 1869.93H163.776V1885.86H178.56C181.376 1885.86 183.584 1885.16 185.184 1883.75C186.784 1882.34 187.584 1880.39 187.584 1877.9ZM210.921 1897V1833.64H253.545V1845.35H223.881V1858.22H245.673V1869.26H223.881V1885.29H254.697V1897H210.921ZM265.952 1897V1833.64H278.912V1885.29H306.656V1897H265.952ZM357.192 1897L353.64 1888.74H327.72L324.168 1897H310.248L338.568 1832.49H342.888L371.112 1897H357.192ZM349.128 1878.09L340.68 1856.68L332.232 1878.09H349.128ZM433.237 1897H418.645L402.229 1874.63H392.725V1897H379.765V1833.64H403.573C410.229 1833.64 415.701 1835.53 419.989 1839.3C424.277 1843.08 426.421 1848.01 426.421 1854.09C426.421 1858.06 425.429 1861.64 423.445 1864.84C421.525 1867.98 418.805 1870.41 415.285 1872.14L433.237 1897ZM392.725 1845.06V1863.21H403.573C406.581 1863.21 408.917 1862.38 410.581 1860.71C412.309 1859.05 413.173 1856.84 413.173 1854.09C413.173 1851.4 412.277 1849.22 410.485 1847.56C408.757 1845.9 406.453 1845.06 403.573 1845.06H392.725ZM438.72 1870.79V1833.64H451.68V1871.75C451.68 1876.3 452.96 1879.85 455.52 1882.41C458.08 1884.9 461.44 1886.15 465.6 1886.15C469.824 1886.15 473.184 1884.9 475.68 1882.41C478.24 1879.85 479.52 1876.3 479.52 1871.75V1833.64H492.48V1870.79C492.48 1879.05 489.952 1885.67 484.896 1890.66C479.84 1895.66 473.408 1898.15 465.6 1898.15C457.728 1898.15 451.264 1895.66 446.208 1890.66C441.216 1885.67 438.72 1879.05 438.72 1870.79ZM501.63 1884.14L510.558 1877.42C515.038 1883.56 520.222 1886.63 526.11 1886.63C528.926 1886.63 531.134 1886.02 532.734 1884.81C534.334 1883.53 535.134 1881.8 535.134 1879.62C535.134 1877.83 534.59 1876.46 533.502 1875.5C532.414 1874.47 530.27 1873.22 527.07 1871.75L520.254 1868.68C510.014 1864.14 504.894 1858.06 504.894 1850.44C504.894 1845.06 506.878 1840.74 510.846 1837.48C514.814 1834.15 519.838 1832.49 525.918 1832.49C530.654 1832.49 534.814 1833.58 538.398 1835.75C541.982 1837.86 544.798 1840.78 546.846 1844.49L538.014 1851.3C534.75 1846.44 530.718 1844.01 525.918 1844.01C523.614 1844.01 521.726 1844.55 520.254 1845.64C518.782 1846.73 518.046 1848.23 518.046 1850.15C518.046 1851.75 518.558 1853.06 519.582 1854.09C520.67 1855.05 522.622 1856.17 525.438 1857.45L532.638 1860.62C538.078 1863.05 542.046 1865.7 544.542 1868.58C547.038 1871.4 548.286 1874.92 548.286 1879.14C548.286 1884.84 546.206 1889.45 542.046 1892.97C537.886 1896.42 532.574 1898.15 526.11 1898.15C520.798 1898.15 515.998 1896.9 511.71 1894.41C507.486 1891.91 504.126 1888.49 501.63 1884.14ZM586.577 1897V1833.64H628.241V1845.35H599.537V1861.19H623.057V1872.9H599.537V1897H586.577ZM633.836 1865.32C633.708 1856.3 636.972 1848.52 643.628 1841.99C650.348 1835.46 658.284 1832.3 667.436 1832.49C676.588 1832.3 684.524 1835.46 691.244 1841.99C698.028 1848.52 701.356 1856.3 701.228 1865.32C701.356 1874.34 698.028 1882.12 691.244 1888.65C684.524 1895.18 676.588 1898.34 667.436 1898.15C658.284 1898.34 650.348 1895.18 643.628 1888.65C636.972 1882.12 633.708 1874.34 633.836 1865.32ZM687.884 1865.32C687.884 1859.3 685.932 1854.34 682.028 1850.44C678.188 1846.47 673.356 1844.49 667.532 1844.49C661.644 1844.49 656.78 1846.44 652.94 1850.34C649.1 1854.25 647.18 1859.24 647.18 1865.32C647.18 1871.4 649.1 1876.39 652.94 1880.3C656.78 1884.2 661.644 1886.15 667.532 1886.15C673.356 1886.15 678.188 1884.2 682.028 1880.3C685.932 1876.39 687.884 1871.4 687.884 1865.32ZM765.674 1897H751.082L734.666 1874.63H725.162V1897H712.202V1833.64H736.01C742.666 1833.64 748.138 1835.53 752.426 1839.3C756.714 1843.08 758.858 1848.01 758.858 1854.09C758.858 1858.06 757.866 1861.64 755.882 1864.84C753.962 1867.98 751.242 1870.41 747.722 1872.14L765.674 1897ZM725.162 1845.06V1863.21H736.01C739.018 1863.21 741.354 1862.38 743.018 1860.71C744.746 1859.05 745.61 1856.84 745.61 1854.09C745.61 1851.4 744.714 1849.22 742.922 1847.56C741.194 1845.9 738.89 1845.06 736.01 1845.06H725.162ZM147.648 1986.32C147.52 1977.23 150.816 1969.46 157.536 1962.99C164.256 1956.46 172.224 1953.3 181.44 1953.49C187.456 1953.49 192.896 1954.9 197.76 1957.71C202.688 1960.46 206.56 1964.3 209.376 1969.23L199.584 1976.14C195.04 1969.04 188.992 1965.49 181.44 1965.49C175.552 1965.49 170.656 1967.47 166.752 1971.44C162.912 1975.41 160.992 1980.4 160.992 1986.42C160.992 1992.43 162.912 1997.39 166.752 2001.3C170.656 2005.2 175.552 2007.15 181.44 2007.15C188.992 2007.15 195.04 2003.6 199.584 1996.5L209.376 2003.41C206.624 2008.34 202.784 2012.21 197.856 2015.02C192.928 2017.78 187.424 2019.15 181.344 2019.15C172.064 2019.34 164.064 2016.21 157.344 2009.74C150.688 2003.22 147.456 1995.41 147.648 1986.32ZM220.39 2018V1954.64H233.35V2018H220.39ZM262.163 2018V1966.35H241.907V1954.64H295.475V1966.35H275.123V2018H262.163ZM304.015 2018V1954.64H316.975V2018H304.015ZM346.076 2006.29H377.948V2018H326.108V2014.54L357.884 1966.35H330.236V1954.64H377.852V1958.1L346.076 2006.29ZM387.921 2018V1954.64H430.545V1966.35H400.881V1979.22H422.673V1990.26H400.881V2006.29H431.697V2018H387.921ZM483.944 1954.64H496.904V2019.15H492.584L455.912 1979.98V2018H442.952V1953.49H447.176L483.944 1992.46V1954.64ZM506.974 2005.14L515.902 1998.42C520.382 2004.56 525.566 2007.63 531.454 2007.63C534.27 2007.63 536.478 2007.02 538.078 2005.81C539.678 2004.53 540.478 2002.8 540.478 2000.62C540.478 1998.83 539.934 1997.46 538.846 1996.5C537.758 1995.47 535.614 1994.22 532.414 1992.75L525.598 1989.68C515.358 1985.14 510.238 1979.06 510.238 1971.44C510.238 1966.06 512.222 1961.74 516.19 1958.48C520.158 1955.15 525.182 1953.49 531.262 1953.49C535.998 1953.49 540.158 1954.58 543.742 1956.75C547.326 1958.86 550.142 1961.78 552.19 1965.49L543.358 1972.3C540.094 1967.44 536.062 1965.01 531.262 1965.01C528.958 1965.01 527.07 1965.55 525.598 1966.64C524.126 1967.73 523.39 1969.23 523.39 1971.15C523.39 1972.75 523.902 1974.06 524.926 1975.09C526.014 1976.05 527.966 1977.17 530.782 1978.45L537.982 1981.62C543.422 1984.05 547.39 1986.7 549.886 1989.58C552.382 1992.4 553.63 1995.92 553.63 2000.14C553.63 2005.84 551.55 2010.45 547.39 2013.97C543.23 2017.42 537.918 2019.15 531.454 2019.15C526.142 2019.15 521.342 2017.9 517.054 2015.41C512.83 2012.91 509.47 2009.49 506.974 2005.14Z" fill="white"/>
<path d="M800.515 1897V1833.64H842.179V1845.35H813.475V1861.19H836.995V1872.9H813.475V1897H800.515ZM847.773 1865.32C847.645 1856.3 850.909 1848.52 857.565 1841.99C864.285 1835.46 872.221 1832.3 881.373 1832.49C890.525 1832.3 898.461 1835.46 905.181 1841.99C911.965 1848.52 915.293 1856.3 915.165 1865.32C915.293 1874.34 911.965 1882.12 905.181 1888.65C898.461 1895.18 890.525 1898.34 881.373 1898.15C872.221 1898.34 864.285 1895.18 857.565 1888.65C850.909 1882.12 847.645 1874.34 847.773 1865.32ZM901.821 1865.32C901.821 1859.3 899.869 1854.34 895.965 1850.44C892.125 1846.47 887.293 1844.49 881.469 1844.49C875.581 1844.49 870.717 1846.44 866.877 1850.34C863.037 1854.25 861.117 1859.24 861.117 1865.32C861.117 1871.4 863.037 1876.39 866.877 1880.3C870.717 1884.2 875.581 1886.15 881.469 1886.15C887.293 1886.15 892.125 1884.2 895.965 1880.3C899.869 1876.39 901.821 1871.4 901.821 1865.32ZM979.612 1897H965.02L948.604 1874.63H939.1V1897H926.14V1833.64H949.948C956.604 1833.64 962.076 1835.53 966.364 1839.3C970.652 1843.08 972.796 1848.01 972.796 1854.09C972.796 1858.06 971.804 1861.64 969.82 1864.84C967.9 1867.98 965.18 1870.41 961.66 1872.14L979.612 1897ZM939.1 1845.06V1863.21H949.948C952.956 1863.21 955.292 1862.38 956.956 1860.71C958.684 1859.05 959.548 1856.84 959.548 1854.09C959.548 1851.4 958.652 1849.22 956.86 1847.56C955.132 1845.9 952.828 1845.06 949.948 1845.06H939.1ZM987.546 1897V1833.64H1030.17V1845.35H1000.51V1858.22H1022.3V1869.26H1000.51V1885.29H1031.32V1897H987.546ZM1042.58 1897V1833.64H1055.54V1897H1042.58ZM1066.4 1865.32C1066.21 1856.23 1069.44 1848.46 1076.09 1841.99C1082.81 1835.53 1090.88 1832.36 1100.29 1832.49C1111.61 1832.49 1120.51 1837.06 1126.97 1846.22L1117.76 1853.8C1113.28 1847.59 1107.39 1844.49 1100.09 1844.49C1094.08 1844.49 1089.18 1846.44 1085.41 1850.34C1081.63 1854.25 1079.74 1859.24 1079.74 1865.32C1079.74 1871.53 1081.69 1876.62 1085.6 1880.58C1089.5 1884.55 1094.59 1886.54 1100.86 1886.54C1108.22 1886.54 1113.79 1883.91 1117.57 1878.66V1873.48H1100.09V1862.25H1130.53V1880.97C1127.58 1886.15 1123.45 1890.31 1118.14 1893.45C1112.89 1896.58 1106.94 1898.15 1100.29 1898.15C1091.01 1898.34 1083.01 1895.21 1076.29 1888.74C1069.57 1882.22 1066.27 1874.41 1066.4 1865.32ZM1182.76 1833.64H1195.72V1898.15H1191.4L1154.72 1858.98V1897H1141.76V1832.49H1145.99L1182.76 1871.46V1833.64Z" fill="black"/>
</svg>
