<svg width="157" height="55" viewBox="0 0 157 55" fill="none" xmlns="http://www.w3.org/2000/svg">
<g clip-path="url(#clip0_3_4)">
<path d="M67.3668 10.4984L67.1654 13.2122C66.6356 12.9789 66.1189 12.8023 65.6173 12.6821C65.115 12.562 64.6484 12.5019 64.2174 12.5019C63.5525 12.5019 63.0365 12.6362 62.6693 12.9047C62.3085 13.1733 62.1282 13.5514 62.1282 14.0391C62.1282 14.4914 62.2802 14.873 62.5842 15.1839C62.8882 15.4949 63.5106 15.873 64.4507 16.3182C66.0201 17.0744 67.0346 17.767 67.4944 18.396C67.961 19.025 68.1943 19.8519 68.1943 20.8766C68.1943 22.3254 67.7171 23.4702 66.7626 24.3112C65.808 25.1522 64.5039 25.5728 62.8494 25.5728C62.2766 25.5728 61.6757 25.5163 61.0464 25.4031C60.4172 25.2971 59.735 25.1346 58.9997 24.9155L59.2648 22.2017C59.9011 22.5127 60.5021 22.7423 61.0677 22.8907C61.6333 23.0392 62.1777 23.1134 62.7006 23.1134C63.3867 23.1134 63.9203 22.9579 64.3025 22.6469C64.6909 22.3289 64.8854 21.8907 64.8854 21.3324C64.8854 20.5479 64.0829 19.7494 62.4781 18.9366C62.2802 18.8377 62.1317 18.7635 62.0327 18.714C60.7601 18.0709 59.9117 17.449 59.4875 16.8482C59.0633 16.2476 58.8512 15.4772 58.8512 14.5373C58.8512 13.1238 59.3143 12.0143 60.2405 11.2086C61.1737 10.4029 62.464 10.0001 64.1111 10.0001C64.6133 10.0001 65.1331 10.0426 65.6704 10.1273C66.2077 10.2051 66.7732 10.3287 67.3668 10.4984Z" fill="black"/>
<path d="M71.0772 10.2651H81.1096V12.9578H77.8326V25.3289H74.3542V12.9578H71.0772V10.2651Z" fill="black"/>
<path d="M84.6499 10.2651H88.1283V19.9013C88.1283 21.0816 88.2803 21.8978 88.5843 22.3501C88.8883 22.8025 89.4081 23.0286 90.143 23.0286C90.8924 23.0286 91.4197 22.8025 91.7237 22.3501C92.0345 21.8908 92.1903 21.0745 92.1903 19.9013V10.2651H95.4879V19.5091C95.4879 21.5727 95.0425 23.0993 94.1518 24.0886C93.268 25.0781 91.9038 25.5728 90.0586 25.5728C88.2202 25.5728 86.8592 25.0816 85.9753 24.0993C85.0915 23.1098 84.6499 21.5798 84.6499 19.5091V10.2651Z" fill="black"/>
<path d="M103.589 12.7776V22.7848H104.045C105.48 22.7848 106.558 22.3678 107.279 21.5339C108.007 20.6999 108.371 19.4526 108.371 17.7918C108.371 16.0886 108.015 14.8271 107.3 14.0073C106.594 13.1874 105.508 12.7776 104.045 12.7776H103.589ZM100.132 10.2651H103.981C106.724 10.2651 108.75 10.8764 110.058 12.0991C111.366 13.3218 112.02 15.2193 112.02 17.7918C112.02 20.2441 111.334 22.1134 109.963 23.3996C108.591 24.6858 106.597 25.3289 103.981 25.3289H100.132V10.2651Z" fill="black"/>
<path d="M113.81 10.2651H117.734L120.131 16.5833L122.538 10.2651H126.229L121.753 19.6363V25.3289H118.285V19.5091L113.81 10.2651Z" fill="black"/>
<path d="M136.396 10.2651H139.853V25.3289H136.396V10.2651Z" fill="black"/>
<path d="M144.581 10.2651H148.558L153.097 21.2476V10.2651H156.056V25.3289H152.079L147.519 14.3253V25.3289H144.581V10.2651Z" fill="black"/>
<path d="M62.962 40.8843V45.0918H63.8421C64.7328 45.0918 65.3783 44.9285 65.7792 44.602C66.1802 44.2755 66.381 43.7486 66.381 43.0214C66.381 42.2645 66.1802 41.7191 65.7792 41.3852C65.3858 41.0513 64.7403 40.8843 63.8421 40.8843H62.962ZM62.962 34.5842V38.4355H63.7751C64.577 38.4355 65.1556 38.2871 65.5121 37.9903C65.8762 37.6934 66.0576 37.2111 66.0576 36.5433C66.0576 35.8531 65.8762 35.3559 65.5121 35.0517C65.1481 34.74 64.547 34.5842 63.7082 34.5842H62.962ZM59.488 31.9462H64.3543C66.1133 31.9462 67.4162 32.2727 68.2625 32.9257C69.1163 33.5787 69.5429 34.5879 69.5429 35.9533C69.5429 36.9254 69.2945 37.7194 68.7973 38.3353C68.3069 38.9512 67.5982 39.3519 66.6699 39.5374C67.7539 39.7304 68.5596 40.1496 69.0869 40.7953C69.621 41.4408 69.8881 42.3276 69.8881 43.4555C69.8881 44.9248 69.4246 46.0119 68.4964 46.7169C67.5757 47.4144 66.1395 47.7632 64.1873 47.7632H59.488V31.9462Z" fill="black"/>
<path d="M74.0734 31.9462H83.0818V34.5842H77.7038V38.3687H82.7922V41.0178H77.7038V45.0918H83.3382V47.7632H74.0734V31.9462Z" fill="black"/>
<path d="M87.768 31.9462H91.3984V44.8914H96.5763V47.7632H87.768V31.9462Z" fill="black"/>
<path d="M106.562 35.0628L104.67 41.4965H108.244L106.562 35.0628ZM104.525 31.9462H108.723L113.634 47.7632H109.87L108.957 44.2347H103.868L102.91 47.7632H99.3804L104.525 31.9462Z" fill="black"/>
<path d="M120.413 34.5842V38.6469H121.181C122.087 38.6469 122.736 38.4911 123.13 38.1795C123.523 37.8678 123.72 37.3632 123.72 36.6657C123.72 35.9014 123.538 35.3634 123.175 35.0517C122.818 34.74 122.172 34.5842 121.237 34.5842H120.413ZM116.85 31.9462H120.591C120.784 31.9462 120.981 31.9424 121.181 31.9351C121.382 31.9276 121.489 31.924 121.504 31.924C123.516 31.924 124.979 32.2653 125.892 32.948C126.812 33.6233 127.273 34.7029 127.273 36.1871C127.273 37.1591 127.02 37.9606 126.515 38.5913C126.01 39.2221 125.275 39.6562 124.31 39.8936C124.786 40.0124 125.16 40.235 125.435 40.5615C125.717 40.888 126.003 41.5039 126.292 42.4092L128.029 47.7632H124.288L123.03 43.2774C122.807 42.4611 122.559 41.9269 122.284 41.6746C122.017 41.4149 121.619 41.285 121.093 41.285H120.413V47.7632H116.85V31.9462Z" fill="black"/>
<path d="M131.524 31.9462H135.177V42.0641C135.177 43.3034 135.336 44.1605 135.655 44.6354C135.974 45.1103 136.521 45.3478 137.292 45.3478C138.079 45.3478 138.632 45.1103 138.952 44.6354C139.278 44.1531 139.442 43.2959 139.442 42.0641V31.9462H142.904V41.6523C142.904 43.8191 142.437 45.422 141.501 46.4609C140.574 47.4998 139.141 48.0192 137.204 48.0192C135.273 48.0192 133.844 47.5035 132.916 46.472C131.988 45.4331 131.524 43.8266 131.524 41.6523V31.9462Z" fill="black"/>
<path d="M156.132 32.1911L155.92 35.0406C155.363 34.7957 154.821 34.6102 154.294 34.484C153.767 34.3579 153.277 34.2948 152.824 34.2948C152.127 34.2948 151.584 34.4358 151.199 34.7178C150.82 34.9998 150.631 35.3968 150.631 35.9088C150.631 36.3837 150.79 36.7844 151.11 37.1109C151.429 37.4374 152.082 37.8344 153.069 38.3019C154.718 39.0959 155.783 39.8231 156.265 40.4836C156.755 41.144 157 42.0122 157 43.0882C157 44.6094 156.499 45.8116 155.497 46.6946C154.495 47.5776 153.125 48.0192 151.388 48.0192C150.786 48.0192 150.156 47.9598 149.495 47.8411C148.834 47.7298 148.118 47.5591 147.346 47.3291L147.624 44.4796C148.292 44.8061 148.924 45.0473 149.517 45.2031C150.111 45.3589 150.682 45.4368 151.232 45.4368C151.952 45.4368 152.513 45.2736 152.914 44.9471C153.321 44.6131 153.526 44.1531 153.526 43.5668C153.526 42.7431 152.683 41.9046 150.998 41.0513C150.79 40.9474 150.634 40.8694 150.53 40.8175C149.194 40.1422 148.304 39.4892 147.858 38.8584C147.412 38.2277 147.19 37.4189 147.19 36.4319C147.19 34.9478 147.676 33.7828 148.648 32.9368C149.629 32.0909 150.983 31.6679 152.713 31.6679C153.24 31.6679 153.786 31.7124 154.35 31.8015C154.914 31.8831 155.508 32.0129 156.132 32.1911Z" fill="black"/>
<path fill-rule="evenodd" clip-rule="evenodd" d="M25.3371 19.5016C28.4709 19.5002 31.5347 20.4184 34.1412 22.1401C36.7476 23.8618 38.7798 26.3097 39.9805 29.1743C41.1812 32.0389 41.4967 35.1915 40.887 38.2335C40.2773 41.2755 38.7699 44.0703 36.5553 46.2646C34.3407 48.4588 31.5183 49.9538 28.4451 50.5607C25.372 51.1676 22.186 50.859 19.29 49.674C16.3941 48.489 13.9181 46.4808 12.1754 43.9034C10.4326 41.3259 9.50131 38.2949 9.49913 35.1936C9.49769 33.1341 9.9062 31.0944 10.7014 29.1911C11.4966 27.2878 12.6629 25.5581 14.1336 24.1009C15.6044 22.6438 17.3508 21.4876 19.2731 20.6984C21.1954 19.9093 23.256 19.5026 25.3371 19.5016ZM0 10.6379L25.3371 0L50.6779 10.6379L36.2257 16.6898V18.5256C39.8608 20.8474 42.6384 24.2717 44.143 28.286C45.6476 32.3003 45.7983 36.6888 44.5725 40.7949C43.3467 44.9011 40.8104 48.504 37.3429 51.0646C33.8755 53.6253 29.6635 55.0059 25.3371 55C6.37551 55 -1.85143 31.257 12.8721 19.6576V16.0294L6.74581 13.4716C6.74581 12.7133 6.89612 11.6828 6.50749 11.6828C6.04923 11.6828 6.26918 14.4004 6.26918 14.7922V20.0204C8.66321 21.0291 6.0639 25.3503 5.60195 26.417C5.15101 25.3285 2.57367 21.0218 4.96404 20.0204V12.7241L0 10.6379Z" fill="#45525F"/>
<path fill-rule="evenodd" clip-rule="evenodd" d="M25.3371 19.5016C28.4709 19.5002 31.5347 20.4184 34.1412 22.1401C36.7476 23.8618 38.7798 26.3097 39.9805 29.1743C41.1812 32.0389 41.4967 35.1915 40.887 38.2335C40.2773 41.2755 38.7699 44.0703 36.5553 46.2646C34.3407 48.4588 31.5183 49.9538 28.4451 50.5607C25.372 51.1676 22.186 50.859 19.29 49.674C16.3941 48.489 13.9181 46.4808 12.1754 43.9034C10.4326 41.3259 9.50131 38.2949 9.49913 35.1936C9.49769 33.1341 9.9062 31.0944 10.7014 29.1911C11.4966 27.2878 12.6629 25.5581 14.1336 24.1009C15.6044 22.6438 17.3508 21.4876 19.2731 20.6984C21.1954 19.9093 23.256 19.5026 25.3371 19.5016ZM0 10.6379L25.3371 0L50.6779 10.6379L36.2257 16.6898V18.5256C39.8608 20.8474 42.6384 24.2717 44.143 28.286C45.6476 32.3003 45.7983 36.6888 44.5725 40.7949C43.3467 44.9011 40.8104 48.504 37.3429 51.0646C33.8755 53.6253 29.6635 55.0059 25.3371 55C6.37551 55 -1.85143 31.257 12.8721 19.6576V16.0294L6.74581 13.4716C6.74581 12.7133 6.89612 11.6828 6.50749 11.6828C6.04923 11.6828 6.26918 14.4004 6.26918 14.7922V20.0204C8.66321 21.0291 6.0639 25.3503 5.60195 26.417C5.15101 25.3285 2.57367 21.0218 4.96404 20.0204V12.7241L0 10.6379Z" fill="black"/>
<path d="M25.929 24.6053C25.8714 24.6806 25.7953 24.7387 25.7087 24.7734C25.6118 24.8099 25.5331 24.7969 25.4758 24.8697C25.4524 24.9058 25.4325 24.9444 25.4167 24.9848C25.379 25.058 25.3162 25.114 25.2406 25.1418C25.2127 25.1519 25.1787 25.1625 25.1708 25.1899C25.1689 25.2106 25.1711 25.2314 25.1773 25.2511C25.1913 25.3561 25.0562 25.3994 24.9668 25.4515C24.9168 25.4844 24.8737 25.5275 24.8403 25.5782C24.8069 25.6289 24.7839 25.6861 24.7726 25.7463C24.7507 25.8667 24.7449 25.9897 24.7553 26.1118C24.5689 26.1429 24.3788 26.1429 24.1922 26.1118L24.1881 26.0439C24.1606 26.036 24.1312 26.0397 24.1064 26.0541C24.0815 26.0686 24.0631 26.0926 24.0553 26.1209C23.9249 26.0795 23.8183 25.9721 23.6827 25.9461C23.5141 25.9138 23.3497 26.0188 23.2235 26.1388C23.1924 26.1646 23.1676 26.1976 23.1509 26.2351C23.1439 26.2579 23.1384 26.2813 23.1345 26.3049C23.1121 26.389 23.0586 26.4606 22.9856 26.5044C22.9127 26.5481 22.826 26.5606 22.7443 26.539C22.6674 26.5144 22.578 26.4609 22.516 26.5139C22.4727 26.5511 22.4741 26.6204 22.4918 26.6758C22.5158 26.7283 22.5329 26.7838 22.5426 26.841C22.5472 26.9421 22.4704 27.024 22.4089 27.103C22.3475 27.1819 22.2972 27.2956 22.3545 27.3789C22.3675 27.3978 22.3866 27.4156 22.3861 27.4391C22.3861 27.4873 22.3139 27.4873 22.2729 27.5085C22.1845 27.5567 22.2534 27.7089 22.2031 27.7975C22.183 27.8336 22.1444 27.8563 22.1258 27.8938C22.1133 27.9251 22.1125 27.9602 22.1235 27.9921C22.1345 28.024 22.1566 28.0506 22.1854 28.0667C22.2452 28.0962 22.3136 28.1012 22.3768 28.0807C22.4166 28.0668 22.4579 28.0579 22.4998 28.0542C22.5327 28.0556 22.5653 28.0618 22.5966 28.0725L22.7624 28.1206C22.8235 28.1385 22.897 28.1727 22.897 28.2382C22.897 28.2964 22.8355 28.3345 22.7806 28.3451C22.7256 28.3557 22.6642 28.3586 22.6217 28.3971C22.5794 28.4356 22.5687 28.5171 22.5715 28.584C22.5778 28.6438 22.575 28.7043 22.5631 28.7631C22.5568 28.7926 22.5426 28.8196 22.5221 28.8411C22.5017 28.8626 22.4759 28.8778 22.4476 28.885C22.419 28.8858 22.3906 28.8807 22.3639 28.8699C22.3373 28.8592 22.313 28.843 22.2925 28.8224C22.2514 28.7808 22.1992 28.7529 22.1425 28.7424C22.0853 28.7391 22.0238 28.7978 22.0461 28.8523C21.9604 28.8108 21.8668 28.7704 21.7741 28.7901C21.6814 28.8099 21.6009 28.9158 21.6409 29.0044C21.5426 29.1379 21.572 29.3478 21.4392 29.4437C21.3759 29.4894 21.2939 29.4918 21.2189 29.5126C21.144 29.5333 21.0559 29.5761 20.9731 29.5607C20.9372 29.554 20.9036 29.5371 20.8683 29.5294C20.8507 29.5241 20.8321 29.5236 20.8144 29.5279C20.7966 29.5323 20.7801 29.5412 20.7667 29.554C20.7295 29.5978 20.7541 29.6715 20.7234 29.7201C20.6926 29.7688 20.6345 29.7683 20.5939 29.802C20.5194 29.8613 20.5395 29.9788 20.5408 30.0761C20.5422 30.0907 20.5395 30.1054 20.5329 30.1184C20.5161 30.1459 20.4775 30.1439 20.4481 30.1551C20.3848 30.1796 20.3699 30.2658 20.3806 30.3347C20.3913 30.4036 20.4174 30.4739 20.3992 30.5408C20.3872 30.5851 20.3564 30.6227 20.3447 30.6675C20.3243 30.7469 20.3676 30.8269 20.402 30.9011C20.4365 30.9753 20.4612 31.0696 20.4118 31.1342C20.3624 31.1988 20.2516 31.1973 20.1971 31.2628C20.1589 31.3109 20.1557 31.3789 20.1142 31.4218C20.1319 31.5412 20.1338 31.6626 20.0737 31.768C20.0462 31.8088 20.015 31.8469 19.9806 31.8817C19.9172 31.9554 19.8679 32.07 19.9256 32.1485C19.9411 32.1676 19.9608 32.1826 19.9831 32.1922C20.0054 32.2018 20.0296 32.2056 20.0537 32.2034C20.1019 32.1986 20.148 32.1803 20.1869 32.1504C20.2236 32.1244 20.2665 32.0907 20.3075 32.1081C20.3411 32.1451 20.2786 32.2044 20.2945 32.2525C20.3103 32.3007 20.3876 32.2829 20.4393 32.3007C20.4339 32.3206 20.4328 32.3415 20.4359 32.362C20.4391 32.3824 20.4464 32.4019 20.4575 32.4192C20.47 32.4384 20.4882 32.4577 20.4859 32.4808C20.4835 32.5039 20.4631 32.5184 20.4486 32.5353C20.4076 32.5834 20.4155 32.6586 20.4384 32.7188C20.4456 32.7338 20.4496 32.7502 20.45 32.7669C20.4472 32.8069 20.4034 32.8286 20.3634 32.8305C20.3249 32.8265 20.2859 32.8294 20.2484 32.8391C20.23 32.8492 20.2124 32.8606 20.1957 32.8733C20.1025 32.9311 19.9861 32.8859 19.8883 32.8401C19.8512 32.827 19.8188 32.8027 19.7952 32.7703C19.7898 32.7621 19.7862 32.7528 19.7845 32.7429C19.7829 32.7331 19.7833 32.7231 19.7857 32.7134C19.7882 32.7038 19.7926 32.6949 19.7986 32.6871C19.8046 32.6794 19.8122 32.6731 19.8208 32.6686C19.8308 32.6671 19.8405 32.664 19.8497 32.6595C19.8706 32.6446 19.858 32.6113 19.8408 32.5911C19.8236 32.5709 19.8012 32.5497 19.8083 32.5246C19.8152 32.4996 19.8576 32.4924 19.8888 32.4924C19.92 32.4924 19.961 32.4688 19.9479 32.4394C19.9424 32.4301 19.9345 32.4226 19.9251 32.4178C19.8824 32.3894 19.8484 32.3491 19.8268 32.3016C19.8155 32.2699 19.8021 32.2391 19.7868 32.2092C19.779 32.1943 19.7673 32.1818 19.7531 32.1733C19.7389 32.1648 19.7226 32.1606 19.7062 32.161C19.6494 32.1688 19.635 32.2448 19.6061 32.2959C19.5824 32.3304 19.5501 32.3577 19.5126 32.3746C19.4751 32.3916 19.4338 32.3977 19.3932 32.3922C19.3115 32.3806 19.2325 32.3534 19.1604 32.3118C19.0789 32.3551 19.0719 32.4476 19.0476 32.5391C19.0142 32.6611 18.9361 32.7649 18.8297 32.8281C18.7542 32.8729 18.6495 32.8907 18.5866 32.8281C18.5693 32.8112 18.5568 32.7896 18.54 32.7736C18.5142 32.7555 18.4845 32.7441 18.4535 32.7405C18.4225 32.7369 18.3911 32.7412 18.3621 32.7529C18.3042 32.7771 18.2428 32.7914 18.1805 32.7953V32.8893C18.1153 32.8758 18.078 32.9731 18.1018 33.0376C18.1255 33.1021 18.1805 33.1503 18.201 33.2158C18.2419 33.3468 18.1115 33.4874 17.9783 33.4845C17.9127 33.4845 17.8386 33.4417 17.8362 33.3743C17.8181 33.3658 17.7985 33.3613 17.7786 33.3608C17.7587 33.3603 17.7389 33.3639 17.7203 33.3713C17.5713 33.4174 17.4371 33.5043 17.3318 33.6228C17.2977 33.6678 17.2581 33.7081 17.2141 33.7427C17.1917 33.7598 17.1651 33.7699 17.1375 33.7721C17.1098 33.7742 17.0821 33.7682 17.0576 33.7547C17.0277 33.7345 17.0054 33.6974 16.97 33.695C16.9346 33.6926 16.9034 33.7292 16.867 33.7273C16.8205 33.7273 16.8005 33.6671 16.7888 33.6208C16.7773 33.5578 16.7482 33.4997 16.705 33.4537C16.6828 33.4314 16.6539 33.4179 16.623 33.4154C16.5923 33.413 16.5616 33.4218 16.5364 33.4402C16.501 33.472 16.4898 33.5288 16.446 33.55C16.4268 33.5579 16.4061 33.5611 16.3855 33.5592C16.2828 33.5565 16.1818 33.5324 16.0884 33.4884C16.06 33.4712 16.028 33.4616 15.9952 33.4604C15.9295 33.4653 15.8811 33.5443 15.8159 33.5356C15.7837 33.5313 15.7572 33.5057 15.7251 33.4994C15.6929 33.4932 15.6524 33.5298 15.6738 33.5553L15.4926 33.5072C15.4884 33.5703 15.4126 33.6035 15.353 33.5905C15.2953 33.5697 15.2423 33.5369 15.1974 33.4942C15.1748 33.4728 15.1479 33.4569 15.1187 33.4476C15.0894 33.4384 15.0586 33.436 15.0283 33.4407C14.985 33.4889 14.9971 33.5635 15.0236 33.6213C15.0563 33.6759 15.0794 33.7361 15.0917 33.799C15.1103 33.9122 15.0404 33.9378 15.059 34.0369C15.0777 34.1362 15.1489 34.1381 15.182 34.2446C15.2081 34.3293 15.182 34.389 15.1699 34.4733C15.1578 34.5576 15.1699 34.5942 15.2355 34.9015C15.3376 35.3884 15.3264 35.4255 15.3911 35.5796C15.4423 35.7005 15.4615 35.7068 15.4815 35.7915C15.5131 35.9264 15.508 36.0959 15.5397 36.2144C15.5481 36.2483 15.5612 36.2808 15.5788 36.3107C15.5928 36.3324 15.611 36.3507 15.6254 36.3733C15.6437 36.4194 15.6551 36.4681 15.6594 36.5178C15.6746 36.5629 15.7055 36.6004 15.746 36.6233C15.8243 36.6777 15.8168 36.8208 15.7717 36.9065C15.7495 36.9397 15.7295 36.9743 15.7116 37.01C15.7012 37.0461 15.6993 37.0843 15.706 37.1213C15.7127 37.1583 15.7279 37.1931 15.7502 37.2229C15.7698 37.2486 15.7872 37.276 15.8024 37.3048C15.8101 37.3196 15.8141 37.3361 15.8141 37.3529C15.8141 37.3698 15.8101 37.3863 15.8024 37.4011C15.7926 37.417 15.7767 37.43 15.773 37.4493C15.7679 37.4758 15.7898 37.4974 15.7982 37.5239C15.8154 37.5759 15.7754 37.6275 15.7591 37.68C15.7381 37.7479 15.7591 37.8206 15.7675 37.8909C15.7778 37.9773 15.7812 38.0645 15.7777 38.1515C15.7806 38.3086 15.768 38.4656 15.74 38.6201C15.5971 38.685 15.4691 38.7802 15.3641 38.8994C15.3453 38.9219 15.3236 38.9416 15.2993 38.9578C15.2467 38.99 15.1811 38.9818 15.1196 38.9818C14.9797 38.9891 14.8427 39.026 14.7172 39.0902C14.6321 39.1254 14.5519 39.1723 14.4788 39.2294C14.366 39.3228 14.2901 39.4543 14.2137 39.5809C14.0697 39.8198 13.9169 40.0524 13.7554 40.2788C13.7787 40.3111 13.8356 40.3111 13.8486 40.3496C13.8616 40.3882 13.8262 40.4118 13.8244 40.4459C13.8225 40.4801 13.864 40.5148 13.9026 40.5196C13.9413 40.5244 13.9809 40.5143 14.0195 40.5196C14.0582 40.5249 14.0991 40.5563 14.0945 40.5963C14.1276 40.5883 14.1622 40.5899 14.1944 40.601C14.2267 40.6122 14.2553 40.6323 14.2771 40.6593C14.2994 40.6878 14.3162 40.7258 14.3497 40.7383C14.3832 40.7508 14.4215 40.7321 14.4578 40.7263C14.4941 40.7205 14.5426 40.7431 14.5356 40.7802C14.5321 40.7912 14.5274 40.8017 14.5216 40.8115C14.4978 40.864 14.5435 40.9242 14.5942 40.9483C14.645 40.9724 14.7041 40.9781 14.7507 41.0104C14.8103 41.0518 14.8364 41.1274 14.8588 41.1978L14.9053 41.3423C14.923 41.3981 14.9077 41.4386 14.9109 41.4974C14.9127 41.5107 14.9112 41.5242 14.9067 41.5368C14.8951 41.5628 14.8602 41.5696 14.8425 41.5898C14.8094 41.625 14.8257 41.6861 14.8033 41.7285C14.7945 41.7459 14.7796 41.7594 14.7707 41.7767C14.7405 41.8345 14.7848 41.9086 14.7647 41.9693C14.754 42.0026 14.726 42.0291 14.7228 42.0657C14.7228 42.0907 14.7316 42.1186 14.7186 42.1398C14.713 42.149 14.7041 42.1553 14.6991 42.1644C14.6846 42.1894 14.7041 42.2203 14.721 42.2439C14.7336 42.2584 14.7428 42.2757 14.7478 42.2945C14.7528 42.3133 14.7535 42.3331 14.7498 42.3523C14.7358 42.3941 14.6897 42.4124 14.6566 42.4379C14.5635 42.5054 14.5453 42.634 14.5327 42.7486C14.5277 42.7751 14.5294 42.8024 14.5374 42.8281C14.5486 42.8551 14.5742 42.8854 14.557 42.9085C14.5397 42.9316 14.503 42.9263 14.5007 42.9519C14.5007 42.9624 14.5076 42.9721 14.5123 42.9813C14.5416 43.0381 14.4759 43.105 14.4904 43.1676C14.4988 43.2038 14.5323 43.2298 14.5402 43.2639C14.542 43.2861 14.542 43.3083 14.5402 43.3304C14.5429 43.3536 14.5506 43.3758 14.5627 43.3954C14.5748 43.4151 14.591 43.4318 14.6101 43.4441C14.6482 43.4694 14.6898 43.4886 14.7335 43.5009C14.7504 43.4433 14.7463 43.3813 14.7218 43.3266C14.6975 43.2726 14.6777 43.2165 14.6627 43.1589C14.658 43.1408 14.658 43.1217 14.6627 43.1036C14.6767 43.0631 14.7233 43.0482 14.7633 43.0381L14.985 42.9836C15.0002 42.9792 15.0158 42.9769 15.0316 42.9769C15.0696 42.9858 15.1056 43.0022 15.1378 43.0251C15.1997 43.047 15.2646 43.0584 15.3301 43.0588C15.3953 43.0669 15.4665 43.0944 15.4913 43.1551C15.4974 43.1798 15.5055 43.204 15.5155 43.2274C15.5425 43.2726 15.6044 43.2755 15.6552 43.2683C15.8056 43.2442 15.9142 43.0699 16.0147 42.9519C16.0329 42.9284 16.0535 42.907 16.0762 42.8883C16.0935 42.8763 16.1117 42.8658 16.1307 42.857C16.2042 42.8199 16.2748 42.7769 16.3417 42.7284C16.3571 42.7186 16.3706 42.7059 16.3813 42.6908C16.3924 42.6689 16.3989 42.6448 16.4004 42.62C16.4288 42.4274 16.5503 42.2612 16.671 42.1095C16.8812 42.0642 17.0958 42.0446 17.3105 42.0512C17.3554 42.049 17.4004 42.0554 17.4432 42.07C17.4723 42.0871 17.5037 42.0998 17.5363 42.1076C17.5894 42.1129 17.636 42.0691 17.6891 42.0633C17.7369 42.0663 17.784 42.0766 17.8288 42.0941C17.8835 42.1019 17.9391 42.0983 17.9923 42.0835C18.205 42.038 18.4128 41.9707 18.6127 41.8826C18.6322 41.8717 18.6543 41.8666 18.6765 41.8682C18.7016 41.8725 18.7231 41.8938 18.7468 41.8976C18.7681 41.8969 18.7894 41.8952 18.8106 41.8923C18.834 41.8955 18.8561 41.9049 18.8749 41.9198L19.0682 42.0464C19.3825 42.0016 19.6983 42.1909 19.995 42.0739C20.0324 42.0556 20.0716 42.0415 20.1119 42.0319C20.1822 42.0304 20.2519 42.047 20.3145 42.0801C20.4745 42.1408 20.645 42.1666 20.8152 42.1558C20.8431 42.1509 20.8717 42.1541 20.8981 42.1649C20.9414 42.1885 20.9498 42.2477 20.9772 42.2896C21.0147 42.3365 21.0667 42.3685 21.1244 42.3802C21.2924 42.4299 21.4688 42.4426 21.6418 42.4173C21.6768 42.4119 21.7229 42.4124 21.735 42.4466C21.7372 42.4574 21.738 42.4684 21.7374 42.4794C21.7401 42.5502 21.8137 42.5979 21.8822 42.6032C21.9506 42.6007 22.0187 42.5921 22.0857 42.5776C22.3694 42.5483 22.6036 42.7968 22.8774 42.8849C22.9117 42.8978 22.9483 42.9028 22.9846 42.8998C23.0294 42.889 23.0725 42.8716 23.1127 42.8483C23.1886 42.8188 23.2703 42.8091 23.3506 42.8199C23.4454 42.8243 23.5385 42.8466 23.6254 42.8859C23.6228 42.9826 23.6147 43.0791 23.6012 43.1749C23.5964 43.1932 23.5982 43.2128 23.6063 43.2298C23.6177 43.2454 23.6343 43.2563 23.6529 43.2601C23.6993 43.2731 23.7476 43.2774 23.7954 43.2726C23.8091 43.2688 23.8232 43.2679 23.8371 43.2701C23.8511 43.2721 23.8645 43.2771 23.8765 43.2847C23.911 43.3169 23.8811 43.3752 23.8495 43.4099C23.8178 43.4446 23.7819 43.4966 23.8094 43.5351C23.8434 43.5833 23.9133 43.5394 23.9701 43.5293C24.046 43.5158 24.1261 43.5731 24.1979 43.5448C24.2696 43.5163 24.3013 43.4191 24.3753 43.4152C24.3927 43.4154 24.41 43.4184 24.4266 43.4243L24.7665 43.5236C24.808 43.5308 24.846 43.5518 24.875 43.5833C24.9156 43.6386 24.8909 43.7181 24.8601 43.7803C24.8294 43.8424 24.793 43.9122 24.8164 43.9778C24.8393 44.0247 24.8768 44.0624 24.923 44.0846C24.9268 44.0888 24.9315 44.0919 24.9366 44.0938C24.9418 44.0958 24.9473 44.0964 24.9527 44.0957C24.9582 44.0949 24.9634 44.0929 24.9679 44.0898C24.9725 44.0866 24.9762 44.0824 24.9789 44.0774C25.0492 43.9922 25.1224 43.8983 25.1293 43.7884C25.1331 43.7345 25.1205 43.6811 25.1219 43.6271C25.1203 43.6001 25.1256 43.5731 25.1373 43.549C25.149 43.5248 25.1666 43.5042 25.1885 43.4894C25.2155 43.4793 25.2447 43.4775 25.2727 43.4841C25.3006 43.4906 25.3262 43.5053 25.3463 43.5264C25.3901 43.5645 25.4232 43.6151 25.4698 43.6498C25.5676 43.7229 25.7026 43.7123 25.821 43.695C25.8574 43.6928 25.8928 43.6812 25.9239 43.6613C25.951 43.6365 25.9723 43.6058 25.9863 43.5713C26.0352 43.4743 26.0931 43.3826 26.1591 43.2972C26.1699 43.2792 26.1863 43.2656 26.2057 43.2586C26.2546 43.2486 26.2811 43.3189 26.2732 43.3699C26.2653 43.4209 26.2462 43.4793 26.2769 43.5197C26.2942 43.5375 26.3148 43.5514 26.3374 43.5606C26.3847 43.5873 26.4241 43.6268 26.4514 43.6748C26.4786 43.7228 26.4926 43.7776 26.4921 43.8333L26.8097 43.6314C26.8358 43.6151 26.8679 43.6459 26.8931 43.6642C26.9625 43.7123 27.0585 43.6681 27.1408 43.6859C27.1392 43.8304 27.1689 43.9734 27.228 44.1044C27.237 44.128 27.251 44.1493 27.2689 44.1665C27.2781 44.1749 27.2895 44.1804 27.3017 44.1823C27.3138 44.1843 27.3262 44.1824 27.3374 44.1771C27.3542 44.1675 27.3705 44.1468 27.3872 44.1554C27.3885 44.198 27.4023 44.2392 27.4268 44.2734C27.4323 44.2823 27.4403 44.2892 27.4496 44.2932C27.4776 44.3028 27.499 44.2667 27.5037 44.2368C27.5176 44.1506 27.493 44.0591 27.5195 43.9763C27.5345 43.9354 27.5571 43.8981 27.5861 43.8664C27.6598 43.7802 27.7518 43.7128 27.8548 43.6695C27.9011 43.6464 27.9532 43.6387 28.0039 43.6473C28.026 43.6564 28.0496 43.6609 28.0733 43.6608C28.0887 43.6567 28.1027 43.6484 28.1141 43.6368C28.1253 43.6252 28.1334 43.6108 28.1376 43.5948C28.1483 43.564 28.1515 43.5308 28.1641 43.4985C28.1772 43.469 28.1987 43.4443 28.2258 43.4279C28.2529 43.4114 28.2842 43.4039 28.3155 43.4065C28.3621 43.4109 28.4049 43.4191 28.4491 43.4248C28.4716 43.4255 28.4935 43.4326 28.5123 43.4454C28.5311 43.4581 28.5462 43.476 28.5558 43.4971C28.5597 43.5182 28.5621 43.5396 28.5632 43.5611C28.5749 43.6295 28.6429 43.6699 28.6825 43.7258C28.7061 43.76 28.7198 43.8004 28.722 43.8424C28.7243 43.8844 28.7149 43.9261 28.6951 43.9628C28.6741 43.9999 28.641 44.0413 28.6587 44.0803C28.6764 44.1193 28.7178 44.1208 28.7519 44.1396C28.7738 44.1563 28.7923 44.1773 28.8063 44.2014C28.8202 44.2256 28.8295 44.2523 28.8334 44.2802C28.8409 44.3361 28.8611 44.3893 28.892 44.4358C28.9274 44.4781 29.0001 44.4936 29.0346 44.4502C29.0465 44.4294 29.057 44.4076 29.0658 44.3852C29.0789 44.3638 29.099 44.348 29.1225 44.3408C29.1459 44.3335 29.1711 44.3353 29.1934 44.3457C29.2139 44.3563 29.2306 44.3741 29.2507 44.3852C29.2603 44.3916 29.2718 44.3947 29.2833 44.3939C29.2947 44.3931 29.3057 44.3886 29.3145 44.3808C29.3207 44.3723 29.325 44.3624 29.3271 44.3519L29.396 44.0914C29.4668 44.0813 29.5418 44.1781 29.5958 44.1299C29.6326 44.0972 29.6097 44.0307 29.6358 43.9883C29.6529 43.9651 29.6767 43.9482 29.7038 43.9401C29.7658 43.9156 29.8436 43.8944 29.8902 43.9449C29.9137 43.9818 29.9259 44.0251 29.9251 44.0693C29.9307 44.1126 29.9493 44.1627 29.9907 44.1723C30.0322 44.1819 30.0713 44.1468 30.1128 44.1516C30.1542 44.1564 30.1975 44.2084 30.2394 44.1901C30.2532 44.1827 30.2645 44.1713 30.2721 44.1574C30.2982 44.1164 30.3163 44.0706 30.3256 44.0225C30.3504 44.0384 30.3718 44.0594 30.3885 44.0842C30.4877 44.0663 30.5524 43.9522 30.6521 43.9397C30.7057 43.9319 30.7597 43.9556 30.8137 43.9503C30.8677 43.9449 30.9068 43.9175 30.9534 43.9146C31.0279 43.9103 31.0932 43.9657 31.1421 44.0239C31.1909 44.0823 31.2352 44.1487 31.3042 44.1814C31.3628 44.2099 31.4359 44.2108 31.4807 44.2595C31.5001 44.2822 31.5108 44.3115 31.5108 44.3418C31.5108 44.3722 31.5001 44.4014 31.4807 44.4242C31.4634 44.4384 31.4478 44.4546 31.4341 44.4724C31.4266 44.4894 31.4242 44.5084 31.4275 44.5268C31.4308 44.5453 31.4394 44.5623 31.4523 44.5754C31.479 44.6014 31.5107 44.6213 31.5454 44.6337C31.5785 44.6506 31.6135 44.6629 31.6497 44.6703C31.6715 44.6723 31.6925 44.6795 31.7112 44.6912C31.73 44.7028 31.7459 44.7188 31.7578 44.7378C31.768 44.7599 31.7708 44.7859 31.7899 44.8023C31.797 44.8069 31.8049 44.8104 31.8132 44.8124L31.9935 44.8654C32.0003 44.8679 32.0076 44.8689 32.0148 44.8683C32.023 44.8659 32.0302 44.8608 32.0352 44.8539C32.0404 44.8469 32.0432 44.8384 32.0432 44.8297C32.0432 44.8124 32.04 44.7951 32.0405 44.7777C32.0405 44.7218 32.087 44.6814 32.1336 44.6491C32.1625 44.6294 32.1951 44.6068 32.2002 44.5716C32.1991 44.5406 32.192 44.5102 32.1797 44.482C32.1727 44.4521 32.1862 44.4103 32.2161 44.4117C32.198 44.3952 32.1835 44.3749 32.1737 44.3521C32.1639 44.3293 32.159 44.3046 32.1592 44.2797C32.1625 44.2591 32.1606 44.2381 32.1536 44.2186C32.1299 44.1743 32.0466 44.1868 32.0372 44.1366C32.0362 44.1266 32.0379 44.1166 32.0421 44.1074C32.0463 44.0984 32.0528 44.0906 32.0609 44.0851C32.0771 44.0743 32.0942 44.0648 32.1117 44.0567C32.1161 44.0549 32.1201 44.0521 32.1233 44.0485C32.1265 44.0449 32.1289 44.0406 32.1304 44.036C32.1311 44.0296 32.1297 44.0232 32.1266 44.0177C32.1052 43.9748 32.0474 43.9527 32.0428 43.9045C32.0445 43.8846 32.0445 43.8647 32.0428 43.8448C32.034 43.8135 31.992 43.7918 32.0023 43.761C32.006 43.7499 32.0158 43.7422 32.019 43.7306C32.0247 43.7094 32.0018 43.6907 31.9804 43.6878C31.959 43.6883 31.9377 43.687 31.9166 43.6839C31.9027 43.679 31.8911 43.6688 31.8842 43.6553C31.8772 43.6419 31.8755 43.6263 31.8793 43.6116C31.8831 43.5968 31.8921 43.5842 31.9045 43.5761C31.917 43.5679 31.932 43.565 31.9464 43.5679C31.9454 43.5544 31.9407 43.5416 31.9329 43.5308C31.925 43.5201 31.9144 43.5118 31.9021 43.5072C31.864 43.4932 31.8859 43.4219 31.9021 43.3844C31.9297 43.328 31.9456 43.2663 31.9487 43.2033C31.9487 43.1589 31.9487 43.1069 31.9874 43.0819C32.0088 43.0684 32.0363 43.0699 32.0573 43.0559C32.0898 43.0342 32.0922 42.987 32.0908 42.9471L32.0857 42.7789C32.0848 42.7737 32.085 42.7683 32.0862 42.7631C32.0874 42.7579 32.0896 42.7529 32.0927 42.7486C32.0998 42.7428 32.1086 42.7393 32.1178 42.7385C32.1438 42.7318 32.1665 42.7155 32.1818 42.6928C32.1971 42.67 32.2037 42.6423 32.2007 42.6147C32.1956 42.5771 32.1718 42.5396 32.1849 42.5044C32.1946 42.4779 32.2221 42.4639 32.2426 42.4447C32.3088 42.3836 32.3111 42.2617 32.3916 42.2227C32.4326 42.2029 32.489 42.2073 32.5127 42.1673C32.5416 42.1191 32.4918 42.0498 32.5197 42.0011C32.5344 41.9813 32.5548 41.9666 32.5779 41.9593C32.6417 41.9303 32.7111 41.8874 32.7233 41.8148C32.7275 41.7916 32.726 41.7637 32.7442 41.7488C32.7581 41.7398 32.7746 41.7361 32.7908 41.7386H32.9393C32.9538 41.7088 32.9235 41.6765 32.8928 41.6611C32.862 41.6457 32.8285 41.6288 32.8252 41.5956C32.822 41.5624 32.8504 41.5388 32.8551 41.5079C32.8597 41.4771 32.8429 41.4492 32.8485 41.4203C32.8531 41.4049 32.8621 41.3913 32.8744 41.3812C32.8866 41.3712 32.9014 41.3651 32.917 41.3639C32.9482 41.3619 32.9796 41.3642 33.0101 41.3707C33.1035 41.3741 33.1968 41.3704 33.2896 41.3596C33.3827 41.3572 33.4861 41.3769 33.5481 41.4497C33.5648 41.4694 33.5821 41.4944 33.6072 41.4935C33.6196 41.4923 33.6314 41.487 33.6408 41.4786C33.6604 41.4629 33.6767 41.4433 33.6887 41.4208C33.7008 41.3983 33.7082 41.3736 33.7106 41.3481C33.7139 41.3219 33.724 41.2971 33.7398 41.2763C33.7555 41.2554 33.7763 41.2393 33.8001 41.2296C33.8497 41.208 33.9027 41.1963 33.9565 41.1949C34.1914 41.1753 34.4275 41.1767 34.6621 41.1992C34.7239 41.2124 34.7881 41.2051 34.8457 41.1785C34.8638 41.1656 34.879 41.1489 34.8903 41.1294C34.9015 41.1098 34.9086 41.088 34.911 41.0654C34.9133 41.0428 34.9108 41.0199 34.9038 40.9984C34.8968 40.9769 34.8854 40.9571 34.8703 40.9406C34.8298 40.9006 34.7702 40.8866 34.7306 40.8443C34.6691 40.7793 34.6808 40.6718 34.7152 40.5885C34.7221 40.5763 34.7249 40.5621 34.7231 40.5481C34.72 40.5395 34.7144 40.5321 34.7071 40.5269C34.6997 40.5218 34.691 40.5191 34.6822 40.5192C34.6645 40.5198 34.6469 40.5215 34.6296 40.5244C34.6068 40.5248 34.5843 40.5203 34.5632 40.5113C34.5423 40.5022 34.5233 40.4889 34.5075 40.4719C34.4761 40.4381 34.4492 40.3998 34.4279 40.3583C34.4208 40.3477 34.4161 40.3354 34.4144 40.3227C34.4144 40.2971 34.433 40.2745 34.4483 40.2557C34.4756 40.217 34.4883 40.1694 34.4841 40.1218C34.48 40.0742 34.4594 40.0297 34.426 39.9966C34.412 39.9858 34.3995 39.9732 34.3887 39.959C34.3745 39.9267 34.3732 39.8898 34.385 39.8564L34.4148 39.7216C34.4185 39.7084 34.4199 39.6948 34.419 39.6811C34.4106 39.6161 34.3082 39.6002 34.3017 39.5366C34.303 39.5091 34.3115 39.4825 34.3263 39.4596C34.3335 39.448 34.337 39.4344 34.3363 39.4207C34.3357 39.4069 34.3309 39.3938 34.3226 39.383C34.3779 39.3557 34.4413 39.3514 34.4996 39.3709C34.4306 39.3229 34.3655 39.2691 34.3049 39.2101C34.2855 39.1938 34.2707 39.1723 34.2621 39.148C34.2591 39.1256 34.2578 39.1031 34.2579 39.0806C34.2457 38.977 34.1037 38.9389 34.0767 38.8398L34.2821 38.7617C34.2976 38.7571 34.3119 38.7491 34.324 38.7381C34.3382 38.72 34.3458 38.6973 34.3455 38.6741C34.349 38.6196 34.3412 38.5649 34.3227 38.5138C34.3042 38.4626 34.2755 38.4161 34.2383 38.3774C34.2038 38.3418 34.1587 38.3061 34.1577 38.2551C34.1577 38.2126 34.1885 38.1741 34.1852 38.1323C34.136 38.142 34.0852 38.1383 34.0379 38.1214C33.9906 38.1045 33.9484 38.075 33.9155 38.0359C33.8429 37.9627 33.7656 37.8813 33.7525 37.7773C33.7522 37.7473 33.7472 37.7175 33.7377 37.6891C33.724 37.6651 33.705 37.6448 33.6822 37.6299L33.4791 37.4724C33.5101 37.4578 33.5364 37.4343 33.5549 37.4048C33.5735 37.3753 33.5836 37.3409 33.584 37.3058C33.5818 37.2896 33.5832 37.2731 33.5882 37.2576C33.5961 37.2439 33.6077 37.2328 33.6217 37.2258L33.733 37.1545C33.7252 37.0436 33.7298 36.9321 33.7465 36.8222C33.7493 36.7873 33.7615 36.7539 33.7819 36.7259C33.8285 36.6714 33.9137 36.6859 33.9808 36.7095C34.0478 36.7331 34.1256 36.7577 34.1848 36.7196C34.2257 36.6917 34.2495 36.6353 34.2979 36.6266C34.3464 36.618 34.3822 36.6575 34.426 36.6714C34.5033 36.697 34.6072 36.6508 34.6589 36.7163C34.7008 36.7702 34.665 36.8578 34.7012 36.9161C34.7525 36.9985 34.8843 36.9494 34.963 37.0033C34.991 37.0226 35.0096 37.0543 35.0403 37.0698C35.1134 37.1073 35.1949 37.0317 35.2769 37.0303C35.33 37.0359 35.3817 37.0523 35.4288 37.0784C35.4786 37.0986 35.5419 37.1059 35.5796 37.0664C35.5922 37.0534 35.6006 37.0361 35.6136 37.024C35.6444 36.9956 35.6914 37.0004 35.731 36.9884C35.7706 36.9763 35.8041 36.919 35.7706 36.8921L35.9443 36.8694C35.9625 36.8689 35.98 36.8627 35.9946 36.8516C36.0096 36.8312 36.0177 36.8064 36.0179 36.7808C36.0272 36.7276 36.0563 36.6804 36.099 36.6493C36.1311 36.6262 36.1697 36.6132 36.2024 36.5906C36.2839 36.5351 36.3193 36.4326 36.35 36.3372C36.3626 36.309 36.3652 36.2771 36.3574 36.2471C36.3438 36.2236 36.3265 36.2026 36.3062 36.185C36.289 36.1643 36.2782 36.1306 36.2969 36.1113C36.3514 36.0858 36.4143 36.1036 36.4739 36.1113C36.5335 36.119 36.6057 36.1113 36.6336 36.0559C36.6403 36.0374 36.6479 36.0193 36.6564 36.0015C36.6834 35.9596 36.7426 35.962 36.791 35.9664C36.8395 35.9707 36.9005 35.9664 36.9182 35.9182C36.9321 35.8806 36.9089 35.8406 36.893 35.8041C36.8749 35.7621 36.8655 35.7168 36.8655 35.6709C36.8655 35.625 36.8749 35.5796 36.893 35.5377C36.9103 35.4987 36.9298 35.4414 36.893 35.4221C36.8817 35.4179 36.8695 35.4168 36.8576 35.4188L36.7063 35.4303C36.7177 35.4025 36.7225 35.3723 36.7203 35.3422C36.7187 35.3272 36.7121 35.3133 36.7016 35.3028C36.6911 35.2924 36.6775 35.286 36.663 35.2849C36.6206 35.2849 36.5912 35.3474 36.5498 35.3369C36.5279 35.3311 36.5158 35.3075 36.5032 35.2887C36.445 35.2131 36.3332 35.2208 36.248 35.1813C36.1734 35.1422 36.1162 35.0749 36.0882 34.9934C36.0606 34.9128 36.0431 34.8288 36.0361 34.7435C36.0915 34.7243 36.148 34.7083 36.2051 34.6953C36.261 34.6785 36.3169 34.6308 36.3118 34.5711C36.3077 34.5503 36.2994 34.5306 36.2874 34.5134C36.2755 34.4961 36.2601 34.4816 36.2424 34.4709C36.2072 34.4445 36.1693 34.4223 36.1292 34.4049C36.1173 34.3982 36.1035 34.3958 36.0901 34.3982C36.0756 34.4025 36.0663 34.416 36.0537 34.4247C36.0385 34.4321 36.0215 34.4345 36.0048 34.4317C35.9882 34.4288 35.9728 34.4208 35.9606 34.4088C35.9341 34.3861 35.9141 34.3548 35.8917 34.3298C35.792 34.2286 35.6155 34.2551 35.514 34.1559C35.4781 34.1213 35.4525 34.0711 35.4069 34.0533C35.3597 34.0415 35.31 34.048 35.2671 34.0716L34.8829 34.2378C34.8701 34.2443 34.8557 34.247 34.8415 34.2455C34.8302 34.2421 34.8197 34.2364 34.8107 34.2286C34.7307 34.1716 34.6321 34.1494 34.5364 34.167C34.5467 34.1039 34.5671 34.043 34.597 33.9869C34.6509 33.8413 34.6865 33.6891 34.7027 33.5341C34.7187 33.4595 34.7196 33.3823 34.7054 33.3073C34.6859 33.2321 34.6351 33.1628 34.6393 33.0858L34.5462 33.1137C34.5297 33.064 34.5051 33.0176 34.4735 32.9764C34.4575 32.9561 34.4367 32.9402 34.4132 32.9303C34.3897 32.9203 34.3642 32.9166 34.3389 32.9196C34.3203 32.926 34.3008 32.9291 34.2811 32.9288C34.2639 32.9244 34.2479 32.9159 34.2346 32.9037C34.1515 32.8399 34.0511 32.805 33.9477 32.804C33.808 32.7077 33.664 32.6161 33.5262 32.5179C33.4863 32.4961 33.4525 32.4641 33.428 32.4248C33.4035 32.3856 33.3893 32.3406 33.3865 32.2939C33.3665 32.2093 33.3564 32.1224 33.3562 32.0353C33.36 32.0019 33.3588 31.9681 33.3525 31.9351C33.3301 31.8538 33.2342 31.8138 33.2058 31.7343C33.1982 31.7034 33.1923 31.672 33.1881 31.6404C33.1657 31.5441 33.0772 31.4819 32.9878 31.4478C32.9422 31.4353 32.8979 31.4181 32.8555 31.3967C32.8344 31.3857 32.8164 31.3691 32.8034 31.3486C32.7904 31.3282 32.7828 31.3046 32.7815 31.2801C32.7883 31.2359 32.8085 31.1951 32.8393 31.1636C32.901 31.0824 32.9534 30.9939 32.9953 30.9001C33.0176 30.8519 33.032 30.7797 32.9882 30.7484C32.9717 30.7384 32.9529 30.7331 32.9338 30.733C32.8406 30.7258 32.7502 30.7407 32.6609 30.7219C32.6492 30.7208 32.6379 30.7173 32.6276 30.7115C32.6173 30.7058 32.6081 30.6981 32.6007 30.6887C32.5915 30.6678 32.5877 30.6446 32.5901 30.6218C32.5881 30.5746 32.5734 30.5291 32.5477 30.4901C32.5221 30.4511 32.4864 30.4203 32.4447 30.4011C32.3669 30.3669 32.3111 30.2947 32.23 30.2697C32.1945 30.2614 32.16 30.2489 32.1271 30.2326C32.1009 30.2161 32.0789 30.1931 32.0633 30.1657C32.0477 30.1383 32.0389 30.1074 32.0377 30.0756C32.0371 30.0438 32.0429 30.0123 32.0547 29.9829C32.0664 29.9536 32.084 29.9271 32.1062 29.9051C32.1272 29.8874 32.1465 29.8673 32.1634 29.8454C32.1763 29.8204 32.1825 29.7924 32.1817 29.7642C32.1807 29.736 32.1727 29.7085 32.1583 29.6845C32.1392 29.6479 32.1117 29.6055 32.1313 29.5689C32.1391 29.5563 32.1501 29.5459 32.163 29.5391C32.2082 29.5159 32.2549 29.4959 32.3027 29.4788C32.3269 29.4701 32.3491 29.4564 32.3679 29.4384C32.3868 29.4204 32.4018 29.3986 32.4122 29.3743C32.4336 29.3088 32.3972 29.2395 32.3623 29.1817L32.5341 29.1764C32.5426 29.1768 32.5511 29.1751 32.5588 29.1716C32.565 29.1669 32.57 29.1607 32.5734 29.1536C32.5767 29.1464 32.5783 29.1386 32.5779 29.1306C32.5775 29.0891 32.5678 29.0482 32.5496 29.0111C32.5313 28.9741 32.505 28.942 32.4727 28.9173C32.46 28.9084 32.4503 28.8959 32.4447 28.8811C32.4429 28.8692 32.444 28.8569 32.448 28.8455L32.4787 28.7261C32.4946 28.6639 32.4406 28.6071 32.3958 28.5623C32.3474 28.5219 32.3052 28.4741 32.2705 28.4207C32.2431 28.3678 32.2366 28.3041 32.2021 28.256C32.1742 28.217 32.1313 28.1929 32.1015 28.1558C32.0756 28.1203 32.0597 28.0781 32.0556 28.0338C32.0514 27.9894 32.0593 27.9449 32.0782 27.9049C32.1174 27.8253 32.1794 27.7603 32.2557 27.7185C32.2823 27.7062 32.3055 27.6869 32.3227 27.6626C32.3479 27.6174 32.3227 27.5591 32.2882 27.5181C32.2538 27.4772 32.2179 27.4483 32.2258 27.403C32.2323 27.3654 32.2696 27.3438 32.3008 27.3231C32.3081 27.3192 32.3141 27.3131 32.3181 27.3058C32.3288 27.2807 32.2948 27.2629 32.2761 27.2431C32.2586 27.2183 32.2508 27.1875 32.2542 27.1569C32.2542 27.0776 32.2574 26.9983 32.2635 26.919C32.2676 26.8939 32.2676 26.8684 32.2635 26.8434C32.2575 26.8273 32.2483 26.8126 32.2366 26.8003C32.225 26.7879 32.2109 26.7781 32.1955 26.7715C32.18 26.7649 32.1635 26.7616 32.1468 26.7618C32.1301 26.7619 32.1135 26.7656 32.0982 26.7726C32.0516 26.7933 32.0167 26.8414 31.9669 26.8564C31.8914 26.879 31.8174 26.7923 31.8095 26.7119C31.8099 26.6905 31.8067 26.6691 31.8002 26.6488C31.7885 26.6321 31.7724 26.6192 31.7538 26.6119C31.7351 26.6045 31.7149 26.6029 31.6953 26.6074C31.6564 26.617 31.6157 26.6153 31.5775 26.6026C31.531 26.5771 31.5165 26.512 31.5151 26.4557C31.5137 26.3993 31.5151 26.3367 31.4797 26.2943C31.4211 26.2254 31.2883 26.2418 31.2589 26.1551C31.2497 26.1277 31.2552 26.0969 31.2445 26.0699C31.2231 26.015 31.1513 26.0063 31.0964 25.9986C30.9832 25.9831 30.8758 25.9378 30.7844 25.8671C30.7378 25.8315 30.6865 25.7872 30.6311 25.8026C30.5664 25.8204 30.5412 25.91 30.4774 25.9302C30.433 25.9369 30.3877 25.9274 30.3494 25.9033C30.2594 25.8598 30.1596 25.8431 30.0611 25.8551C30.0119 25.8614 29.9651 25.88 29.9245 25.9093C29.8839 25.9386 29.8509 25.9777 29.8282 26.0232C29.81 26.0641 29.8026 26.1094 29.7816 26.1489C29.7728 26.1695 29.758 26.1868 29.7394 26.1983C29.7207 26.2099 29.699 26.2151 29.6773 26.2134C29.6578 26.2071 29.6392 26.1981 29.6219 26.1869C29.5413 26.146 29.4444 26.1783 29.3671 26.225C29.2237 26.3121 29.112 26.4454 29.049 26.6045C28.9475 26.5563 28.9452 26.3984 28.8585 26.3242C28.8227 26.2934 28.7756 26.2799 28.7397 26.2496C28.7111 26.2243 28.6913 26.19 28.6834 26.1519C28.6756 26.1139 28.6802 26.0742 28.6965 26.0391C28.7225 25.9861 28.7756 25.9428 28.7784 25.8854C28.7784 25.8373 28.7463 25.7862 28.7658 25.7409C28.7817 25.7034 28.8259 25.6928 28.859 25.6706C28.892 25.6484 28.9196 25.5964 28.8879 25.5714C28.8562 25.4838 28.7635 25.437 28.675 25.4178C28.5866 25.3985 28.492 25.3946 28.4137 25.3479C28.3579 25.3147 28.3145 25.2622 28.2596 25.2275C28.1353 25.1486 27.9708 25.1721 27.8404 25.2424C27.799 25.2651 27.7598 25.2906 27.717 25.3109C27.6674 25.3254 27.6203 25.3476 27.5772 25.3768C27.5386 25.411 27.5214 25.4799 27.56 25.5146C27.4868 25.5155 27.4139 25.5031 27.3449 25.478C27.3105 25.4651 27.2792 25.4446 27.2533 25.4179C27.2273 25.3912 27.2075 25.3589 27.1949 25.3234C27.1753 25.2564 27.1903 25.1789 27.16 25.1182C27.1408 25.0787 27.1055 25.0493 27.0882 25.0094C27.0789 24.9881 27.0799 24.9848 27.0743 24.9733C27.0435 24.9078 26.9536 24.887 26.9052 24.8769C26.8456 24.8644 26.8321 24.8716 26.6439 24.8769C26.5182 24.8808 26.493 24.8769 26.4716 24.9024C26.4292 24.9506 26.4656 25.0306 26.4195 25.0739C26.4035 25.0854 26.3853 25.0931 26.3661 25.0964C26.347 25.0998 26.3273 25.0986 26.3086 25.0931C26.2398 24.9571 26.1531 24.8314 26.051 24.7199C26.0123 24.6795 25.9716 24.6413 25.929 24.6053Z" fill="#45525F"/>
<path d="M25.929 24.6053C25.8714 24.6806 25.7953 24.7387 25.7087 24.7734C25.6118 24.8099 25.5331 24.7969 25.4758 24.8697C25.4524 24.9058 25.4325 24.9444 25.4167 24.9848C25.379 25.058 25.3162 25.114 25.2406 25.1418C25.2127 25.1519 25.1787 25.1625 25.1708 25.1899C25.1689 25.2106 25.1711 25.2314 25.1773 25.2511C25.1913 25.3561 25.0562 25.3994 24.9668 25.4515C24.9168 25.4844 24.8737 25.5275 24.8403 25.5782C24.8069 25.6289 24.7839 25.6861 24.7726 25.7463C24.7507 25.8667 24.7449 25.9897 24.7553 26.1118C24.5689 26.1429 24.3788 26.1429 24.1922 26.1118L24.1881 26.0439C24.1606 26.036 24.1312 26.0397 24.1064 26.0541C24.0815 26.0686 24.0631 26.0926 24.0553 26.1209C23.9249 26.0795 23.8183 25.9721 23.6827 25.9461C23.5141 25.9138 23.3497 26.0188 23.2235 26.1388C23.1924 26.1646 23.1676 26.1976 23.1509 26.2351C23.1439 26.2579 23.1384 26.2813 23.1345 26.3049C23.1121 26.389 23.0586 26.4606 22.9856 26.5044C22.9127 26.5481 22.826 26.5606 22.7443 26.539C22.6674 26.5144 22.578 26.4609 22.516 26.5139C22.4727 26.5511 22.4741 26.6204 22.4918 26.6758C22.5158 26.7283 22.5329 26.7838 22.5426 26.841C22.5472 26.9421 22.4704 27.024 22.4089 27.103C22.3475 27.1819 22.2972 27.2956 22.3545 27.3789C22.3675 27.3978 22.3866 27.4156 22.3861 27.4391C22.3861 27.4873 22.3139 27.4873 22.2729 27.5085C22.1845 27.5567 22.2534 27.7089 22.2031 27.7975C22.183 27.8336 22.1444 27.8563 22.1258 27.8938C22.1133 27.9251 22.1125 27.9602 22.1235 27.9921C22.1345 28.024 22.1566 28.0506 22.1854 28.0667C22.2452 28.0962 22.3136 28.1012 22.3768 28.0807C22.4166 28.0668 22.4579 28.0579 22.4998 28.0542C22.5327 28.0556 22.5653 28.0618 22.5966 28.0725L22.7624 28.1206C22.8235 28.1385 22.897 28.1727 22.897 28.2382C22.897 28.2964 22.8355 28.3345 22.7806 28.3451C22.7256 28.3557 22.6642 28.3586 22.6217 28.3971C22.5794 28.4356 22.5687 28.5171 22.5715 28.584C22.5778 28.6438 22.575 28.7043 22.5631 28.7631C22.5568 28.7926 22.5426 28.8196 22.5221 28.8411C22.5017 28.8626 22.4759 28.8778 22.4476 28.885C22.419 28.8858 22.3906 28.8807 22.3639 28.8699C22.3373 28.8592 22.313 28.843 22.2925 28.8224C22.2514 28.7808 22.1992 28.7529 22.1425 28.7424C22.0853 28.7391 22.0238 28.7978 22.0461 28.8523C21.9604 28.8108 21.8668 28.7704 21.7741 28.7901C21.6814 28.8099 21.6009 28.9158 21.6409 29.0044C21.5426 29.1379 21.572 29.3478 21.4392 29.4437C21.3759 29.4894 21.2939 29.4918 21.2189 29.5126C21.144 29.5333 21.0559 29.5761 20.9731 29.5607C20.9372 29.554 20.9036 29.5371 20.8683 29.5294C20.8507 29.5241 20.8321 29.5236 20.8144 29.5279C20.7966 29.5323 20.7801 29.5412 20.7667 29.554C20.7295 29.5978 20.7541 29.6715 20.7234 29.7201C20.6926 29.7688 20.6345 29.7683 20.5939 29.802C20.5194 29.8613 20.5395 29.9788 20.5408 30.0761C20.5422 30.0907 20.5395 30.1054 20.5329 30.1184C20.5161 30.1459 20.4775 30.1439 20.4481 30.1551C20.3848 30.1796 20.3699 30.2658 20.3806 30.3347C20.3913 30.4036 20.4174 30.4739 20.3992 30.5408C20.3872 30.5851 20.3564 30.6227 20.3447 30.6675C20.3243 30.7469 20.3676 30.8269 20.402 30.9011C20.4365 30.9753 20.4612 31.0696 20.4118 31.1342C20.3624 31.1988 20.2516 31.1973 20.1971 31.2628C20.1589 31.3109 20.1557 31.3789 20.1142 31.4218C20.1319 31.5412 20.1338 31.6626 20.0737 31.768C20.0462 31.8088 20.015 31.8469 19.9806 31.8817C19.9172 31.9554 19.8679 32.07 19.9256 32.1485C19.9411 32.1676 19.9608 32.1826 19.9831 32.1922C20.0054 32.2018 20.0296 32.2056 20.0537 32.2034C20.1019 32.1986 20.148 32.1803 20.1869 32.1504C20.2236 32.1244 20.2665 32.0907 20.3075 32.1081C20.3411 32.1451 20.2786 32.2044 20.2945 32.2525C20.3103 32.3007 20.3876 32.2829 20.4393 32.3007C20.4339 32.3206 20.4328 32.3415 20.4359 32.362C20.4391 32.3824 20.4464 32.4019 20.4575 32.4192C20.47 32.4384 20.4882 32.4577 20.4859 32.4808C20.4835 32.5039 20.4631 32.5184 20.4486 32.5353C20.4076 32.5834 20.4155 32.6586 20.4384 32.7188C20.4456 32.7338 20.4496 32.7502 20.45 32.7669C20.4472 32.8069 20.4034 32.8286 20.3634 32.8305C20.3249 32.8265 20.2859 32.8294 20.2484 32.8391C20.23 32.8492 20.2124 32.8606 20.1957 32.8733C20.1025 32.9311 19.9861 32.8859 19.8883 32.8401C19.8512 32.827 19.8188 32.8027 19.7952 32.7703C19.7898 32.7621 19.7862 32.7528 19.7845 32.7429C19.7829 32.7331 19.7833 32.7231 19.7857 32.7134C19.7882 32.7038 19.7926 32.6949 19.7986 32.6871C19.8046 32.6794 19.8122 32.6731 19.8208 32.6686C19.8308 32.6671 19.8405 32.664 19.8497 32.6595C19.8706 32.6446 19.858 32.6113 19.8408 32.5911C19.8236 32.5709 19.8012 32.5497 19.8083 32.5246C19.8152 32.4996 19.8576 32.4924 19.8888 32.4924C19.92 32.4924 19.961 32.4688 19.9479 32.4394C19.9424 32.4301 19.9345 32.4226 19.9251 32.4178C19.8824 32.3894 19.8484 32.3491 19.8268 32.3016C19.8155 32.2699 19.8021 32.2391 19.7868 32.2092C19.779 32.1943 19.7673 32.1818 19.7531 32.1733C19.7389 32.1648 19.7226 32.1606 19.7062 32.161C19.6494 32.1688 19.635 32.2448 19.6061 32.2959C19.5824 32.3304 19.5501 32.3577 19.5126 32.3746C19.4751 32.3916 19.4338 32.3977 19.3932 32.3922C19.3115 32.3806 19.2325 32.3534 19.1604 32.3118C19.0789 32.3551 19.0719 32.4476 19.0476 32.5391C19.0142 32.6611 18.9361 32.7649 18.8297 32.8281C18.7542 32.8729 18.6495 32.8907 18.5866 32.8281C18.5693 32.8112 18.5568 32.7896 18.54 32.7736C18.5142 32.7555 18.4845 32.7441 18.4535 32.7405C18.4225 32.7369 18.3911 32.7412 18.3621 32.7529C18.3042 32.7771 18.2428 32.7914 18.1805 32.7953V32.8893C18.1153 32.8758 18.078 32.9731 18.1018 33.0376C18.1255 33.1021 18.1805 33.1503 18.201 33.2158C18.2419 33.3468 18.1115 33.4874 17.9783 33.4845C17.9127 33.4845 17.8386 33.4417 17.8362 33.3743C17.8181 33.3658 17.7985 33.3613 17.7786 33.3608C17.7587 33.3603 17.7389 33.3639 17.7203 33.3713C17.5713 33.4174 17.4371 33.5043 17.3318 33.6228C17.2977 33.6678 17.2581 33.7081 17.2141 33.7427C17.1917 33.7598 17.1651 33.7699 17.1375 33.7721C17.1098 33.7742 17.0821 33.7682 17.0576 33.7547C17.0277 33.7345 17.0054 33.6974 16.97 33.695C16.9346 33.6926 16.9034 33.7292 16.867 33.7273C16.8205 33.7273 16.8005 33.6671 16.7888 33.6208C16.7773 33.5578 16.7482 33.4997 16.705 33.4537C16.6828 33.4314 16.6539 33.4179 16.623 33.4154C16.5923 33.413 16.5616 33.4218 16.5364 33.4402C16.501 33.472 16.4898 33.5288 16.446 33.55C16.4268 33.5579 16.4061 33.5611 16.3855 33.5592C16.2828 33.5565 16.1818 33.5324 16.0884 33.4884C16.06 33.4712 16.028 33.4616 15.9952 33.4604C15.9295 33.4653 15.8811 33.5443 15.8159 33.5356C15.7837 33.5313 15.7572 33.5057 15.7251 33.4994C15.6929 33.4932 15.6524 33.5298 15.6738 33.5553L15.4926 33.5072C15.4884 33.5703 15.4126 33.6035 15.353 33.5905C15.2953 33.5697 15.2423 33.5369 15.1974 33.4942C15.1748 33.4728 15.1479 33.4569 15.1187 33.4476C15.0894 33.4384 15.0586 33.436 15.0283 33.4407C14.985 33.4889 14.9971 33.5635 15.0236 33.6213C15.0563 33.6759 15.0794 33.7361 15.0917 33.799C15.1103 33.9122 15.0404 33.9378 15.059 34.0369C15.0777 34.1362 15.1489 34.1381 15.182 34.2446C15.2081 34.3293 15.182 34.389 15.1699 34.4733C15.1578 34.5576 15.1699 34.5942 15.2355 34.9015C15.3376 35.3884 15.3264 35.4255 15.3911 35.5796C15.4423 35.7005 15.4615 35.7068 15.4815 35.7915C15.5131 35.9264 15.508 36.0959 15.5397 36.2144C15.5481 36.2483 15.5612 36.2808 15.5788 36.3107C15.5928 36.3324 15.611 36.3507 15.6254 36.3733C15.6437 36.4194 15.6551 36.4681 15.6594 36.5178C15.6746 36.5629 15.7055 36.6004 15.746 36.6233C15.8243 36.6777 15.8168 36.8208 15.7717 36.9065C15.7495 36.9397 15.7295 36.9743 15.7116 37.01C15.7012 37.0461 15.6993 37.0843 15.706 37.1213C15.7127 37.1583 15.7279 37.1931 15.7502 37.2229C15.7698 37.2486 15.7872 37.276 15.8024 37.3048C15.8101 37.3196 15.8141 37.3361 15.8141 37.3529C15.8141 37.3698 15.8101 37.3863 15.8024 37.4011C15.7926 37.417 15.7767 37.43 15.773 37.4493C15.7679 37.4758 15.7898 37.4974 15.7982 37.5239C15.8154 37.5759 15.7754 37.6275 15.7591 37.68C15.7381 37.7479 15.7591 37.8206 15.7675 37.8909C15.7778 37.9773 15.7812 38.0645 15.7777 38.1515C15.7806 38.3086 15.768 38.4656 15.74 38.6201C15.5971 38.685 15.4691 38.7802 15.3641 38.8994C15.3453 38.9219 15.3236 38.9416 15.2993 38.9578C15.2467 38.99 15.1811 38.9818 15.1196 38.9818C14.9797 38.9891 14.8427 39.026 14.7172 39.0902C14.6321 39.1254 14.5519 39.1723 14.4788 39.2294C14.366 39.3228 14.2901 39.4543 14.2137 39.5809C14.0697 39.8198 13.9169 40.0524 13.7554 40.2788C13.7787 40.3111 13.8356 40.3111 13.8486 40.3496C13.8616 40.3882 13.8262 40.4118 13.8244 40.4459C13.8225 40.4801 13.864 40.5148 13.9026 40.5196C13.9413 40.5244 13.9809 40.5143 14.0195 40.5196C14.0582 40.5249 14.0991 40.5563 14.0945 40.5963C14.1276 40.5883 14.1622 40.5899 14.1944 40.601C14.2267 40.6122 14.2553 40.6323 14.2771 40.6593C14.2994 40.6878 14.3162 40.7258 14.3497 40.7383C14.3832 40.7508 14.4215 40.7321 14.4578 40.7263C14.4941 40.7205 14.5426 40.7431 14.5356 40.7802C14.5321 40.7912 14.5274 40.8017 14.5216 40.8115C14.4978 40.864 14.5435 40.9242 14.5942 40.9483C14.645 40.9724 14.7041 40.9781 14.7507 41.0104C14.8103 41.0518 14.8364 41.1274 14.8588 41.1978L14.9053 41.3423C14.923 41.3981 14.9077 41.4386 14.9109 41.4974C14.9127 41.5107 14.9112 41.5242 14.9067 41.5368C14.8951 41.5628 14.8602 41.5696 14.8425 41.5898C14.8094 41.625 14.8257 41.6861 14.8033 41.7285C14.7945 41.7459 14.7796 41.7594 14.7707 41.7767C14.7405 41.8345 14.7848 41.9086 14.7647 41.9693C14.754 42.0026 14.726 42.0291 14.7228 42.0657C14.7228 42.0907 14.7316 42.1186 14.7186 42.1398C14.713 42.149 14.7041 42.1553 14.6991 42.1644C14.6846 42.1894 14.7041 42.2203 14.721 42.2439C14.7336 42.2584 14.7428 42.2757 14.7478 42.2945C14.7528 42.3133 14.7535 42.3331 14.7498 42.3523C14.7358 42.3941 14.6897 42.4124 14.6566 42.4379C14.5635 42.5054 14.5453 42.634 14.5327 42.7486C14.5277 42.7751 14.5294 42.8024 14.5374 42.8281C14.5486 42.8551 14.5742 42.8854 14.557 42.9085C14.5397 42.9316 14.503 42.9263 14.5007 42.9519C14.5007 42.9624 14.5076 42.9721 14.5123 42.9813C14.5416 43.0381 14.4759 43.105 14.4904 43.1676C14.4988 43.2038 14.5323 43.2298 14.5402 43.2639C14.542 43.2861 14.542 43.3083 14.5402 43.3304C14.5429 43.3536 14.5506 43.3758 14.5627 43.3954C14.5748 43.4151 14.591 43.4318 14.6101 43.4441C14.6482 43.4694 14.6898 43.4886 14.7335 43.5009C14.7504 43.4433 14.7463 43.3813 14.7218 43.3266C14.6975 43.2726 14.6777 43.2165 14.6627 43.1589C14.658 43.1408 14.658 43.1217 14.6627 43.1036C14.6767 43.0631 14.7233 43.0482 14.7633 43.0381L14.985 42.9836C15.0002 42.9792 15.0158 42.9769 15.0316 42.9769C15.0696 42.9858 15.1056 43.0022 15.1378 43.0251C15.1997 43.047 15.2646 43.0584 15.3301 43.0588C15.3953 43.0669 15.4665 43.0944 15.4913 43.1551C15.4974 43.1798 15.5055 43.204 15.5155 43.2274C15.5425 43.2726 15.6044 43.2755 15.6552 43.2683C15.8056 43.2442 15.9142 43.0699 16.0147 42.9519C16.0329 42.9284 16.0535 42.907 16.0762 42.8883C16.0935 42.8763 16.1117 42.8658 16.1307 42.857C16.2042 42.8199 16.2748 42.7769 16.3417 42.7284C16.3571 42.7186 16.3706 42.7059 16.3813 42.6908C16.3924 42.6689 16.3989 42.6448 16.4004 42.62C16.4288 42.4274 16.5503 42.2612 16.671 42.1095C16.8812 42.0642 17.0958 42.0446 17.3105 42.0512C17.3554 42.049 17.4004 42.0554 17.4432 42.07C17.4723 42.0871 17.5037 42.0998 17.5363 42.1076C17.5894 42.1129 17.636 42.0691 17.6891 42.0633C17.7369 42.0663 17.784 42.0766 17.8288 42.0941C17.8835 42.1019 17.9391 42.0983 17.9923 42.0835C18.205 42.038 18.4128 41.9707 18.6127 41.8826C18.6322 41.8717 18.6543 41.8666 18.6765 41.8682C18.7016 41.8725 18.7231 41.8938 18.7468 41.8976C18.7681 41.8969 18.7894 41.8952 18.8106 41.8923C18.834 41.8955 18.8561 41.9049 18.8749 41.9198L19.0682 42.0464C19.3825 42.0016 19.6983 42.1909 19.995 42.0739C20.0324 42.0556 20.0716 42.0415 20.1119 42.0319C20.1822 42.0304 20.2519 42.047 20.3145 42.0801C20.4745 42.1408 20.645 42.1666 20.8152 42.1558C20.8431 42.1509 20.8717 42.1541 20.8981 42.1649C20.9414 42.1885 20.9498 42.2477 20.9772 42.2896C21.0147 42.3365 21.0667 42.3685 21.1244 42.3802C21.2924 42.4299 21.4688 42.4426 21.6418 42.4173C21.6768 42.4119 21.7229 42.4124 21.735 42.4466C21.7372 42.4574 21.738 42.4684 21.7374 42.4794C21.7401 42.5502 21.8137 42.5979 21.8822 42.6032C21.9506 42.6007 22.0187 42.5921 22.0857 42.5776C22.3694 42.5483 22.6036 42.7968 22.8774 42.8849C22.9117 42.8978 22.9483 42.9028 22.9846 42.8998C23.0294 42.889 23.0725 42.8716 23.1127 42.8483C23.1886 42.8188 23.2703 42.8091 23.3506 42.8199C23.4454 42.8243 23.5385 42.8466 23.6254 42.8859C23.6228 42.9826 23.6147 43.0791 23.6012 43.1749C23.5964 43.1932 23.5982 43.2128 23.6063 43.2298C23.6177 43.2454 23.6343 43.2563 23.6529 43.2601C23.6993 43.2731 23.7476 43.2774 23.7954 43.2726C23.8091 43.2688 23.8232 43.2679 23.8371 43.2701C23.8511 43.2721 23.8645 43.2771 23.8765 43.2847C23.911 43.3169 23.8811 43.3752 23.8495 43.4099C23.8178 43.4446 23.7819 43.4966 23.8094 43.5351C23.8434 43.5833 23.9133 43.5394 23.9701 43.5293C24.046 43.5158 24.1261 43.5731 24.1979 43.5448C24.2696 43.5163 24.3013 43.4191 24.3753 43.4152C24.3927 43.4154 24.41 43.4184 24.4266 43.4243L24.7665 43.5236C24.808 43.5308 24.846 43.5518 24.875 43.5833C24.9156 43.6386 24.8909 43.7181 24.8601 43.7803C24.8294 43.8424 24.793 43.9122 24.8164 43.9778C24.8393 44.0247 24.8768 44.0624 24.923 44.0846C24.9268 44.0888 24.9315 44.0919 24.9366 44.0938C24.9418 44.0958 24.9473 44.0964 24.9527 44.0957C24.9582 44.0949 24.9634 44.0929 24.9679 44.0898C24.9725 44.0866 24.9762 44.0824 24.9789 44.0774C25.0492 43.9922 25.1224 43.8983 25.1293 43.7884C25.1331 43.7345 25.1205 43.6811 25.1219 43.6271C25.1203 43.6001 25.1256 43.5731 25.1373 43.549C25.149 43.5248 25.1666 43.5042 25.1885 43.4894C25.2155 43.4793 25.2447 43.4775 25.2727 43.4841C25.3006 43.4906 25.3262 43.5053 25.3463 43.5264C25.3901 43.5645 25.4232 43.6151 25.4698 43.6498C25.5676 43.7229 25.7026 43.7123 25.821 43.695C25.8574 43.6928 25.8928 43.6812 25.9239 43.6613C25.951 43.6365 25.9723 43.6058 25.9863 43.5713C26.0352 43.4743 26.0931 43.3826 26.1591 43.2972C26.1699 43.2792 26.1863 43.2656 26.2057 43.2586C26.2546 43.2486 26.2811 43.3189 26.2732 43.3699C26.2653 43.4209 26.2462 43.4793 26.2769 43.5197C26.2942 43.5375 26.3148 43.5514 26.3374 43.5606C26.3847 43.5873 26.4241 43.6268 26.4514 43.6748C26.4786 43.7228 26.4926 43.7776 26.4921 43.8333L26.8097 43.6314C26.8358 43.6151 26.8679 43.6459 26.8931 43.6642C26.9625 43.7123 27.0585 43.6681 27.1408 43.6859C27.1392 43.8304 27.1689 43.9734 27.228 44.1044C27.237 44.128 27.251 44.1493 27.2689 44.1665C27.2781 44.1749 27.2895 44.1804 27.3017 44.1823C27.3138 44.1843 27.3262 44.1824 27.3374 44.1771C27.3542 44.1675 27.3705 44.1468 27.3872 44.1554C27.3885 44.198 27.4023 44.2392 27.4268 44.2734C27.4323 44.2823 27.4403 44.2892 27.4496 44.2932C27.4776 44.3028 27.499 44.2667 27.5037 44.2368C27.5176 44.1506 27.493 44.0591 27.5195 43.9763C27.5345 43.9354 27.5571 43.8981 27.5861 43.8664C27.6598 43.7802 27.7518 43.7128 27.8548 43.6695C27.9011 43.6464 27.9532 43.6387 28.0039 43.6473C28.026 43.6564 28.0496 43.6609 28.0733 43.6608C28.0887 43.6567 28.1027 43.6484 28.1141 43.6368C28.1253 43.6252 28.1334 43.6108 28.1376 43.5948C28.1483 43.564 28.1515 43.5308 28.1641 43.4985C28.1772 43.469 28.1987 43.4443 28.2258 43.4279C28.2529 43.4114 28.2842 43.4039 28.3155 43.4065C28.3621 43.4109 28.4049 43.4191 28.4491 43.4248C28.4716 43.4255 28.4935 43.4326 28.5123 43.4454C28.5311 43.4581 28.5462 43.476 28.5558 43.4971C28.5597 43.5182 28.5621 43.5396 28.5632 43.5611C28.5749 43.6295 28.6429 43.6699 28.6825 43.7258C28.7061 43.76 28.7198 43.8004 28.722 43.8424C28.7243 43.8844 28.7149 43.9261 28.6951 43.9628C28.6741 43.9999 28.641 44.0413 28.6587 44.0803C28.6764 44.1193 28.7178 44.1208 28.7519 44.1396C28.7738 44.1563 28.7923 44.1773 28.8063 44.2014C28.8202 44.2256 28.8295 44.2523 28.8334 44.2802C28.8409 44.3361 28.8611 44.3893 28.892 44.4358C28.9274 44.4781 29.0001 44.4936 29.0346 44.4502C29.0465 44.4294 29.057 44.4076 29.0658 44.3852C29.0789 44.3638 29.099 44.348 29.1225 44.3408C29.1459 44.3335 29.1711 44.3353 29.1934 44.3457C29.2139 44.3563 29.2306 44.3741 29.2507 44.3852C29.2603 44.3916 29.2718 44.3947 29.2833 44.3939C29.2947 44.3931 29.3057 44.3886 29.3145 44.3808C29.3207 44.3723 29.325 44.3624 29.3271 44.3519L29.396 44.0914C29.4668 44.0813 29.5418 44.1781 29.5958 44.1299C29.6326 44.0972 29.6097 44.0307 29.6358 43.9883C29.6529 43.9651 29.6767 43.9482 29.7038 43.9401C29.7658 43.9156 29.8436 43.8944 29.8902 43.9449C29.9137 43.9818 29.9259 44.0251 29.9251 44.0693C29.9307 44.1126 29.9493 44.1627 29.9907 44.1723C30.0322 44.1819 30.0713 44.1468 30.1128 44.1516C30.1542 44.1564 30.1975 44.2084 30.2394 44.1901C30.2532 44.1827 30.2645 44.1713 30.2721 44.1574C30.2982 44.1164 30.3163 44.0706 30.3256 44.0225C30.3504 44.0384 30.3718 44.0594 30.3885 44.0842C30.4877 44.0663 30.5524 43.9522 30.6521 43.9397C30.7057 43.9319 30.7597 43.9556 30.8137 43.9503C30.8677 43.9449 30.9068 43.9175 30.9534 43.9146C31.0279 43.9103 31.0932 43.9657 31.1421 44.0239C31.1909 44.0823 31.2352 44.1487 31.3042 44.1814C31.3628 44.2099 31.4359 44.2108 31.4807 44.2595C31.5001 44.2822 31.5108 44.3115 31.5108 44.3418C31.5108 44.3722 31.5001 44.4014 31.4807 44.4242C31.4634 44.4384 31.4478 44.4546 31.4341 44.4724C31.4266 44.4894 31.4242 44.5084 31.4275 44.5268C31.4308 44.5453 31.4394 44.5623 31.4523 44.5754C31.479 44.6014 31.5107 44.6213 31.5454 44.6337C31.5785 44.6506 31.6135 44.6629 31.6497 44.6703C31.6715 44.6723 31.6925 44.6795 31.7112 44.6912C31.73 44.7028 31.7459 44.7188 31.7578 44.7378C31.768 44.7599 31.7708 44.7859 31.7899 44.8023C31.797 44.8069 31.8049 44.8104 31.8132 44.8124L31.9935 44.8654C32.0003 44.8679 32.0076 44.8689 32.0148 44.8683C32.023 44.8659 32.0302 44.8608 32.0352 44.8539C32.0404 44.8469 32.0432 44.8384 32.0432 44.8297C32.0432 44.8124 32.04 44.7951 32.0405 44.7777C32.0405 44.7218 32.087 44.6814 32.1336 44.6491C32.1625 44.6294 32.1951 44.6068 32.2002 44.5716C32.1991 44.5406 32.192 44.5102 32.1797 44.482C32.1727 44.4521 32.1862 44.4103 32.2161 44.4117C32.198 44.3952 32.1835 44.3749 32.1737 44.3521C32.1639 44.3293 32.159 44.3046 32.1592 44.2797C32.1625 44.2591 32.1606 44.2381 32.1536 44.2186C32.1299 44.1743 32.0466 44.1868 32.0372 44.1366C32.0362 44.1266 32.0379 44.1166 32.0421 44.1074C32.0463 44.0984 32.0528 44.0906 32.0609 44.0851C32.0771 44.0743 32.0942 44.0648 32.1117 44.0567C32.1161 44.0549 32.1201 44.0521 32.1233 44.0485C32.1265 44.0449 32.1289 44.0406 32.1304 44.036C32.1311 44.0296 32.1297 44.0232 32.1266 44.0177C32.1052 43.9748 32.0474 43.9527 32.0428 43.9045C32.0445 43.8846 32.0445 43.8647 32.0428 43.8448C32.034 43.8135 31.992 43.7918 32.0023 43.761C32.006 43.7499 32.0158 43.7422 32.019 43.7306C32.0247 43.7094 32.0018 43.6907 31.9804 43.6878C31.959 43.6883 31.9377 43.687 31.9166 43.6839C31.9027 43.679 31.8911 43.6688 31.8842 43.6553C31.8772 43.6419 31.8755 43.6263 31.8793 43.6116C31.8831 43.5968 31.8921 43.5842 31.9045 43.5761C31.917 43.5679 31.932 43.565 31.9464 43.5679C31.9454 43.5544 31.9407 43.5416 31.9329 43.5308C31.925 43.5201 31.9144 43.5118 31.9021 43.5072C31.864 43.4932 31.8859 43.4219 31.9021 43.3844C31.9297 43.328 31.9456 43.2663 31.9487 43.2033C31.9487 43.1589 31.9487 43.1069 31.9874 43.0819C32.0088 43.0684 32.0363 43.0699 32.0573 43.0559C32.0898 43.0342 32.0922 42.987 32.0908 42.9471L32.0857 42.7789C32.0848 42.7737 32.085 42.7683 32.0862 42.7631C32.0874 42.7579 32.0896 42.7529 32.0927 42.7486C32.0998 42.7428 32.1086 42.7393 32.1178 42.7385C32.1438 42.7318 32.1665 42.7155 32.1818 42.6928C32.1971 42.67 32.2037 42.6423 32.2007 42.6147C32.1956 42.5771 32.1718 42.5396 32.1849 42.5044C32.1946 42.4779 32.2221 42.4639 32.2426 42.4447C32.3088 42.3836 32.3111 42.2617 32.3916 42.2227C32.4326 42.2029 32.489 42.2073 32.5127 42.1673C32.5416 42.1191 32.4918 42.0498 32.5197 42.0011C32.5344 41.9813 32.5548 41.9666 32.5779 41.9593C32.6417 41.9303 32.7111 41.8874 32.7233 41.8148C32.7275 41.7916 32.726 41.7637 32.7442 41.7488C32.7581 41.7398 32.7746 41.7361 32.7908 41.7386H32.9393C32.9538 41.7088 32.9235 41.6765 32.8928 41.6611C32.862 41.6457 32.8285 41.6288 32.8252 41.5956C32.822 41.5624 32.8504 41.5388 32.8551 41.5079C32.8597 41.4771 32.8429 41.4492 32.8485 41.4203C32.8531 41.4049 32.8621 41.3913 32.8744 41.3812C32.8866 41.3712 32.9014 41.3651 32.917 41.3639C32.9482 41.3619 32.9796 41.3642 33.0101 41.3707C33.1035 41.3741 33.1968 41.3704 33.2896 41.3596C33.3827 41.3572 33.4861 41.3769 33.5481 41.4497C33.5648 41.4694 33.5821 41.4944 33.6072 41.4935C33.6196 41.4923 33.6314 41.487 33.6408 41.4786C33.6604 41.4629 33.6767 41.4433 33.6887 41.4208C33.7008 41.3983 33.7082 41.3736 33.7106 41.3481C33.7139 41.3219 33.724 41.2971 33.7398 41.2763C33.7555 41.2554 33.7763 41.2393 33.8001 41.2296C33.8497 41.208 33.9027 41.1963 33.9565 41.1949C34.1914 41.1753 34.4275 41.1767 34.6621 41.1992C34.7239 41.2124 34.7881 41.2051 34.8457 41.1785C34.8638 41.1656 34.879 41.1489 34.8903 41.1294C34.9015 41.1098 34.9086 41.088 34.911 41.0654C34.9133 41.0428 34.9108 41.0199 34.9038 40.9984C34.8968 40.9769 34.8854 40.9571 34.8703 40.9406C34.8298 40.9006 34.7702 40.8866 34.7306 40.8443C34.6691 40.7793 34.6808 40.6718 34.7152 40.5885C34.7221 40.5763 34.7249 40.5621 34.7231 40.5481C34.72 40.5395 34.7144 40.5321 34.7071 40.5269C34.6997 40.5218 34.691 40.5191 34.6822 40.5192C34.6645 40.5198 34.6469 40.5215 34.6296 40.5244C34.6068 40.5248 34.5843 40.5203 34.5632 40.5113C34.5423 40.5022 34.5233 40.4889 34.5075 40.4719C34.4761 40.4381 34.4492 40.3998 34.4279 40.3583C34.4208 40.3477 34.4161 40.3354 34.4144 40.3227C34.4144 40.2971 34.433 40.2745 34.4483 40.2557C34.4756 40.217 34.4883 40.1694 34.4841 40.1218C34.48 40.0742 34.4594 40.0297 34.426 39.9966C34.412 39.9858 34.3995 39.9732 34.3887 39.959C34.3745 39.9267 34.3732 39.8898 34.385 39.8564L34.4148 39.7216C34.4185 39.7084 34.4199 39.6948 34.419 39.6811C34.4106 39.6161 34.3082 39.6002 34.3017 39.5366C34.303 39.5091 34.3115 39.4825 34.3263 39.4596C34.3335 39.448 34.337 39.4344 34.3363 39.4207C34.3357 39.4069 34.3309 39.3938 34.3226 39.383C34.3779 39.3557 34.4413 39.3514 34.4996 39.3709C34.4306 39.3229 34.3655 39.2691 34.3049 39.2101C34.2855 39.1938 34.2707 39.1723 34.2621 39.148C34.2591 39.1256 34.2578 39.1031 34.2579 39.0806C34.2457 38.977 34.1037 38.9389 34.0767 38.8398L34.2821 38.7617C34.2976 38.7571 34.3119 38.7491 34.324 38.7381C34.3382 38.72 34.3458 38.6973 34.3455 38.6741C34.349 38.6196 34.3412 38.5649 34.3227 38.5138C34.3042 38.4626 34.2755 38.4161 34.2383 38.3774C34.2038 38.3418 34.1587 38.3061 34.1577 38.2551C34.1577 38.2126 34.1885 38.1741 34.1852 38.1323C34.136 38.142 34.0852 38.1383 34.0379 38.1214C33.9906 38.1045 33.9484 38.075 33.9155 38.0359C33.8429 37.9627 33.7656 37.8813 33.7525 37.7773C33.7522 37.7473 33.7472 37.7175 33.7377 37.6891C33.724 37.6651 33.705 37.6448 33.6822 37.6299L33.4791 37.4724C33.5101 37.4578 33.5364 37.4343 33.5549 37.4048C33.5735 37.3753 33.5836 37.3409 33.584 37.3058C33.5818 37.2896 33.5832 37.2731 33.5882 37.2576C33.5961 37.2439 33.6077 37.2328 33.6217 37.2258L33.733 37.1545C33.7252 37.0436 33.7298 36.9321 33.7465 36.8222C33.7493 36.7873 33.7615 36.7539 33.7819 36.7259C33.8285 36.6714 33.9137 36.6859 33.9808 36.7095C34.0478 36.7331 34.1256 36.7577 34.1848 36.7196C34.2257 36.6917 34.2495 36.6353 34.2979 36.6266C34.3464 36.618 34.3822 36.6575 34.426 36.6714C34.5033 36.697 34.6072 36.6508 34.6589 36.7163C34.7008 36.7702 34.665 36.8578 34.7012 36.9161C34.7525 36.9985 34.8843 36.9494 34.963 37.0033C34.991 37.0226 35.0096 37.0543 35.0403 37.0698C35.1134 37.1073 35.1949 37.0317 35.2769 37.0303C35.33 37.0359 35.3817 37.0523 35.4288 37.0784C35.4786 37.0986 35.5419 37.1059 35.5796 37.0664C35.5922 37.0534 35.6006 37.0361 35.6136 37.024C35.6444 36.9956 35.6914 37.0004 35.731 36.9884C35.7706 36.9763 35.8041 36.919 35.7706 36.8921L35.9443 36.8694C35.9625 36.8689 35.98 36.8627 35.9946 36.8516C36.0096 36.8312 36.0177 36.8064 36.0179 36.7808C36.0272 36.7276 36.0563 36.6804 36.099 36.6493C36.1311 36.6262 36.1697 36.6132 36.2024 36.5906C36.2839 36.5351 36.3193 36.4326 36.35 36.3372C36.3626 36.309 36.3652 36.2771 36.3574 36.2471C36.3438 36.2236 36.3265 36.2026 36.3062 36.185C36.289 36.1643 36.2782 36.1306 36.2969 36.1113C36.3514 36.0858 36.4143 36.1036 36.4739 36.1113C36.5335 36.119 36.6057 36.1113 36.6336 36.0559C36.6403 36.0374 36.6479 36.0193 36.6564 36.0015C36.6834 35.9596 36.7426 35.962 36.791 35.9664C36.8395 35.9707 36.9005 35.9664 36.9182 35.9182C36.9321 35.8806 36.9089 35.8406 36.893 35.8041C36.8749 35.7621 36.8655 35.7168 36.8655 35.6709C36.8655 35.625 36.8749 35.5796 36.893 35.5377C36.9103 35.4987 36.9298 35.4414 36.893 35.4221C36.8817 35.4179 36.8695 35.4168 36.8576 35.4188L36.7063 35.4303C36.7177 35.4025 36.7225 35.3723 36.7203 35.3422C36.7187 35.3272 36.7121 35.3133 36.7016 35.3028C36.6911 35.2924 36.6775 35.286 36.663 35.2849C36.6206 35.2849 36.5912 35.3474 36.5498 35.3369C36.5279 35.3311 36.5158 35.3075 36.5032 35.2887C36.445 35.2131 36.3332 35.2208 36.248 35.1813C36.1734 35.1422 36.1162 35.0749 36.0882 34.9934C36.0606 34.9128 36.0431 34.8288 36.0361 34.7435C36.0915 34.7243 36.148 34.7083 36.2051 34.6953C36.261 34.6785 36.3169 34.6308 36.3118 34.5711C36.3077 34.5503 36.2994 34.5306 36.2874 34.5134C36.2755 34.4961 36.2601 34.4816 36.2424 34.4709C36.2072 34.4445 36.1693 34.4223 36.1292 34.4049C36.1173 34.3982 36.1035 34.3958 36.0901 34.3982C36.0756 34.4025 36.0663 34.416 36.0537 34.4247C36.0385 34.4321 36.0215 34.4345 36.0048 34.4317C35.9882 34.4288 35.9728 34.4208 35.9606 34.4088C35.9341 34.3861 35.9141 34.3548 35.8917 34.3298C35.792 34.2286 35.6155 34.2551 35.514 34.1559C35.4781 34.1213 35.4525 34.0711 35.4069 34.0533C35.3597 34.0415 35.31 34.048 35.2671 34.0716L34.8829 34.2378C34.8701 34.2443 34.8557 34.247 34.8415 34.2455C34.8302 34.2421 34.8197 34.2364 34.8107 34.2286C34.7307 34.1716 34.6321 34.1494 34.5364 34.167C34.5467 34.1039 34.5671 34.043 34.597 33.9869C34.6509 33.8413 34.6865 33.6891 34.7027 33.5341C34.7187 33.4595 34.7196 33.3823 34.7054 33.3073C34.6859 33.2321 34.6351 33.1628 34.6393 33.0858L34.5462 33.1137C34.5297 33.064 34.5051 33.0176 34.4735 32.9764C34.4575 32.9561 34.4367 32.9402 34.4132 32.9303C34.3897 32.9203 34.3642 32.9166 34.3389 32.9196C34.3203 32.926 34.3008 32.9291 34.2811 32.9288C34.2639 32.9244 34.2479 32.9159 34.2346 32.9037C34.1515 32.8399 34.0511 32.805 33.9477 32.804C33.808 32.7077 33.664 32.6161 33.5262 32.5179C33.4863 32.4961 33.4525 32.4641 33.428 32.4248C33.4035 32.3856 33.3893 32.3406 33.3865 32.2939C33.3665 32.2093 33.3564 32.1224 33.3562 32.0353C33.36 32.0019 33.3588 31.9681 33.3525 31.9351C33.3301 31.8538 33.2342 31.8138 33.2058 31.7343C33.1982 31.7034 33.1923 31.672 33.1881 31.6404C33.1657 31.5441 33.0772 31.4819 32.9878 31.4478C32.9422 31.4353 32.8979 31.4181 32.8555 31.3967C32.8344 31.3857 32.8164 31.3691 32.8034 31.3486C32.7904 31.3282 32.7828 31.3046 32.7815 31.2801C32.7883 31.2359 32.8085 31.1951 32.8393 31.1636C32.901 31.0824 32.9534 30.9939 32.9953 30.9001C33.0176 30.8519 33.032 30.7797 32.9882 30.7484C32.9717 30.7384 32.9529 30.7331 32.9338 30.733C32.8406 30.7258 32.7502 30.7407 32.6609 30.7219C32.6492 30.7208 32.6379 30.7173 32.6276 30.7115C32.6173 30.7058 32.6081 30.6981 32.6007 30.6887C32.5915 30.6678 32.5877 30.6446 32.5901 30.6218C32.5881 30.5746 32.5734 30.5291 32.5477 30.4901C32.5221 30.4511 32.4864 30.4203 32.4447 30.4011C32.3669 30.3669 32.3111 30.2947 32.23 30.2697C32.1945 30.2614 32.16 30.2489 32.1271 30.2326C32.1009 30.2161 32.0789 30.1931 32.0633 30.1657C32.0477 30.1383 32.0389 30.1074 32.0377 30.0756C32.0371 30.0438 32.0429 30.0123 32.0547 29.9829C32.0664 29.9536 32.084 29.9271 32.1062 29.9051C32.1272 29.8874 32.1465 29.8673 32.1634 29.8454C32.1763 29.8204 32.1825 29.7924 32.1817 29.7642C32.1807 29.736 32.1727 29.7085 32.1583 29.6845C32.1392 29.6479 32.1117 29.6055 32.1313 29.5689C32.1391 29.5563 32.1501 29.5459 32.163 29.5391C32.2082 29.5159 32.2549 29.4959 32.3027 29.4788C32.3269 29.4701 32.3491 29.4564 32.3679 29.4384C32.3868 29.4204 32.4018 29.3986 32.4122 29.3743C32.4336 29.3088 32.3972 29.2395 32.3623 29.1817L32.5341 29.1764C32.5426 29.1768 32.5511 29.1751 32.5588 29.1716C32.565 29.1669 32.57 29.1607 32.5734 29.1536C32.5767 29.1464 32.5783 29.1386 32.5779 29.1306C32.5775 29.0891 32.5678 29.0482 32.5496 29.0111C32.5313 28.9741 32.505 28.942 32.4727 28.9173C32.46 28.9084 32.4503 28.8959 32.4447 28.8811C32.4429 28.8692 32.444 28.8569 32.448 28.8455L32.4787 28.7261C32.4946 28.6639 32.4406 28.6071 32.3958 28.5623C32.3474 28.5219 32.3052 28.4741 32.2705 28.4207C32.2431 28.3678 32.2366 28.3041 32.2021 28.256C32.1742 28.217 32.1313 28.1929 32.1015 28.1558C32.0756 28.1203 32.0597 28.0781 32.0556 28.0338C32.0514 27.9894 32.0593 27.9449 32.0782 27.9049C32.1174 27.8253 32.1794 27.7603 32.2557 27.7185C32.2823 27.7062 32.3055 27.6869 32.3227 27.6626C32.3479 27.6174 32.3227 27.5591 32.2882 27.5181C32.2538 27.4772 32.2179 27.4483 32.2258 27.403C32.2323 27.3654 32.2696 27.3438 32.3008 27.3231C32.3081 27.3192 32.3141 27.3131 32.3181 27.3058C32.3288 27.2807 32.2948 27.2629 32.2761 27.2431C32.2586 27.2183 32.2508 27.1875 32.2542 27.1569C32.2542 27.0776 32.2574 26.9983 32.2635 26.919C32.2676 26.8939 32.2676 26.8684 32.2635 26.8434C32.2575 26.8273 32.2483 26.8126 32.2366 26.8003C32.225 26.7879 32.2109 26.7781 32.1955 26.7715C32.18 26.7649 32.1635 26.7616 32.1468 26.7618C32.1301 26.7619 32.1135 26.7656 32.0982 26.7726C32.0516 26.7933 32.0167 26.8414 31.9669 26.8564C31.8914 26.879 31.8174 26.7923 31.8095 26.7119C31.8099 26.6905 31.8067 26.6691 31.8002 26.6488C31.7885 26.6321 31.7724 26.6192 31.7538 26.6119C31.7351 26.6045 31.7149 26.6029 31.6953 26.6074C31.6564 26.617 31.6157 26.6153 31.5775 26.6026C31.531 26.5771 31.5165 26.512 31.5151 26.4557C31.5137 26.3993 31.5151 26.3367 31.4797 26.2943C31.4211 26.2254 31.2883 26.2418 31.2589 26.1551C31.2497 26.1277 31.2552 26.0969 31.2445 26.0699C31.2231 26.015 31.1513 26.0063 31.0964 25.9986C30.9832 25.9831 30.8758 25.9378 30.7844 25.8671C30.7378 25.8315 30.6865 25.7872 30.6311 25.8026C30.5664 25.8204 30.5412 25.91 30.4774 25.9302C30.433 25.9369 30.3877 25.9274 30.3494 25.9033C30.2594 25.8598 30.1596 25.8431 30.0611 25.8551C30.0119 25.8614 29.9651 25.88 29.9245 25.9093C29.8839 25.9386 29.8509 25.9777 29.8282 26.0232C29.81 26.0641 29.8026 26.1094 29.7816 26.1489C29.7728 26.1695 29.758 26.1868 29.7394 26.1983C29.7207 26.2099 29.699 26.2151 29.6773 26.2134C29.6578 26.2071 29.6392 26.1981 29.6219 26.1869C29.5413 26.146 29.4444 26.1783 29.3671 26.225C29.2237 26.3121 29.112 26.4454 29.049 26.6045C28.9475 26.5563 28.9452 26.3984 28.8585 26.3242C28.8227 26.2934 28.7756 26.2799 28.7397 26.2496C28.7111 26.2243 28.6913 26.19 28.6834 26.1519C28.6756 26.1139 28.6802 26.0742 28.6965 26.0391C28.7225 25.9861 28.7756 25.9428 28.7784 25.8854C28.7784 25.8373 28.7463 25.7862 28.7658 25.7409C28.7817 25.7034 28.8259 25.6928 28.859 25.6706C28.892 25.6484 28.9196 25.5964 28.8879 25.5714C28.8562 25.4838 28.7635 25.437 28.675 25.4178C28.5866 25.3985 28.492 25.3946 28.4137 25.3479C28.3579 25.3147 28.3145 25.2622 28.2596 25.2275C28.1353 25.1486 27.9708 25.1721 27.8404 25.2424C27.799 25.2651 27.7598 25.2906 27.717 25.3109C27.6674 25.3254 27.6203 25.3476 27.5772 25.3768C27.5386 25.411 27.5214 25.4799 27.56 25.5146C27.4868 25.5155 27.4139 25.5031 27.3449 25.478C27.3105 25.4651 27.2792 25.4446 27.2533 25.4179C27.2273 25.3912 27.2075 25.3589 27.1949 25.3234C27.1753 25.2564 27.1903 25.1789 27.16 25.1182C27.1408 25.0787 27.1055 25.0493 27.0882 25.0094C27.0789 24.9881 27.0799 24.9848 27.0743 24.9733C27.0435 24.9078 26.9536 24.887 26.9052 24.8769C26.8456 24.8644 26.8321 24.8716 26.6439 24.8769C26.5182 24.8808 26.493 24.8769 26.4716 24.9024C26.4292 24.9506 26.4656 25.0306 26.4195 25.0739C26.4035 25.0854 26.3853 25.0931 26.3661 25.0964C26.347 25.0998 26.3273 25.0986 26.3086 25.0931C26.2398 24.9571 26.1531 24.8314 26.051 24.7199C26.0123 24.6795 25.9716 24.6413 25.929 24.6053Z" fill="black"/>
</g>
<defs>
<clipPath id="clip0_3_4">
<rect width="157" height="55" fill="white"/>
</clipPath>
</defs>
</svg>
